<ttFont>
<head>
    <!-- Most of this table will be recalculated by the compiler -->
    <tableVersion value="1.0"/>
    <fontRevision value="5.0"/>
    <checkSumAdjustment value="0xf64a8e8"/>
    <magicNumber value="0x5f0f3cf5"/>
    <flags value="00000000 00001011"/>
    <unitsPerEm value="2048"/>
    <created value="Sun May 15 08:57:39 2005"/>
    <modified value="Fri Apr 15 05:55:04 2011"/>
    <xMin value="-209"/>
    <yMin value="-1204"/>
    <xMax value="6982"/>
    <yMax value="2299"/>
    <macStyle value="00000000 00000000"/>
    <lowestRecPPEM value="8"/>
    <fontDirectionHint value="2"/>
    <indexToLocFormat value="1"/>
    <glyphDataFormat value="0"/>
  </head>
    <TTGlyph name=".notdef" xMin="142" yMin="226" xMax="842" yMax="1588">
      <contour>
        <pt x="142" y="226" on="1"/>
        <pt x="142" y="1588" on="1"/>
        <pt x="842" y="1588" on="1"/>
        <pt x="842" y="226" on="1"/>
      </contour>
      <contour>
        <pt x="284" y="368" on="1"/>
        <pt x="700" y="368" on="1"/>
        <pt x="700" y="1447" on="1"/>
        <pt x="284" y="1447" on="1"/>
      </contour>
    </TTGlyph>
    <TTGlyph name=".null" xMin="142" yMin="226" xMax="842" yMax="1588">
      <contour>
        <pt x="142" y="226" on="1"/>
        <pt x="142" y="1588" on="1"/>
        <pt x="842" y="1588" on="1"/>
        <pt x="842" y="226" on="1"/>
      </contour>
      <contour>
        <pt x="284" y="368" on="1"/>
        <pt x="700" y="368" on="1"/>
        <pt x="700" y="1447" on="1"/>
        <pt x="284" y="1447" on="1"/>
      </contour>
    </TTGlyph>
    <TTGlyph name="afii57381" xMin="142" yMin="226" xMax="842" yMax="1588">
      <contour>
        <pt x="142" y="226" on="1"/>
        <pt x="142" y="1588" on="1"/>
        <pt x="842" y="1588" on="1"/>
        <pt x="842" y="226" on="1"/>
      </contour>
      <contour>
        <pt x="284" y="368" on="1"/>
        <pt x="700" y="368" on="1"/>
        <pt x="700" y="1447" on="1"/>
        <pt x="284" y="1447" on="1"/>
      </contour>
    </TTGlyph>
    <TTGlyph name="afii57388" xMin="142" yMin="226" xMax="842" yMax="1588">
      <contour>
        <pt x="142" y="226" on="1"/>
        <pt x="142" y="1588" on="1"/>
        <pt x="842" y="1588" on="1"/>
        <pt x="842" y="226" on="1"/>
      </contour>
      <contour>
        <pt x="284" y="368" on="1"/>
        <pt x="700" y="368" on="1"/>
        <pt x="700" y="1447" on="1"/>
        <pt x="284" y="1447" on="1"/>
      </contour>
    </TTGlyph>
    <TTGlyph name="afii57396" xMin="142" yMin="226" xMax="842" yMax="1588">
      <contour>
        <pt x="142" y="226" on="1"/>
        <pt x="142" y="1588" on="1"/>
        <pt x="842" y="1588" on="1"/>
        <pt x="842" y="226" on="1"/>
      </contour>
      <contour>
        <pt x="284" y="368" on="1"/>
        <pt x="700" y="368" on="1"/>
        <pt x="700" y="1447" on="1"/>
        <pt x="284" y="1447" on="1"/>
      </contour>
    </TTGlyph>
    <TTGlyph name="afii57397" xMin="142" yMin="226" xMax="842" yMax="1588">
      <contour>
        <pt x="142" y="226" on="1"/>
        <pt x="142" y="1588" on="1"/>
        <pt x="842" y="1588" on="1"/>
        <pt x="842" y="226" on="1"/>
      </contour>
      <contour>
        <pt x="284" y="368" on="1"/>
        <pt x="700" y="368" on="1"/>
        <pt x="700" y="1447" on="1"/>
        <pt x="284" y="1447" on="1"/>
      </contour>
    </TTGlyph>
    <TTGlyph name="afii57398" xMin="142" yMin="226" xMax="842" yMax="1588">
      <contour>
        <pt x="142" y="226" on="1"/>
        <pt x="142" y="1588" on="1"/>
        <pt x="842" y="1588" on="1"/>
        <pt x="842" y="226" on="1"/>
      </contour>
      <contour>
        <pt x="284" y="368" on="1"/>
        <pt x="700" y="368" on="1"/>
        <pt x="700" y="1447" on="1"/>
        <pt x="284" y="1447" on="1"/>
      </contour>
    </TTGlyph>
    <TTGlyph name="afii57403" xMin="142" yMin="226" xMax="842" yMax="1588">
      <contour>
        <pt x="142" y="226" on="1"/>
        <pt x="142" y="1588" on="1"/>
        <pt x="842" y="1588" on="1"/>
        <pt x="842" y="226" on="1"/>
      </contour>
      <contour>
        <pt x="284" y="368" on="1"/>
        <pt x="700" y="368" on="1"/>
        <pt x="700" y="1447" on="1"/>
        <pt x="284" y="1447" on="1"/>
      </contour>
    </TTGlyph>
    <TTGlyph name="afii57407" xMin="142" yMin="226" xMax="842" yMax="1588">
      <contour>
        <pt x="142" y="226" on="1"/>
        <pt x="142" y="1588" on="1"/>
        <pt x="842" y="1588" on="1"/>
        <pt x="842" y="226" on="1"/>
      </contour>
      <contour>
        <pt x="284" y="368" on="1"/>
        <pt x="700" y="368" on="1"/>
        <pt x="700" y="1447" on="1"/>
        <pt x="284" y="1447" on="1"/>
      </contour>
    </TTGlyph>
    <TTGlyph name="afii57440" xMin="142" yMin="226" xMax="842" yMax="1588">
      <contour>
        <pt x="142" y="226" on="1"/>
        <pt x="142" y="1588" on="1"/>
        <pt x="842" y="1588" on="1"/>
        <pt x="842" y="226" on="1"/>
      </contour>
      <contour>
        <pt x="284" y="368" on="1"/>
        <pt x="700" y="368" on="1"/>
        <pt x="700" y="1447" on="1"/>
        <pt x="284" y="1447" on="1"/>
      </contour>
    </TTGlyph>
    <TTGlyph name="afii57451" xMin="142" yMin="226" xMax="842" yMax="1588">
      <contour>
        <pt x="142" y="226" on="1"/>
        <pt x="142" y="1588" on="1"/>
        <pt x="842" y="1588" on="1"/>
        <pt x="842" y="226" on="1"/>
      </contour>
      <contour>
        <pt x="284" y="368" on="1"/>
        <pt x="700" y="368" on="1"/>
        <pt x="700" y="1447" on="1"/>
        <pt x="284" y="1447" on="1"/>
      </contour>
    </TTGlyph>
    <TTGlyph name="afii57452" xMin="142" yMin="226" xMax="842" yMax="1588">
      <contour>
        <pt x="142" y="226" on="1"/>
        <pt x="142" y="1588" on="1"/>
        <pt x="842" y="1588" on="1"/>
        <pt x="842" y="226" on="1"/>
      </contour>
      <contour>
        <pt x="284" y="368" on="1"/>
        <pt x="700" y="368" on="1"/>
        <pt x="700" y="1447" on="1"/>
        <pt x="284" y="1447" on="1"/>
      </contour>
    </TTGlyph>
    <TTGlyph name="afii57453" xMin="142" yMin="226" xMax="842" yMax="1588">
      <contour>
        <pt x="142" y="226" on="1"/>
        <pt x="142" y="1588" on="1"/>
        <pt x="842" y="1588" on="1"/>
        <pt x="842" y="226" on="1"/>
      </contour>
      <contour>
        <pt x="284" y="368" on="1"/>
        <pt x="700" y="368" on="1"/>
        <pt x="700" y="1447" on="1"/>
        <pt x="284" y="1447" on="1"/>
      </contour>
    </TTGlyph>
    <TTGlyph name="afii57454" xMin="142" yMin="226" xMax="842" yMax="1588">
      <contour>
        <pt x="142" y="226" on="1"/>
        <pt x="142" y="1588" on="1"/>
        <pt x="842" y="1588" on="1"/>
        <pt x="842" y="226" on="1"/>
      </contour>
      <contour>
        <pt x="284" y="368" on="1"/>
        <pt x="700" y="368" on="1"/>
        <pt x="700" y="1447" on="1"/>
        <pt x="284" y="1447" on="1"/>
      </contour>
    </TTGlyph>
    <TTGlyph name="afii57455" xMin="142" yMin="226" xMax="842" yMax="1588">
      <contour>
        <pt x="142" y="226" on="1"/>
        <pt x="142" y="1588" on="1"/>
        <pt x="842" y="1588" on="1"/>
        <pt x="842" y="226" on="1"/>
      </contour>
      <contour>
        <pt x="284" y="368" on="1"/>
        <pt x="700" y="368" on="1"/>
        <pt x="700" y="1447" on="1"/>
        <pt x="284" y="1447" on="1"/>
      </contour>
    </TTGlyph>
    <TTGlyph name="afii57456" xMin="142" yMin="226" xMax="842" yMax="1588">
      <contour>
        <pt x="142" y="226" on="1"/>
        <pt x="142" y="1588" on="1"/>
        <pt x="842" y="1588" on="1"/>
        <pt x="842" y="226" on="1"/>
      </contour>
      <contour>
        <pt x="284" y="368" on="1"/>
        <pt x="700" y="368" on="1"/>
        <pt x="700" y="1447" on="1"/>
        <pt x="284" y="1447" on="1"/>
      </contour>
    </TTGlyph>
    <TTGlyph name="afii57457" xMin="142" yMin="226" xMax="842" yMax="1588">
      <contour>
        <pt x="142" y="226" on="1"/>
        <pt x="142" y="1588" on="1"/>
        <pt x="842" y="1588" on="1"/>
        <pt x="842" y="226" on="1"/>
      </contour>
      <contour>
        <pt x="284" y="368" on="1"/>
        <pt x="700" y="368" on="1"/>
        <pt x="700" y="1447" on="1"/>
        <pt x="284" y="1447" on="1"/>
      </contour>
    </TTGlyph>
    <TTGlyph name="afii57458" xMin="142" yMin="226" xMax="842" yMax="1588">
      <contour>
        <pt x="142" y="226" on="1"/>
        <pt x="142" y="1588" on="1"/>
        <pt x="842" y="1588" on="1"/>
        <pt x="842" y="226" on="1"/>
      </contour>
      <contour>
        <pt x="284" y="368" on="1"/>
        <pt x="700" y="368" on="1"/>
        <pt x="700" y="1447" on="1"/>
        <pt x="284" y="1447" on="1"/>
      </contour>
    </TTGlyph>
    <TTGlyph name="afii57505" xMin="142" yMin="226" xMax="842" yMax="1588">
      <contour>
        <pt x="142" y="226" on="1"/>
        <pt x="142" y="1588" on="1"/>
        <pt x="842" y="1588" on="1"/>
        <pt x="842" y="226" on="1"/>
      </contour>
      <contour>
        <pt x="284" y="368" on="1"/>
        <pt x="700" y="368" on="1"/>
        <pt x="700" y="1447" on="1"/>
        <pt x="284" y="1447" on="1"/>
      </contour>
    </TTGlyph>
    <TTGlyph name="afii57506" xMin="142" yMin="226" xMax="842" yMax="1588">
      <contour>
        <pt x="142" y="226" on="1"/>
        <pt x="142" y="1588" on="1"/>
        <pt x="842" y="1588" on="1"/>
        <pt x="842" y="226" on="1"/>
      </contour>
      <contour>
        <pt x="284" y="368" on="1"/>
        <pt x="700" y="368" on="1"/>
        <pt x="700" y="1447" on="1"/>
        <pt x="284" y="1447" on="1"/>
      </contour>
    </TTGlyph>
    <TTGlyph name="afii57507" xMin="142" yMin="226" xMax="842" yMax="1588">
      <contour>
        <pt x="142" y="226" on="1"/>
        <pt x="142" y="1588" on="1"/>
        <pt x="842" y="1588" on="1"/>
        <pt x="842" y="226" on="1"/>
      </contour>
      <contour>
        <pt x="284" y="368" on="1"/>
        <pt x="700" y="368" on="1"/>
        <pt x="700" y="1447" on="1"/>
        <pt x="284" y="1447" on="1"/>
      </contour>
    </TTGlyph>
    <TTGlyph name="afii57508" xMin="142" yMin="226" xMax="842" yMax="1588">
      <contour>
        <pt x="142" y="226" on="1"/>
        <pt x="142" y="1588" on="1"/>
        <pt x="842" y="1588" on="1"/>
        <pt x="842" y="226" on="1"/>
      </contour>
      <contour>
        <pt x="284" y="368" on="1"/>
        <pt x="700" y="368" on="1"/>
        <pt x="700" y="1447" on="1"/>
        <pt x="284" y="1447" on="1"/>
      </contour>
    </TTGlyph>
    <TTGlyph name="afii57509" xMin="142" yMin="226" xMax="842" yMax="1588">
      <contour>
        <pt x="142" y="226" on="1"/>
        <pt x="142" y="1588" on="1"/>
        <pt x="842" y="1588" on="1"/>
        <pt x="842" y="226" on="1"/>
      </contour>
      <contour>
        <pt x="284" y="368" on="1"/>
        <pt x="700" y="368" on="1"/>
        <pt x="700" y="1447" on="1"/>
        <pt x="284" y="1447" on="1"/>
      </contour>
    </TTGlyph>
    <TTGlyph name="afii57511" xMin="142" yMin="226" xMax="842" yMax="1588">
      <contour>
        <pt x="142" y="226" on="1"/>
        <pt x="142" y="1588" on="1"/>
        <pt x="842" y="1588" on="1"/>
        <pt x="842" y="226" on="1"/>
      </contour>
      <contour>
        <pt x="284" y="368" on="1"/>
        <pt x="700" y="368" on="1"/>
        <pt x="700" y="1447" on="1"/>
        <pt x="284" y="1447" on="1"/>
      </contour>
    </TTGlyph>
    <TTGlyph name="afii57512" xMin="142" yMin="226" xMax="842" yMax="1588">
      <contour>
        <pt x="142" y="226" on="1"/>
        <pt x="142" y="1588" on="1"/>
        <pt x="842" y="1588" on="1"/>
        <pt x="842" y="226" on="1"/>
      </contour>
      <contour>
        <pt x="284" y="368" on="1"/>
        <pt x="700" y="368" on="1"/>
        <pt x="700" y="1447" on="1"/>
        <pt x="284" y="1447" on="1"/>
      </contour>
    </TTGlyph>
    <TTGlyph name="afii57513" xMin="142" yMin="226" xMax="842" yMax="1588">
      <contour>
        <pt x="142" y="226" on="1"/>
        <pt x="142" y="1588" on="1"/>
        <pt x="842" y="1588" on="1"/>
        <pt x="842" y="226" on="1"/>
      </contour>
      <contour>
        <pt x="284" y="368" on="1"/>
        <pt x="700" y="368" on="1"/>
        <pt x="700" y="1447" on="1"/>
        <pt x="284" y="1447" on="1"/>
      </contour>
    </TTGlyph>
    <TTGlyph name="afii57514" xMin="142" yMin="226" xMax="842" yMax="1588">
      <contour>
        <pt x="142" y="226" on="1"/>
        <pt x="142" y="1588" on="1"/>
        <pt x="842" y="1588" on="1"/>
        <pt x="842" y="226" on="1"/>
      </contour>
      <contour>
        <pt x="284" y="368" on="1"/>
        <pt x="700" y="368" on="1"/>
        <pt x="700" y="1447" on="1"/>
        <pt x="284" y="1447" on="1"/>
      </contour>
    </TTGlyph>
    <TTGlyph name="afii57519" xMin="142" yMin="226" xMax="842" yMax="1588">
      <contour>
        <pt x="142" y="226" on="1"/>
        <pt x="142" y="1588" on="1"/>
        <pt x="842" y="1588" on="1"/>
        <pt x="842" y="226" on="1"/>
      </contour>
      <contour>
        <pt x="284" y="368" on="1"/>
        <pt x="700" y="368" on="1"/>
        <pt x="700" y="1447" on="1"/>
        <pt x="284" y="1447" on="1"/>
      </contour>
    </TTGlyph>
    <TTGlyph name="afii57534" xMin="142" yMin="226" xMax="842" yMax="1588">
      <contour>
        <pt x="142" y="226" on="1"/>
        <pt x="142" y="1588" on="1"/>
        <pt x="842" y="1588" on="1"/>
        <pt x="842" y="226" on="1"/>
      </contour>
      <contour>
        <pt x="284" y="368" on="1"/>
        <pt x="700" y="368" on="1"/>
        <pt x="700" y="1447" on="1"/>
        <pt x="284" y="1447" on="1"/>
      </contour>
    </TTGlyph>
    <TTGlyph name="afii63167" xMin="142" yMin="226" xMax="842" yMax="1588">
      <contour>
        <pt x="142" y="226" on="1"/>
        <pt x="142" y="1588" on="1"/>
        <pt x="842" y="1588" on="1"/>
        <pt x="842" y="226" on="1"/>
      </contour>
      <contour>
        <pt x="284" y="368" on="1"/>
        <pt x="700" y="368" on="1"/>
        <pt x="700" y="1447" on="1"/>
        <pt x="284" y="1447" on="1"/>
      </contour>
    </TTGlyph>
    <TTGlyph name="alefmaksurainitial" xMin="142" yMin="226" xMax="842" yMax="1588">
      <contour>
        <pt x="142" y="226" on="1"/>
        <pt x="142" y="1588" on="1"/>
        <pt x="842" y="1588" on="1"/>
        <pt x="842" y="226" on="1"/>
      </contour>
      <contour>
        <pt x="284" y="368" on="1"/>
        <pt x="700" y="368" on="1"/>
        <pt x="700" y="1447" on="1"/>
        <pt x="284" y="1447" on="1"/>
      </contour>
    </TTGlyph>
    <TTGlyph name="alefwaslafinalarabic" xMin="142" yMin="226" xMax="842" yMax="1588">
      <contour>
        <pt x="142" y="226" on="1"/>
        <pt x="142" y="1588" on="1"/>
        <pt x="842" y="1588" on="1"/>
        <pt x="842" y="226" on="1"/>
      </contour>
      <contour>
        <pt x="284" y="368" on="1"/>
        <pt x="700" y="368" on="1"/>
        <pt x="700" y="1447" on="1"/>
        <pt x="284" y="1447" on="1"/>
      </contour>
    </TTGlyph>
    <TTGlyph name="ampersand" xMin="142" yMin="226" xMax="842" yMax="1588">
      <contour>
        <pt x="142" y="226" on="1"/>
        <pt x="142" y="1588" on="1"/>
        <pt x="842" y="1588" on="1"/>
        <pt x="842" y="226" on="1"/>
      </contour>
      <contour>
        <pt x="284" y="368" on="1"/>
        <pt x="700" y="368" on="1"/>
        <pt x="700" y="1447" on="1"/>
        <pt x="284" y="1447" on="1"/>
      </contour>
    </TTGlyph>
    <TTGlyph name="asterisk" xMin="142" yMin="226" xMax="842" yMax="1588">
      <contour>
        <pt x="142" y="226" on="1"/>
        <pt x="142" y="1588" on="1"/>
        <pt x="842" y="1588" on="1"/>
        <pt x="842" y="226" on="1"/>
      </contour>
      <contour>
        <pt x="284" y="368" on="1"/>
        <pt x="700" y="368" on="1"/>
        <pt x="700" y="1447" on="1"/>
        <pt x="284" y="1447" on="1"/>
      </contour>
    </TTGlyph>
    <TTGlyph name="behmeemisolatedarabic" xMin="142" yMin="226" xMax="842" yMax="1588">
      <contour>
        <pt x="142" y="226" on="1"/>
        <pt x="142" y="1588" on="1"/>
        <pt x="842" y="1588" on="1"/>
        <pt x="842" y="226" on="1"/>
      </contour>
      <contour>
        <pt x="284" y="368" on="1"/>
        <pt x="700" y="368" on="1"/>
        <pt x="700" y="1447" on="1"/>
        <pt x="284" y="1447" on="1"/>
      </contour>
    </TTGlyph>
    <TTGlyph name="behnoonfinalarabic" xMin="142" yMin="226" xMax="842" yMax="1588">
      <contour>
        <pt x="142" y="226" on="1"/>
        <pt x="142" y="1588" on="1"/>
        <pt x="842" y="1588" on="1"/>
        <pt x="842" y="226" on="1"/>
      </contour>
      <contour>
        <pt x="284" y="368" on="1"/>
        <pt x="700" y="368" on="1"/>
        <pt x="700" y="1447" on="1"/>
        <pt x="284" y="1447" on="1"/>
      </contour>
    </TTGlyph>
    <TTGlyph name="colon" xMin="142" yMin="226" xMax="842" yMax="1588">
      <contour>
        <pt x="142" y="226" on="1"/>
        <pt x="142" y="1588" on="1"/>
        <pt x="842" y="1588" on="1"/>
        <pt x="842" y="226" on="1"/>
      </contour>
      <contour>
        <pt x="284" y="368" on="1"/>
        <pt x="700" y="368" on="1"/>
        <pt x="700" y="1447" on="1"/>
        <pt x="284" y="1447" on="1"/>
      </contour>
    </TTGlyph>
    <TTGlyph name="dagger" xMin="142" yMin="226" xMax="842" yMax="1588">
      <contour>
        <pt x="142" y="226" on="1"/>
        <pt x="142" y="1588" on="1"/>
        <pt x="842" y="1588" on="1"/>
        <pt x="842" y="226" on="1"/>
      </contour>
      <contour>
        <pt x="284" y="368" on="1"/>
        <pt x="700" y="368" on="1"/>
        <pt x="700" y="1447" on="1"/>
        <pt x="284" y="1447" on="1"/>
      </contour>
    </TTGlyph>
    <TTGlyph name="dalringfinal" xMin="142" yMin="226" xMax="842" yMax="1588">
      <contour>
        <pt x="142" y="226" on="1"/>
        <pt x="142" y="1588" on="1"/>
        <pt x="842" y="1588" on="1"/>
        <pt x="842" y="226" on="1"/>
      </contour>
      <contour>
        <pt x="284" y="368" on="1"/>
        <pt x="700" y="368" on="1"/>
        <pt x="700" y="1447" on="1"/>
        <pt x="284" y="1447" on="1"/>
      </contour>
    </TTGlyph>
    <TTGlyph name="ddalfinalarabic" xMin="142" yMin="226" xMax="842" yMax="1588">
      <contour>
        <pt x="142" y="226" on="1"/>
        <pt x="142" y="1588" on="1"/>
        <pt x="842" y="1588" on="1"/>
        <pt x="842" y="226" on="1"/>
      </contour>
      <contour>
        <pt x="284" y="368" on="1"/>
        <pt x="700" y="368" on="1"/>
        <pt x="700" y="1447" on="1"/>
        <pt x="284" y="1447" on="1"/>
      </contour>
    </TTGlyph>
    <TTGlyph name="divide" xMin="142" yMin="226" xMax="842" yMax="1588">
      <contour>
        <pt x="142" y="226" on="1"/>
        <pt x="142" y="1588" on="1"/>
        <pt x="842" y="1588" on="1"/>
        <pt x="842" y="226" on="1"/>
      </contour>
      <contour>
        <pt x="284" y="368" on="1"/>
        <pt x="700" y="368" on="1"/>
        <pt x="700" y="1447" on="1"/>
        <pt x="284" y="1447" on="1"/>
      </contour>
    </TTGlyph>
    <TTGlyph name="dollar" xMin="142" yMin="226" xMax="842" yMax="1588">
      <contour>
        <pt x="142" y="226" on="1"/>
        <pt x="142" y="1588" on="1"/>
        <pt x="842" y="1588" on="1"/>
        <pt x="842" y="226" on="1"/>
      </contour>
      <contour>
        <pt x="284" y="368" on="1"/>
        <pt x="700" y="368" on="1"/>
        <pt x="700" y="1447" on="1"/>
        <pt x="284" y="1447" on="1"/>
      </contour>
    </TTGlyph>
    <TTGlyph name="dotlessyehfinalarabic" xMin="142" yMin="226" xMax="842" yMax="1588">
      <contour>
        <pt x="142" y="226" on="1"/>
        <pt x="142" y="1588" on="1"/>
        <pt x="842" y="1588" on="1"/>
        <pt x="842" y="226" on="1"/>
      </contour>
      <contour>
        <pt x="284" y="368" on="1"/>
        <pt x="700" y="368" on="1"/>
        <pt x="700" y="1447" on="1"/>
        <pt x="284" y="1447" on="1"/>
      </contour>
    </TTGlyph>
    <TTGlyph name="dotlessyehinitialarabic" xMin="142" yMin="226" xMax="842" yMax="1588">
      <contour>
        <pt x="142" y="226" on="1"/>
        <pt x="142" y="1588" on="1"/>
        <pt x="842" y="1588" on="1"/>
        <pt x="842" y="226" on="1"/>
      </contour>
      <contour>
        <pt x="284" y="368" on="1"/>
        <pt x="700" y="368" on="1"/>
        <pt x="700" y="1447" on="1"/>
        <pt x="284" y="1447" on="1"/>
      </contour>
    </TTGlyph>
    <TTGlyph name="dotlessyehmedialarabic" xMin="142" yMin="226" xMax="842" yMax="1588">
      <contour>
        <pt x="142" y="226" on="1"/>
        <pt x="142" y="1588" on="1"/>
        <pt x="842" y="1588" on="1"/>
        <pt x="842" y="226" on="1"/>
      </contour>
      <contour>
        <pt x="284" y="368" on="1"/>
        <pt x="700" y="368" on="1"/>
        <pt x="700" y="1447" on="1"/>
        <pt x="284" y="1447" on="1"/>
      </contour>
    </TTGlyph>
    <TTGlyph name="elefmaksuramedial" xMin="142" yMin="226" xMax="842" yMax="1588">
      <contour>
        <pt x="142" y="226" on="1"/>
        <pt x="142" y="1588" on="1"/>
        <pt x="842" y="1588" on="1"/>
        <pt x="842" y="226" on="1"/>
      </contour>
      <contour>
        <pt x="284" y="368" on="1"/>
        <pt x="700" y="368" on="1"/>
        <pt x="700" y="1447" on="1"/>
        <pt x="284" y="1447" on="1"/>
      </contour>
    </TTGlyph>
    <TTGlyph name="ellipsis" xMin="142" yMin="226" xMax="842" yMax="1588">
      <contour>
        <pt x="142" y="226" on="1"/>
        <pt x="142" y="1588" on="1"/>
        <pt x="842" y="1588" on="1"/>
        <pt x="842" y="226" on="1"/>
      </contour>
      <contour>
        <pt x="284" y="368" on="1"/>
        <pt x="700" y="368" on="1"/>
        <pt x="700" y="1447" on="1"/>
        <pt x="284" y="1447" on="1"/>
      </contour>
    </TTGlyph>
    <TTGlyph name="emdash" xMin="144" yMin="-516" xMax="2192" yMax="1541">
      <contour>
        <pt x="1915" y="1505" on="1"/>
        <pt x="1915" y="1463" on="0"/>
        <pt x="1701" y="1365" on="1"/>
        <pt x="1566" y="1303" on="0"/>
        <pt x="1432" y="1242" on="1"/>
        <pt x="1380" y="1218" on="0"/>
        <pt x="1268" y="1163" on="1"/>
        <pt x="1268" y="1167" on="0"/>
        <pt x="1253" y="1179" on="0"/>
        <pt x="1253" y="1194" on="1"/>
        <pt x="1253" y="1256" on="0"/>
        <pt x="1328" y="1292" on="1"/>
        <pt x="1543" y="1393" on="0"/>
        <pt x="1872" y="1541" on="1"/>
        <pt x="1915" y="1541" on="1"/>
      </contour>
      <contour>
        <pt x="2192" y="333" on="1"/>
        <pt x="2184" y="301" on="0"/>
        <pt x="2174" y="270" on="1"/>
        <pt x="2161" y="228" on="0"/>
        <pt x="2137" y="214" on="1"/>
        <pt x="1794" y="20" on="0"/>
        <pt x="1177" y="-27" on="1"/>
        <pt x="1147" y="-63" on="0"/>
        <pt x="1123" y="-148" on="1"/>
        <pt x="1097" y="-247" on="0"/>
        <pt x="1073" y="-290" on="1"/>
        <pt x="1026" y="-371" on="0"/>
        <pt x="924" y="-421" on="1"/>
        <pt x="886" y="-427" on="0"/>
        <pt x="815" y="-448" on="1"/>
        <pt x="643" y="-516" on="0"/>
        <pt x="511" y="-516" on="1"/>
        <pt x="485" y="-516" on="0"/>
        <pt x="408" y="-494" on="1"/>
        <pt x="319" y="-469" on="0"/>
        <pt x="215" y="-412" on="0"/>
        <pt x="178" y="-336" on="1"/>
        <pt x="144" y="-267" on="0"/>
        <pt x="144" y="-203" on="1"/>
        <pt x="144" y="-142" on="0"/>
        <pt x="216" y="-32" on="1"/>
        <pt x="292" y="84" on="0"/>
        <pt x="354" y="86" on="1"/>
        <pt x="344" y="48" on="0"/>
        <pt x="302" y="-40" on="1"/>
        <pt x="264" y="-120" on="0"/>
        <pt x="264" y="-131" on="1"/>
        <pt x="264" y="-243" on="0"/>
        <pt x="368" y="-303" on="1"/>
        <pt x="450" y="-352" on="0"/>
        <pt x="554" y="-352" on="1"/>
        <pt x="830" y="-352" on="0"/>
        <pt x="1037" y="-203" on="1"/>
        <pt x="1041" y="-138" on="0"/>
        <pt x="984" y="51" on="1"/>
        <pt x="979" y="66" on="0"/>
        <pt x="946" y="119" on="1"/>
        <pt x="915" y="166" on="0"/>
        <pt x="915" y="180" on="1"/>
        <pt x="915" y="203" on="0"/>
        <pt x="941" y="270" on="1"/>
        <pt x="955" y="283" on="0"/>
        <pt x="976" y="283" on="1"/>
        <pt x="990" y="283" on="0"/>
        <pt x="1024" y="237" on="1"/>
        <pt x="1064" y="184" on="0"/>
        <pt x="1082" y="171" on="1"/>
        <pt x="1143" y="129" on="0"/>
        <pt x="1282" y="129" on="1"/>
        <pt x="1368" y="129" on="0"/>
        <pt x="1425" y="138" on="1"/>
        <pt x="1439" y="151" on="0"/>
        <pt x="1429" y="174" on="1"/>
        <pt x="1428" y="179" on="0"/>
        <pt x="1410" y="205" on="1"/>
        <pt x="1395" y="229" on="0"/>
        <pt x="1395" y="245" on="1"/>
        <pt x="1395" y="252" on="0"/>
        <pt x="1398" y="258" on="1"/>
        <pt x="1438" y="369" on="0"/>
        <pt x="1463" y="420" on="1"/>
        <pt x="1533" y="558" on="0"/>
        <pt x="1618" y="605" on="1"/>
        <pt x="1696" y="651" on="0"/>
        <pt x="1778" y="651" on="1"/>
        <pt x="1898" y="651" on="0"/>
        <pt x="2048" y="513" on="1"/>
        <pt x="2043" y="508" on="0"/>
        <pt x="2025" y="483" on="0"/>
        <pt x="2019" y="477" on="1"/>
        <pt x="1885" y="528" on="0"/>
        <pt x="1819" y="528" on="1"/>
        <pt x="1738" y="528" on="0"/>
        <pt x="1640" y="480" on="1"/>
        <pt x="1529" y="426" on="0"/>
        <pt x="1529" y="365" on="1"/>
        <pt x="1529" y="319" on="0"/>
        <pt x="1602" y="247" on="1"/>
        <pt x="1671" y="180" on="0"/>
        <pt x="1705" y="180" on="1"/>
        <pt x="1827" y="180" on="0"/>
        <pt x="2148" y="333" on="1"/>
      </contour>
      <contour>
        <pt x="638" y="528" on="1"/>
        <pt x="638" y="507" on="0"/>
        <pt x="615" y="469" on="1"/>
        <pt x="587" y="426" on="0"/>
        <pt x="559" y="426" on="1"/>
        <pt x="535" y="426" on="0"/>
        <pt x="487" y="455" on="1"/>
        <pt x="434" y="487" on="0"/>
        <pt x="434" y="513" on="1"/>
        <pt x="434" y="528" on="0"/>
        <pt x="509" y="620" on="1"/>
        <pt x="536" y="615" on="0"/>
        <pt x="638" y="543" on="0"/>
      </contour>
    </TTGlyph>
    <TTGlyph name="endash" xMin="144" yMin="-516" xMax="1168" yMax="1541">
      <contour>
        <pt x="1030" y="1505" on="1"/>
        <pt x="1030" y="1463" on="0"/>
        <pt x="923" y="1365" on="1"/>
        <pt x="855" y="1303" on="0"/>
        <pt x="788" y="1242" on="1"/>
        <pt x="762" y="1218" on="0"/>
        <pt x="706" y="1163" on="1"/>
        <pt x="706" y="1167" on="0"/>
        <pt x="698" y="1179" on="0"/>
        <pt x="698" y="1194" on="1"/>
        <pt x="698" y="1256" on="0"/>
        <pt x="736" y="1292" on="1"/>
        <pt x="844" y="1393" on="0"/>
        <pt x="1008" y="1541" on="1"/>
        <pt x="1030" y="1541" on="1"/>
      </contour>
      <contour>
        <pt x="1168" y="333" on="1"/>
        <pt x="1164" y="301" on="0"/>
        <pt x="1159" y="270" on="1"/>
        <pt x="1153" y="228" on="0"/>
        <pt x="1140" y="214" on="1"/>
        <pt x="969" y="20" on="0"/>
        <pt x="661" y="-27" on="1"/>
        <pt x="645" y="-63" on="0"/>
        <pt x="634" y="-148" on="1"/>
        <pt x="621" y="-247" on="0"/>
        <pt x="608" y="-290" on="1"/>
        <pt x="585" y="-371" on="0"/>
        <pt x="534" y="-421" on="1"/>
        <pt x="515" y="-427" on="0"/>
        <pt x="479" y="-448" on="1"/>
        <pt x="394" y="-516" on="0"/>
        <pt x="328" y="-516" on="1"/>
        <pt x="315" y="-516" on="0"/>
        <pt x="276" y="-494" on="1"/>
        <pt x="232" y="-469" on="0"/>
        <pt x="179" y="-412" on="0"/>
        <pt x="161" y="-336" on="1"/>
        <pt x="144" y="-267" on="0"/>
        <pt x="144" y="-203" on="1"/>
        <pt x="144" y="-142" on="0"/>
        <pt x="180" y="-32" on="1"/>
        <pt x="218" y="84" on="0"/>
        <pt x="249" y="86" on="1"/>
        <pt x="244" y="48" on="0"/>
        <pt x="223" y="-40" on="1"/>
        <pt x="204" y="-120" on="0"/>
        <pt x="204" y="-131" on="1"/>
        <pt x="204" y="-243" on="0"/>
        <pt x="256" y="-303" on="1"/>
        <pt x="297" y="-352" on="0"/>
        <pt x="349" y="-352" on="1"/>
        <pt x="487" y="-352" on="0"/>
        <pt x="591" y="-203" on="1"/>
        <pt x="592" y="-138" on="0"/>
        <pt x="564" y="51" on="1"/>
        <pt x="561" y="66" on="0"/>
        <pt x="545" y="119" on="1"/>
        <pt x="529" y="166" on="0"/>
        <pt x="529" y="180" on="1"/>
        <pt x="529" y="203" on="0"/>
        <pt x="542" y="270" on="1"/>
        <pt x="549" y="283" on="0"/>
        <pt x="560" y="283" on="1"/>
        <pt x="567" y="283" on="0"/>
        <pt x="584" y="237" on="1"/>
        <pt x="604" y="184" on="0"/>
        <pt x="613" y="171" on="1"/>
        <pt x="644" y="129" on="0"/>
        <pt x="713" y="129" on="1"/>
        <pt x="756" y="129" on="0"/>
        <pt x="784" y="138" on="1"/>
        <pt x="791" y="151" on="0"/>
        <pt x="787" y="174" on="1"/>
        <pt x="786" y="179" on="0"/>
        <pt x="777" y="205" on="1"/>
        <pt x="770" y="229" on="0"/>
        <pt x="770" y="245" on="1"/>
        <pt x="770" y="252" on="0"/>
        <pt x="771" y="258" on="1"/>
        <pt x="791" y="369" on="0"/>
        <pt x="804" y="420" on="1"/>
        <pt x="838" y="558" on="0"/>
        <pt x="881" y="605" on="1"/>
        <pt x="920" y="651" on="0"/>
        <pt x="961" y="651" on="1"/>
        <pt x="1021" y="651" on="0"/>
        <pt x="1096" y="513" on="1"/>
        <pt x="1093" y="508" on="0"/>
        <pt x="1084" y="483" on="0"/>
        <pt x="1081" y="477" on="1"/>
        <pt x="1014" y="528" on="0"/>
        <pt x="981" y="528" on="1"/>
        <pt x="941" y="528" on="0"/>
        <pt x="892" y="480" on="1"/>
        <pt x="837" y="426" on="0"/>
        <pt x="837" y="365" on="1"/>
        <pt x="837" y="319" on="0"/>
        <pt x="873" y="247" on="1"/>
        <pt x="907" y="180" on="0"/>
        <pt x="924" y="180" on="1"/>
        <pt x="986" y="180" on="0"/>
        <pt x="1146" y="333" on="1"/>
      </contour>
      <contour>
        <pt x="391" y="528" on="1"/>
        <pt x="391" y="507" on="0"/>
        <pt x="379" y="469" on="1"/>
        <pt x="365" y="426" on="0"/>
        <pt x="352" y="426" on="1"/>
        <pt x="339" y="426" on="0"/>
        <pt x="315" y="455" on="1"/>
        <pt x="289" y="487" on="0"/>
        <pt x="289" y="513" on="1"/>
        <pt x="289" y="528" on="0"/>
        <pt x="326" y="620" on="1"/>
        <pt x="340" y="615" on="0"/>
        <pt x="391" y="543" on="0"/>
      </contour>
    </TTGlyph>
    <TTGlyph name="equal" xMin="142" yMin="226" xMax="842" yMax="1588">
      <contour>
        <pt x="142" y="226" on="1"/>
        <pt x="142" y="1588" on="1"/>
        <pt x="842" y="1588" on="1"/>
        <pt x="842" y="226" on="1"/>
      </contour>
      <contour>
        <pt x="284" y="368" on="1"/>
        <pt x="700" y="368" on="1"/>
        <pt x="700" y="1447" on="1"/>
        <pt x="284" y="1447" on="1"/>
      </contour>
    </TTGlyph>
    <TTGlyph name="exclam" xMin="142" yMin="226" xMax="842" yMax="1588">
      <contour>
        <pt x="142" y="226" on="1"/>
        <pt x="142" y="1588" on="1"/>
        <pt x="842" y="1588" on="1"/>
        <pt x="842" y="226" on="1"/>
      </contour>
      <contour>
        <pt x="284" y="368" on="1"/>
        <pt x="700" y="368" on="1"/>
        <pt x="700" y="1447" on="1"/>
        <pt x="284" y="1447" on="1"/>
      </contour>
    </TTGlyph>
    <TTGlyph name="figuredash" xMin="144" yMin="-516" xMax="1884" yMax="1541">
      <contour>
        <pt x="1649" y="1505" on="1"/>
        <pt x="1649" y="1463" on="0"/>
        <pt x="1467" y="1365" on="1"/>
        <pt x="1352" y="1303" on="0"/>
        <pt x="1238" y="1242" on="1"/>
        <pt x="1194" y="1218" on="0"/>
        <pt x="1099" y="1163" on="1"/>
        <pt x="1099" y="1167" on="0"/>
        <pt x="1086" y="1179" on="0"/>
        <pt x="1086" y="1194" on="1"/>
        <pt x="1086" y="1256" on="0"/>
        <pt x="1150" y="1292" on="1"/>
        <pt x="1333" y="1393" on="0"/>
        <pt x="1612" y="1541" on="1"/>
        <pt x="1649" y="1541" on="1"/>
      </contour>
      <contour>
        <pt x="1884" y="333" on="1"/>
        <pt x="1877" y="301" on="0"/>
        <pt x="1869" y="270" on="1"/>
        <pt x="1858" y="228" on="0"/>
        <pt x="1837" y="214" on="1"/>
        <pt x="1546" y="20" on="0"/>
        <pt x="1022" y="-27" on="1"/>
        <pt x="996" y="-63" on="0"/>
        <pt x="976" y="-148" on="1"/>
        <pt x="954" y="-247" on="0"/>
        <pt x="933" y="-290" on="1"/>
        <pt x="893" y="-371" on="0"/>
        <pt x="807" y="-421" on="1"/>
        <pt x="774" y="-427" on="0"/>
        <pt x="714" y="-448" on="1"/>
        <pt x="568" y="-516" on="0"/>
        <pt x="456" y="-516" on="1"/>
        <pt x="434" y="-516" on="0"/>
        <pt x="368" y="-494" on="1"/>
        <pt x="293" y="-469" on="0"/>
        <pt x="204" y="-412" on="0"/>
        <pt x="173" y="-336" on="1"/>
        <pt x="144" y="-267" on="0"/>
        <pt x="144" y="-203" on="1"/>
        <pt x="144" y="-142" on="0"/>
        <pt x="205" y="-32" on="1"/>
        <pt x="270" y="84" on="0"/>
        <pt x="322" y="86" on="1"/>
        <pt x="314" y="48" on="0"/>
        <pt x="278" y="-40" on="1"/>
        <pt x="246" y="-120" on="0"/>
        <pt x="246" y="-131" on="1"/>
        <pt x="246" y="-243" on="0"/>
        <pt x="334" y="-303" on="1"/>
        <pt x="404" y="-352" on="0"/>
        <pt x="492" y="-352" on="1"/>
        <pt x="727" y="-352" on="0"/>
        <pt x="903" y="-203" on="1"/>
        <pt x="906" y="-138" on="0"/>
        <pt x="858" y="51" on="1"/>
        <pt x="853" y="66" on="0"/>
        <pt x="825" y="119" on="1"/>
        <pt x="799" y="166" on="0"/>
        <pt x="799" y="180" on="1"/>
        <pt x="799" y="203" on="0"/>
        <pt x="821" y="270" on="1"/>
        <pt x="833" y="283" on="0"/>
        <pt x="851" y="283" on="1"/>
        <pt x="863" y="283" on="0"/>
        <pt x="892" y="237" on="1"/>
        <pt x="926" y="184" on="0"/>
        <pt x="941" y="171" on="1"/>
        <pt x="993" y="129" on="0"/>
        <pt x="1111" y="129" on="1"/>
        <pt x="1184" y="129" on="0"/>
        <pt x="1232" y="138" on="1"/>
        <pt x="1244" y="151" on="0"/>
        <pt x="1236" y="174" on="1"/>
        <pt x="1235" y="179" on="0"/>
        <pt x="1220" y="205" on="1"/>
        <pt x="1207" y="229" on="0"/>
        <pt x="1207" y="245" on="1"/>
        <pt x="1207" y="252" on="0"/>
        <pt x="1209" y="258" on="1"/>
        <pt x="1243" y="369" on="0"/>
        <pt x="1265" y="420" on="1"/>
        <pt x="1324" y="558" on="0"/>
        <pt x="1396" y="605" on="1"/>
        <pt x="1463" y="651" on="0"/>
        <pt x="1532" y="651" on="1"/>
        <pt x="1634" y="651" on="0"/>
        <pt x="1762" y="513" on="1"/>
        <pt x="1757" y="508" on="0"/>
        <pt x="1742" y="483" on="0"/>
        <pt x="1737" y="477" on="1"/>
        <pt x="1623" y="528" on="0"/>
        <pt x="1567" y="528" on="1"/>
        <pt x="1498" y="528" on="0"/>
        <pt x="1415" y="480" on="1"/>
        <pt x="1321" y="426" on="0"/>
        <pt x="1321" y="365" on="1"/>
        <pt x="1321" y="319" on="0"/>
        <pt x="1383" y="247" on="1"/>
        <pt x="1441" y="180" on="0"/>
        <pt x="1470" y="180" on="1"/>
        <pt x="1574" y="180" on="0"/>
        <pt x="1847" y="333" on="1"/>
      </contour>
      <contour>
        <pt x="564" y="528" on="1"/>
        <pt x="564" y="507" on="0"/>
        <pt x="544" y="469" on="1"/>
        <pt x="520" y="426" on="0"/>
        <pt x="497" y="426" on="1"/>
        <pt x="476" y="426" on="0"/>
        <pt x="435" y="455" on="1"/>
        <pt x="390" y="487" on="0"/>
        <pt x="390" y="513" on="1"/>
        <pt x="390" y="528" on="0"/>
        <pt x="454" y="620" on="1"/>
        <pt x="477" y="615" on="0"/>
        <pt x="564" y="543" on="0"/>
      </contour>
    </TTGlyph>
    <TTGlyph name="gaffinalarabic" xMin="142" yMin="226" xMax="842" yMax="1588">
      <contour>
        <pt x="142" y="226" on="1"/>
        <pt x="142" y="1588" on="1"/>
        <pt x="842" y="1588" on="1"/>
        <pt x="842" y="226" on="1"/>
      </contour>
      <contour>
        <pt x="284" y="368" on="1"/>
        <pt x="700" y="368" on="1"/>
        <pt x="700" y="1447" on="1"/>
        <pt x="284" y="1447" on="1"/>
      </contour>
    </TTGlyph>
    <TTGlyph name="gafinitialarabic" xMin="142" yMin="226" xMax="842" yMax="1588">
      <contour>
        <pt x="142" y="226" on="1"/>
        <pt x="142" y="1588" on="1"/>
        <pt x="842" y="1588" on="1"/>
        <pt x="842" y="226" on="1"/>
      </contour>
      <contour>
        <pt x="284" y="368" on="1"/>
        <pt x="700" y="368" on="1"/>
        <pt x="700" y="1447" on="1"/>
        <pt x="284" y="1447" on="1"/>
      </contour>
    </TTGlyph>
    <TTGlyph name="gafmedialarabic" xMin="142" yMin="226" xMax="842" yMax="1588">
      <contour>
        <pt x="142" y="226" on="1"/>
        <pt x="142" y="1588" on="1"/>
        <pt x="842" y="1588" on="1"/>
        <pt x="842" y="226" on="1"/>
      </contour>
      <contour>
        <pt x="284" y="368" on="1"/>
        <pt x="700" y="368" on="1"/>
        <pt x="700" y="1447" on="1"/>
        <pt x="284" y="1447" on="1"/>
      </contour>
    </TTGlyph>
    <TTGlyph name="glyph41" xMin="142" yMin="226" xMax="842" yMax="1588">
      <contour>
        <pt x="142" y="226" on="1"/>
        <pt x="142" y="1588" on="1"/>
        <pt x="842" y="1588" on="1"/>
        <pt x="842" y="226" on="1"/>
      </contour>
      <contour>
        <pt x="284" y="368" on="1"/>
        <pt x="700" y="368" on="1"/>
        <pt x="700" y="1447" on="1"/>
        <pt x="284" y="1447" on="1"/>
      </contour>
    </TTGlyph>
    <TTGlyph name="glyph42" xMin="142" yMin="226" xMax="842" yMax="1588">
      <contour>
        <pt x="142" y="226" on="1"/>
        <pt x="142" y="1588" on="1"/>
        <pt x="842" y="1588" on="1"/>
        <pt x="842" y="226" on="1"/>
      </contour>
      <contour>
        <pt x="284" y="368" on="1"/>
        <pt x="700" y="368" on="1"/>
        <pt x="700" y="1447" on="1"/>
        <pt x="284" y="1447" on="1"/>
      </contour>
    </TTGlyph>
    <TTGlyph name="glyph43" xMin="142" yMin="226" xMax="842" yMax="1588">
      <contour>
        <pt x="142" y="226" on="1"/>
        <pt x="142" y="1588" on="1"/>
        <pt x="842" y="1588" on="1"/>
        <pt x="842" y="226" on="1"/>
      </contour>
      <contour>
        <pt x="284" y="368" on="1"/>
        <pt x="700" y="368" on="1"/>
        <pt x="700" y="1447" on="1"/>
        <pt x="284" y="1447" on="1"/>
      </contour>
    </TTGlyph>
    <TTGlyph name="glyph44" xMin="142" yMin="226" xMax="842" yMax="1588">
      <contour>
        <pt x="142" y="226" on="1"/>
        <pt x="142" y="1588" on="1"/>
        <pt x="842" y="1588" on="1"/>
        <pt x="842" y="226" on="1"/>
      </contour>
      <contour>
        <pt x="284" y="368" on="1"/>
        <pt x="700" y="368" on="1"/>
        <pt x="700" y="1447" on="1"/>
        <pt x="284" y="1447" on="1"/>
      </contour>
    </TTGlyph>
    <TTGlyph name="glyph45" xMin="142" yMin="226" xMax="842" yMax="1588">
      <contour>
        <pt x="142" y="226" on="1"/>
        <pt x="142" y="1588" on="1"/>
        <pt x="842" y="1588" on="1"/>
        <pt x="842" y="226" on="1"/>
      </contour>
      <contour>
        <pt x="284" y="368" on="1"/>
        <pt x="700" y="368" on="1"/>
        <pt x="700" y="1447" on="1"/>
        <pt x="284" y="1447" on="1"/>
      </contour>
    </TTGlyph>
    <TTGlyph name="glyph46" xMin="142" yMin="226" xMax="842" yMax="1588">
      <contour>
        <pt x="142" y="226" on="1"/>
        <pt x="142" y="1588" on="1"/>
        <pt x="842" y="1588" on="1"/>
        <pt x="842" y="226" on="1"/>
      </contour>
      <contour>
        <pt x="284" y="368" on="1"/>
        <pt x="700" y="368" on="1"/>
        <pt x="700" y="1447" on="1"/>
        <pt x="284" y="1447" on="1"/>
      </contour>
    </TTGlyph>
    <TTGlyph name="glyph47" xMin="142" yMin="226" xMax="842" yMax="1588">
      <contour>
        <pt x="142" y="226" on="1"/>
        <pt x="142" y="1588" on="1"/>
        <pt x="842" y="1588" on="1"/>
        <pt x="842" y="226" on="1"/>
      </contour>
      <contour>
        <pt x="284" y="368" on="1"/>
        <pt x="700" y="368" on="1"/>
        <pt x="700" y="1447" on="1"/>
        <pt x="284" y="1447" on="1"/>
      </contour>
    </TTGlyph>
    <TTGlyph name="glyph48" xMin="142" yMin="226" xMax="842" yMax="1588">
      <contour>
        <pt x="142" y="226" on="1"/>
        <pt x="142" y="1588" on="1"/>
        <pt x="842" y="1588" on="1"/>
        <pt x="842" y="226" on="1"/>
      </contour>
      <contour>
        <pt x="284" y="368" on="1"/>
        <pt x="700" y="368" on="1"/>
        <pt x="700" y="1447" on="1"/>
        <pt x="284" y="1447" on="1"/>
      </contour>
    </TTGlyph>
    <TTGlyph name="glyph50" xMin="142" yMin="226" xMax="842" yMax="1588">
      <contour>
        <pt x="142" y="226" on="1"/>
        <pt x="142" y="1588" on="1"/>
        <pt x="842" y="1588" on="1"/>
        <pt x="842" y="226" on="1"/>
      </contour>
      <contour>
        <pt x="284" y="368" on="1"/>
        <pt x="700" y="368" on="1"/>
        <pt x="700" y="1447" on="1"/>
        <pt x="284" y="1447" on="1"/>
      </contour>
    </TTGlyph>
    <TTGlyph name="glyph51" xMin="142" yMin="226" xMax="842" yMax="1588">
      <contour>
        <pt x="142" y="226" on="1"/>
        <pt x="142" y="1588" on="1"/>
        <pt x="842" y="1588" on="1"/>
        <pt x="842" y="226" on="1"/>
      </contour>
      <contour>
        <pt x="284" y="368" on="1"/>
        <pt x="700" y="368" on="1"/>
        <pt x="700" y="1447" on="1"/>
        <pt x="284" y="1447" on="1"/>
      </contour>
    </TTGlyph>
    <TTGlyph name="greater" xMin="142" yMin="226" xMax="842" yMax="1588">
      <contour>
        <pt x="142" y="226" on="1"/>
        <pt x="142" y="1588" on="1"/>
        <pt x="842" y="1588" on="1"/>
        <pt x="842" y="226" on="1"/>
      </contour>
      <contour>
        <pt x="284" y="368" on="1"/>
        <pt x="700" y="368" on="1"/>
        <pt x="700" y="1447" on="1"/>
        <pt x="284" y="1447" on="1"/>
      </contour>
    </TTGlyph>
    <TTGlyph name="hahhamzabovefinal" xMin="142" yMin="226" xMax="842" yMax="1588">
      <contour>
        <pt x="142" y="226" on="1"/>
        <pt x="142" y="1588" on="1"/>
        <pt x="842" y="1588" on="1"/>
        <pt x="842" y="226" on="1"/>
      </contour>
      <contour>
        <pt x="284" y="368" on="1"/>
        <pt x="700" y="368" on="1"/>
        <pt x="700" y="1447" on="1"/>
        <pt x="284" y="1447" on="1"/>
      </contour>
    </TTGlyph>
    <TTGlyph name="hahhamzaboveinitial" xMin="142" yMin="226" xMax="842" yMax="1588">
      <contour>
        <pt x="142" y="226" on="1"/>
        <pt x="142" y="1588" on="1"/>
        <pt x="842" y="1588" on="1"/>
        <pt x="842" y="226" on="1"/>
      </contour>
      <contour>
        <pt x="284" y="368" on="1"/>
        <pt x="700" y="368" on="1"/>
        <pt x="700" y="1447" on="1"/>
        <pt x="284" y="1447" on="1"/>
      </contour>
    </TTGlyph>
    <TTGlyph name="hahhamzabovemedial" xMin="142" yMin="226" xMax="842" yMax="1588">
      <contour>
        <pt x="142" y="226" on="1"/>
        <pt x="142" y="1588" on="1"/>
        <pt x="842" y="1588" on="1"/>
        <pt x="842" y="226" on="1"/>
      </contour>
      <contour>
        <pt x="284" y="368" on="1"/>
        <pt x="700" y="368" on="1"/>
        <pt x="700" y="1447" on="1"/>
        <pt x="284" y="1447" on="1"/>
      </contour>
    </TTGlyph>
    <TTGlyph name="hahthreedotsabovefinal" xMin="142" yMin="226" xMax="842" yMax="1588">
      <contour>
        <pt x="142" y="226" on="1"/>
        <pt x="142" y="1588" on="1"/>
        <pt x="842" y="1588" on="1"/>
        <pt x="842" y="226" on="1"/>
      </contour>
      <contour>
        <pt x="284" y="368" on="1"/>
        <pt x="700" y="368" on="1"/>
        <pt x="700" y="1447" on="1"/>
        <pt x="284" y="1447" on="1"/>
      </contour>
    </TTGlyph>
    <TTGlyph name="hahthreedotsaboveinitial" xMin="142" yMin="226" xMax="842" yMax="1588">
      <contour>
        <pt x="142" y="226" on="1"/>
        <pt x="142" y="1588" on="1"/>
        <pt x="842" y="1588" on="1"/>
        <pt x="842" y="226" on="1"/>
      </contour>
      <contour>
        <pt x="284" y="368" on="1"/>
        <pt x="700" y="368" on="1"/>
        <pt x="700" y="1447" on="1"/>
        <pt x="284" y="1447" on="1"/>
      </contour>
    </TTGlyph>
    <TTGlyph name="hahthreedotsabovemedial" xMin="142" yMin="226" xMax="842" yMax="1588">
      <contour>
        <pt x="142" y="226" on="1"/>
        <pt x="142" y="1588" on="1"/>
        <pt x="842" y="1588" on="1"/>
        <pt x="842" y="226" on="1"/>
      </contour>
      <contour>
        <pt x="284" y="368" on="1"/>
        <pt x="700" y="368" on="1"/>
        <pt x="700" y="1447" on="1"/>
        <pt x="284" y="1447" on="1"/>
      </contour>
    </TTGlyph>
    <TTGlyph name="hehdoachashmeefinalarabic" xMin="142" yMin="226" xMax="842" yMax="1588">
      <contour>
        <pt x="142" y="226" on="1"/>
        <pt x="142" y="1588" on="1"/>
        <pt x="842" y="1588" on="1"/>
        <pt x="842" y="226" on="1"/>
      </contour>
      <contour>
        <pt x="284" y="368" on="1"/>
        <pt x="700" y="368" on="1"/>
        <pt x="700" y="1447" on="1"/>
        <pt x="284" y="1447" on="1"/>
      </contour>
    </TTGlyph>
    <TTGlyph name="hehdoachashmeeinitialarabic" xMin="142" yMin="226" xMax="842" yMax="1588">
      <contour>
        <pt x="142" y="226" on="1"/>
        <pt x="142" y="1588" on="1"/>
        <pt x="842" y="1588" on="1"/>
        <pt x="842" y="226" on="1"/>
      </contour>
      <contour>
        <pt x="284" y="368" on="1"/>
        <pt x="700" y="368" on="1"/>
        <pt x="700" y="1447" on="1"/>
        <pt x="284" y="1447" on="1"/>
      </contour>
    </TTGlyph>
    <TTGlyph name="hehdoachashmeemedialarabic" xMin="142" yMin="226" xMax="842" yMax="1588">
      <contour>
        <pt x="142" y="226" on="1"/>
        <pt x="142" y="1588" on="1"/>
        <pt x="842" y="1588" on="1"/>
        <pt x="842" y="226" on="1"/>
      </contour>
      <contour>
        <pt x="284" y="368" on="1"/>
        <pt x="700" y="368" on="1"/>
        <pt x="700" y="1447" on="1"/>
        <pt x="284" y="1447" on="1"/>
      </contour>
    </TTGlyph>
    <TTGlyph name="hehfinalaltonearabic" xMin="142" yMin="226" xMax="842" yMax="1588">
      <contour>
        <pt x="142" y="226" on="1"/>
        <pt x="142" y="1588" on="1"/>
        <pt x="842" y="1588" on="1"/>
        <pt x="842" y="226" on="1"/>
      </contour>
      <contour>
        <pt x="284" y="368" on="1"/>
        <pt x="700" y="368" on="1"/>
        <pt x="700" y="1447" on="1"/>
        <pt x="284" y="1447" on="1"/>
      </contour>
    </TTGlyph>
    <TTGlyph name="hehhamzaabovefinalarabic" xMin="142" yMin="226" xMax="842" yMax="1588">
      <contour>
        <pt x="142" y="226" on="1"/>
        <pt x="142" y="1588" on="1"/>
        <pt x="842" y="1588" on="1"/>
        <pt x="842" y="226" on="1"/>
      </contour>
      <contour>
        <pt x="284" y="368" on="1"/>
        <pt x="700" y="368" on="1"/>
        <pt x="700" y="1447" on="1"/>
        <pt x="284" y="1447" on="1"/>
      </contour>
    </TTGlyph>
    <TTGlyph name="hehinitialaltonearabic" xMin="142" yMin="226" xMax="842" yMax="1588">
      <contour>
        <pt x="142" y="226" on="1"/>
        <pt x="142" y="1588" on="1"/>
        <pt x="842" y="1588" on="1"/>
        <pt x="842" y="226" on="1"/>
      </contour>
      <contour>
        <pt x="284" y="368" on="1"/>
        <pt x="700" y="368" on="1"/>
        <pt x="700" y="1447" on="1"/>
        <pt x="284" y="1447" on="1"/>
      </contour>
    </TTGlyph>
    <TTGlyph name="hehmedialaltonearabic" xMin="142" yMin="226" xMax="842" yMax="1588">
      <contour>
        <pt x="142" y="226" on="1"/>
        <pt x="142" y="1588" on="1"/>
        <pt x="842" y="1588" on="1"/>
        <pt x="842" y="226" on="1"/>
      </contour>
      <contour>
        <pt x="284" y="368" on="1"/>
        <pt x="700" y="368" on="1"/>
        <pt x="700" y="1447" on="1"/>
        <pt x="284" y="1447" on="1"/>
      </contour>
    </TTGlyph>
    <TTGlyph name="hyphen" xMin="144" yMin="-516" xMax="1884" yMax="1541">
      <contour>
        <pt x="1649" y="1505" on="1"/>
        <pt x="1649" y="1463" on="0"/>
        <pt x="1467" y="1365" on="1"/>
        <pt x="1352" y="1303" on="0"/>
        <pt x="1238" y="1242" on="1"/>
        <pt x="1194" y="1218" on="0"/>
        <pt x="1099" y="1163" on="1"/>
        <pt x="1099" y="1167" on="0"/>
        <pt x="1086" y="1179" on="0"/>
        <pt x="1086" y="1194" on="1"/>
        <pt x="1086" y="1256" on="0"/>
        <pt x="1150" y="1292" on="1"/>
        <pt x="1333" y="1393" on="0"/>
        <pt x="1612" y="1541" on="1"/>
        <pt x="1649" y="1541" on="1"/>
      </contour>
      <contour>
        <pt x="1884" y="333" on="1"/>
        <pt x="1877" y="301" on="0"/>
        <pt x="1869" y="270" on="1"/>
        <pt x="1858" y="228" on="0"/>
        <pt x="1837" y="214" on="1"/>
        <pt x="1546" y="20" on="0"/>
        <pt x="1022" y="-27" on="1"/>
        <pt x="996" y="-63" on="0"/>
        <pt x="976" y="-148" on="1"/>
        <pt x="954" y="-247" on="0"/>
        <pt x="933" y="-290" on="1"/>
        <pt x="893" y="-371" on="0"/>
        <pt x="807" y="-421" on="1"/>
        <pt x="774" y="-427" on="0"/>
        <pt x="714" y="-448" on="1"/>
        <pt x="568" y="-516" on="0"/>
        <pt x="456" y="-516" on="1"/>
        <pt x="434" y="-516" on="0"/>
        <pt x="368" y="-494" on="1"/>
        <pt x="293" y="-469" on="0"/>
        <pt x="204" y="-412" on="0"/>
        <pt x="173" y="-336" on="1"/>
        <pt x="144" y="-267" on="0"/>
        <pt x="144" y="-203" on="1"/>
        <pt x="144" y="-142" on="0"/>
        <pt x="205" y="-32" on="1"/>
        <pt x="270" y="84" on="0"/>
        <pt x="322" y="86" on="1"/>
        <pt x="314" y="48" on="0"/>
        <pt x="278" y="-40" on="1"/>
        <pt x="246" y="-120" on="0"/>
        <pt x="246" y="-131" on="1"/>
        <pt x="246" y="-243" on="0"/>
        <pt x="334" y="-303" on="1"/>
        <pt x="404" y="-352" on="0"/>
        <pt x="492" y="-352" on="1"/>
        <pt x="727" y="-352" on="0"/>
        <pt x="903" y="-203" on="1"/>
        <pt x="906" y="-138" on="0"/>
        <pt x="858" y="51" on="1"/>
        <pt x="853" y="66" on="0"/>
        <pt x="825" y="119" on="1"/>
        <pt x="799" y="166" on="0"/>
        <pt x="799" y="180" on="1"/>
        <pt x="799" y="203" on="0"/>
        <pt x="821" y="270" on="1"/>
        <pt x="833" y="283" on="0"/>
        <pt x="851" y="283" on="1"/>
        <pt x="863" y="283" on="0"/>
        <pt x="892" y="237" on="1"/>
        <pt x="926" y="184" on="0"/>
        <pt x="941" y="171" on="1"/>
        <pt x="993" y="129" on="0"/>
        <pt x="1111" y="129" on="1"/>
        <pt x="1184" y="129" on="0"/>
        <pt x="1232" y="138" on="1"/>
        <pt x="1244" y="151" on="0"/>
        <pt x="1236" y="174" on="1"/>
        <pt x="1235" y="179" on="0"/>
        <pt x="1220" y="205" on="1"/>
        <pt x="1207" y="229" on="0"/>
        <pt x="1207" y="245" on="1"/>
        <pt x="1207" y="252" on="0"/>
        <pt x="1209" y="258" on="1"/>
        <pt x="1243" y="369" on="0"/>
        <pt x="1265" y="420" on="1"/>
        <pt x="1324" y="558" on="0"/>
        <pt x="1396" y="605" on="1"/>
        <pt x="1463" y="651" on="0"/>
        <pt x="1532" y="651" on="1"/>
        <pt x="1634" y="651" on="0"/>
        <pt x="1762" y="513" on="1"/>
        <pt x="1757" y="508" on="0"/>
        <pt x="1742" y="483" on="0"/>
        <pt x="1737" y="477" on="1"/>
        <pt x="1623" y="528" on="0"/>
        <pt x="1567" y="528" on="1"/>
        <pt x="1498" y="528" on="0"/>
        <pt x="1415" y="480" on="1"/>
        <pt x="1321" y="426" on="0"/>
        <pt x="1321" y="365" on="1"/>
        <pt x="1321" y="319" on="0"/>
        <pt x="1383" y="247" on="1"/>
        <pt x="1441" y="180" on="0"/>
        <pt x="1470" y="180" on="1"/>
        <pt x="1574" y="180" on="0"/>
        <pt x="1847" y="333" on="1"/>
      </contour>
      <contour>
        <pt x="564" y="528" on="1"/>
        <pt x="564" y="507" on="0"/>
        <pt x="544" y="469" on="1"/>
        <pt x="520" y="426" on="0"/>
        <pt x="497" y="426" on="1"/>
        <pt x="476" y="426" on="0"/>
        <pt x="435" y="455" on="1"/>
        <pt x="390" y="487" on="0"/>
        <pt x="390" y="513" on="1"/>
        <pt x="390" y="528" on="0"/>
        <pt x="454" y="620" on="1"/>
        <pt x="477" y="615" on="0"/>
        <pt x="564" y="543" on="0"/>
      </contour>
    </TTGlyph>
    <TTGlyph name="irghizufinal" xMin="142" yMin="226" xMax="842" yMax="1588">
      <contour>
        <pt x="142" y="226" on="1"/>
        <pt x="142" y="1588" on="1"/>
        <pt x="842" y="1588" on="1"/>
        <pt x="842" y="226" on="1"/>
      </contour>
      <contour>
        <pt x="284" y="368" on="1"/>
        <pt x="700" y="368" on="1"/>
        <pt x="700" y="1447" on="1"/>
        <pt x="284" y="1447" on="1"/>
      </contour>
    </TTGlyph>
    <TTGlyph name="jehfinalarabic" xMin="142" yMin="226" xMax="842" yMax="1588">
      <contour>
        <pt x="142" y="226" on="1"/>
        <pt x="142" y="1588" on="1"/>
        <pt x="842" y="1588" on="1"/>
        <pt x="842" y="226" on="1"/>
      </contour>
      <contour>
        <pt x="284" y="368" on="1"/>
        <pt x="700" y="368" on="1"/>
        <pt x="700" y="1447" on="1"/>
        <pt x="284" y="1447" on="1"/>
      </contour>
    </TTGlyph>
    <TTGlyph name="kafringfinal" xMin="142" yMin="226" xMax="842" yMax="1588">
      <contour>
        <pt x="142" y="226" on="1"/>
        <pt x="142" y="1588" on="1"/>
        <pt x="842" y="1588" on="1"/>
        <pt x="842" y="226" on="1"/>
      </contour>
      <contour>
        <pt x="284" y="368" on="1"/>
        <pt x="700" y="368" on="1"/>
        <pt x="700" y="1447" on="1"/>
        <pt x="284" y="1447" on="1"/>
      </contour>
    </TTGlyph>
    <TTGlyph name="kafringinitial" xMin="142" yMin="226" xMax="842" yMax="1588">
      <contour>
        <pt x="142" y="226" on="1"/>
        <pt x="142" y="1588" on="1"/>
        <pt x="842" y="1588" on="1"/>
        <pt x="842" y="226" on="1"/>
      </contour>
      <contour>
        <pt x="284" y="368" on="1"/>
        <pt x="700" y="368" on="1"/>
        <pt x="700" y="1447" on="1"/>
        <pt x="284" y="1447" on="1"/>
      </contour>
    </TTGlyph>
    <TTGlyph name="kafringmedial" xMin="142" yMin="226" xMax="842" yMax="1588">
      <contour>
        <pt x="142" y="226" on="1"/>
        <pt x="142" y="1588" on="1"/>
        <pt x="842" y="1588" on="1"/>
        <pt x="842" y="226" on="1"/>
      </contour>
      <contour>
        <pt x="284" y="368" on="1"/>
        <pt x="700" y="368" on="1"/>
        <pt x="700" y="1447" on="1"/>
        <pt x="284" y="1447" on="1"/>
      </contour>
    </TTGlyph>
    <TTGlyph name="kashidaautoarabic" xMin="142" yMin="226" xMax="842" yMax="1588">
      <contour>
        <pt x="142" y="226" on="1"/>
        <pt x="142" y="1588" on="1"/>
        <pt x="842" y="1588" on="1"/>
        <pt x="842" y="226" on="1"/>
      </contour>
      <contour>
        <pt x="284" y="368" on="1"/>
        <pt x="700" y="368" on="1"/>
        <pt x="700" y="1447" on="1"/>
        <pt x="284" y="1447" on="1"/>
      </contour>
    </TTGlyph>
    <TTGlyph name="kashidaautonosidebearingarabic" xMin="142" yMin="226" xMax="842" yMax="1588">
      <contour>
        <pt x="142" y="226" on="1"/>
        <pt x="142" y="1588" on="1"/>
        <pt x="842" y="1588" on="1"/>
        <pt x="842" y="226" on="1"/>
      </contour>
      <contour>
        <pt x="284" y="368" on="1"/>
        <pt x="700" y="368" on="1"/>
        <pt x="700" y="1447" on="1"/>
        <pt x="284" y="1447" on="1"/>
      </contour>
    </TTGlyph>
    <TTGlyph name="kehehfinalarabic" xMin="142" yMin="226" xMax="842" yMax="1588">
      <contour>
        <pt x="142" y="226" on="1"/>
        <pt x="142" y="1588" on="1"/>
        <pt x="842" y="1588" on="1"/>
        <pt x="842" y="226" on="1"/>
      </contour>
      <contour>
        <pt x="284" y="368" on="1"/>
        <pt x="700" y="368" on="1"/>
        <pt x="700" y="1447" on="1"/>
        <pt x="284" y="1447" on="1"/>
      </contour>
    </TTGlyph>
    <TTGlyph name="kehehinitialarabic" xMin="142" yMin="226" xMax="842" yMax="1588">
      <contour>
        <pt x="142" y="226" on="1"/>
        <pt x="142" y="1588" on="1"/>
        <pt x="842" y="1588" on="1"/>
        <pt x="842" y="226" on="1"/>
      </contour>
      <contour>
        <pt x="284" y="368" on="1"/>
        <pt x="700" y="368" on="1"/>
        <pt x="700" y="1447" on="1"/>
        <pt x="284" y="1447" on="1"/>
      </contour>
    </TTGlyph>
    <TTGlyph name="kehehmedialarabic" xMin="142" yMin="226" xMax="842" yMax="1588">
      <contour>
        <pt x="142" y="226" on="1"/>
        <pt x="142" y="1588" on="1"/>
        <pt x="842" y="1588" on="1"/>
        <pt x="842" y="226" on="1"/>
      </contour>
      <contour>
        <pt x="284" y="368" on="1"/>
        <pt x="700" y="368" on="1"/>
        <pt x="700" y="1447" on="1"/>
        <pt x="284" y="1447" on="1"/>
      </contour>
    </TTGlyph>
    <TTGlyph name="kirghizyifinal" xMin="142" yMin="226" xMax="842" yMax="1588">
      <contour>
        <pt x="142" y="226" on="1"/>
        <pt x="142" y="1588" on="1"/>
        <pt x="842" y="1588" on="1"/>
        <pt x="842" y="226" on="1"/>
      </contour>
      <contour>
        <pt x="284" y="368" on="1"/>
        <pt x="700" y="368" on="1"/>
        <pt x="700" y="1447" on="1"/>
        <pt x="284" y="1447" on="1"/>
      </contour>
    </TTGlyph>
    <TTGlyph name="lammeemjeeminitialarabic" xMin="142" yMin="226" xMax="842" yMax="1588">
      <contour>
        <pt x="142" y="226" on="1"/>
        <pt x="142" y="1588" on="1"/>
        <pt x="842" y="1588" on="1"/>
        <pt x="842" y="226" on="1"/>
      </contour>
      <contour>
        <pt x="284" y="368" on="1"/>
        <pt x="700" y="368" on="1"/>
        <pt x="700" y="1447" on="1"/>
        <pt x="284" y="1447" on="1"/>
      </contour>
    </TTGlyph>
    <TTGlyph name="lammeemkhahinitialarabic" xMin="142" yMin="226" xMax="842" yMax="1588">
      <contour>
        <pt x="142" y="226" on="1"/>
        <pt x="142" y="1588" on="1"/>
        <pt x="842" y="1588" on="1"/>
        <pt x="842" y="226" on="1"/>
      </contour>
      <contour>
        <pt x="284" y="368" on="1"/>
        <pt x="700" y="368" on="1"/>
        <pt x="700" y="1447" on="1"/>
        <pt x="284" y="1447" on="1"/>
      </contour>
    </TTGlyph>
    <TTGlyph name="lamthreedotsabovefinal" xMin="142" yMin="226" xMax="842" yMax="1588">
      <contour>
        <pt x="142" y="226" on="1"/>
        <pt x="142" y="1588" on="1"/>
        <pt x="842" y="1588" on="1"/>
        <pt x="842" y="226" on="1"/>
      </contour>
      <contour>
        <pt x="284" y="368" on="1"/>
        <pt x="700" y="368" on="1"/>
        <pt x="700" y="1447" on="1"/>
        <pt x="284" y="1447" on="1"/>
      </contour>
    </TTGlyph>
    <TTGlyph name="lamthreedotsaboveinitial" xMin="142" yMin="226" xMax="842" yMax="1588">
      <contour>
        <pt x="142" y="226" on="1"/>
        <pt x="142" y="1588" on="1"/>
        <pt x="842" y="1588" on="1"/>
        <pt x="842" y="226" on="1"/>
      </contour>
      <contour>
        <pt x="284" y="368" on="1"/>
        <pt x="700" y="368" on="1"/>
        <pt x="700" y="1447" on="1"/>
        <pt x="284" y="1447" on="1"/>
      </contour>
    </TTGlyph>
    <TTGlyph name="lamthreedotsabovemedial" xMin="142" yMin="226" xMax="842" yMax="1588">
      <contour>
        <pt x="142" y="226" on="1"/>
        <pt x="142" y="1588" on="1"/>
        <pt x="842" y="1588" on="1"/>
        <pt x="842" y="226" on="1"/>
      </contour>
      <contour>
        <pt x="284" y="368" on="1"/>
        <pt x="700" y="368" on="1"/>
        <pt x="700" y="1447" on="1"/>
        <pt x="284" y="1447" on="1"/>
      </contour>
    </TTGlyph>
    <TTGlyph name="less" xMin="142" yMin="226" xMax="842" yMax="1588">
      <contour>
        <pt x="142" y="226" on="1"/>
        <pt x="142" y="1588" on="1"/>
        <pt x="842" y="1588" on="1"/>
        <pt x="842" y="226" on="1"/>
      </contour>
      <contour>
        <pt x="284" y="368" on="1"/>
        <pt x="700" y="368" on="1"/>
        <pt x="700" y="1447" on="1"/>
        <pt x="284" y="1447" on="1"/>
      </contour>
    </TTGlyph>
    <TTGlyph name="meemmeemisolatedarabic" xMin="142" yMin="226" xMax="842" yMax="1588">
      <contour>
        <pt x="142" y="226" on="1"/>
        <pt x="142" y="1588" on="1"/>
        <pt x="842" y="1588" on="1"/>
        <pt x="842" y="226" on="1"/>
      </contour>
      <contour>
        <pt x="284" y="368" on="1"/>
        <pt x="700" y="368" on="1"/>
        <pt x="700" y="1447" on="1"/>
        <pt x="284" y="1447" on="1"/>
      </contour>
    </TTGlyph>
    <TTGlyph name="multiply" xMin="142" yMin="226" xMax="842" yMax="1588">
      <contour>
        <pt x="142" y="226" on="1"/>
        <pt x="142" y="1588" on="1"/>
        <pt x="842" y="1588" on="1"/>
        <pt x="842" y="226" on="1"/>
      </contour>
      <contour>
        <pt x="284" y="368" on="1"/>
        <pt x="700" y="368" on="1"/>
        <pt x="700" y="1447" on="1"/>
        <pt x="284" y="1447" on="1"/>
      </contour>
    </TTGlyph>
    <TTGlyph name="noonghunnafinalarabic" xMin="142" yMin="226" xMax="842" yMax="1588">
      <contour>
        <pt x="142" y="226" on="1"/>
        <pt x="142" y="1588" on="1"/>
        <pt x="842" y="1588" on="1"/>
        <pt x="842" y="226" on="1"/>
      </contour>
      <contour>
        <pt x="284" y="368" on="1"/>
        <pt x="700" y="368" on="1"/>
        <pt x="700" y="1447" on="1"/>
        <pt x="284" y="1447" on="1"/>
      </contour>
    </TTGlyph>
    <TTGlyph name="noonjeemisolatedarabic" xMin="142" yMin="226" xMax="842" yMax="1588">
      <contour>
        <pt x="142" y="226" on="1"/>
        <pt x="142" y="1588" on="1"/>
        <pt x="842" y="1588" on="1"/>
        <pt x="842" y="226" on="1"/>
      </contour>
      <contour>
        <pt x="284" y="368" on="1"/>
        <pt x="700" y="368" on="1"/>
        <pt x="700" y="1447" on="1"/>
        <pt x="284" y="1447" on="1"/>
      </contour>
    </TTGlyph>
    <TTGlyph name="noonmeemisolatedarabic" xMin="142" yMin="226" xMax="842" yMax="1588">
      <contour>
        <pt x="142" y="226" on="1"/>
        <pt x="142" y="1588" on="1"/>
        <pt x="842" y="1588" on="1"/>
        <pt x="842" y="226" on="1"/>
      </contour>
      <contour>
        <pt x="284" y="368" on="1"/>
        <pt x="700" y="368" on="1"/>
        <pt x="700" y="1447" on="1"/>
        <pt x="284" y="1447" on="1"/>
      </contour>
    </TTGlyph>
    <TTGlyph name="noonringfinal" xMin="142" yMin="226" xMax="842" yMax="1588">
      <contour>
        <pt x="142" y="226" on="1"/>
        <pt x="142" y="1588" on="1"/>
        <pt x="842" y="1588" on="1"/>
        <pt x="842" y="226" on="1"/>
      </contour>
      <contour>
        <pt x="284" y="368" on="1"/>
        <pt x="700" y="368" on="1"/>
        <pt x="700" y="1447" on="1"/>
        <pt x="284" y="1447" on="1"/>
      </contour>
    </TTGlyph>
    <TTGlyph name="noonringinitial" xMin="142" yMin="226" xMax="842" yMax="1588">
      <contour>
        <pt x="142" y="226" on="1"/>
        <pt x="142" y="1588" on="1"/>
        <pt x="842" y="1588" on="1"/>
        <pt x="842" y="226" on="1"/>
      </contour>
      <contour>
        <pt x="284" y="368" on="1"/>
        <pt x="700" y="368" on="1"/>
        <pt x="700" y="1447" on="1"/>
        <pt x="284" y="1447" on="1"/>
      </contour>
    </TTGlyph>
    <TTGlyph name="noonringmedial" xMin="142" yMin="226" xMax="842" yMax="1588">
      <contour>
        <pt x="142" y="226" on="1"/>
        <pt x="142" y="1588" on="1"/>
        <pt x="842" y="1588" on="1"/>
        <pt x="842" y="226" on="1"/>
      </contour>
      <contour>
        <pt x="284" y="368" on="1"/>
        <pt x="700" y="368" on="1"/>
        <pt x="700" y="1447" on="1"/>
        <pt x="284" y="1447" on="1"/>
      </contour>
    </TTGlyph>
    <TTGlyph name="numbersign" xMin="142" yMin="226" xMax="842" yMax="1588">
      <contour>
        <pt x="142" y="226" on="1"/>
        <pt x="142" y="1588" on="1"/>
        <pt x="842" y="1588" on="1"/>
        <pt x="842" y="226" on="1"/>
      </contour>
      <contour>
        <pt x="284" y="368" on="1"/>
        <pt x="700" y="368" on="1"/>
        <pt x="700" y="1447" on="1"/>
        <pt x="284" y="1447" on="1"/>
      </contour>
    </TTGlyph>
    <TTGlyph name="parenleft" xMin="142" yMin="226" xMax="842" yMax="1588">
      <contour>
        <pt x="142" y="226" on="1"/>
        <pt x="142" y="1588" on="1"/>
        <pt x="842" y="1588" on="1"/>
        <pt x="842" y="226" on="1"/>
      </contour>
      <contour>
        <pt x="284" y="368" on="1"/>
        <pt x="700" y="368" on="1"/>
        <pt x="700" y="1447" on="1"/>
        <pt x="284" y="1447" on="1"/>
      </contour>
    </TTGlyph>
    <TTGlyph name="parenright" xMin="142" yMin="226" xMax="842" yMax="1588">
      <contour>
        <pt x="142" y="226" on="1"/>
        <pt x="142" y="1588" on="1"/>
        <pt x="842" y="1588" on="1"/>
        <pt x="842" y="226" on="1"/>
      </contour>
      <contour>
        <pt x="284" y="368" on="1"/>
        <pt x="700" y="368" on="1"/>
        <pt x="700" y="1447" on="1"/>
        <pt x="284" y="1447" on="1"/>
      </contour>
    </TTGlyph>
    <TTGlyph name="pashtoefinal" xMin="142" yMin="226" xMax="842" yMax="1588">
      <contour>
        <pt x="142" y="226" on="1"/>
        <pt x="142" y="1588" on="1"/>
        <pt x="842" y="1588" on="1"/>
        <pt x="842" y="226" on="1"/>
      </contour>
      <contour>
        <pt x="284" y="368" on="1"/>
        <pt x="700" y="368" on="1"/>
        <pt x="700" y="1447" on="1"/>
        <pt x="284" y="1447" on="1"/>
      </contour>
    </TTGlyph>
    <TTGlyph name="pashtoeinitial" xMin="142" yMin="226" xMax="842" yMax="1588">
      <contour>
        <pt x="142" y="226" on="1"/>
        <pt x="142" y="1588" on="1"/>
        <pt x="842" y="1588" on="1"/>
        <pt x="842" y="226" on="1"/>
      </contour>
      <contour>
        <pt x="284" y="368" on="1"/>
        <pt x="700" y="368" on="1"/>
        <pt x="700" y="1447" on="1"/>
        <pt x="284" y="1447" on="1"/>
      </contour>
    </TTGlyph>
    <TTGlyph name="pashtoemedial" xMin="142" yMin="226" xMax="842" yMax="1588">
      <contour>
        <pt x="142" y="226" on="1"/>
        <pt x="142" y="1588" on="1"/>
        <pt x="842" y="1588" on="1"/>
        <pt x="842" y="226" on="1"/>
      </contour>
      <contour>
        <pt x="284" y="368" on="1"/>
        <pt x="700" y="368" on="1"/>
        <pt x="700" y="1447" on="1"/>
        <pt x="284" y="1447" on="1"/>
      </contour>
    </TTGlyph>
    <TTGlyph name="pehfinalarabic" xMin="142" yMin="226" xMax="842" yMax="1588">
      <contour>
        <pt x="142" y="226" on="1"/>
        <pt x="142" y="1588" on="1"/>
        <pt x="842" y="1588" on="1"/>
        <pt x="842" y="226" on="1"/>
      </contour>
      <contour>
        <pt x="284" y="368" on="1"/>
        <pt x="700" y="368" on="1"/>
        <pt x="700" y="1447" on="1"/>
        <pt x="284" y="1447" on="1"/>
      </contour>
    </TTGlyph>
    <TTGlyph name="pehinitialarabic" xMin="142" yMin="226" xMax="842" yMax="1588">
      <contour>
        <pt x="142" y="226" on="1"/>
        <pt x="142" y="1588" on="1"/>
        <pt x="842" y="1588" on="1"/>
        <pt x="842" y="226" on="1"/>
      </contour>
      <contour>
        <pt x="284" y="368" on="1"/>
        <pt x="700" y="368" on="1"/>
        <pt x="700" y="1447" on="1"/>
        <pt x="284" y="1447" on="1"/>
      </contour>
    </TTGlyph>
    <TTGlyph name="pehmedialarabic" xMin="142" yMin="226" xMax="842" yMax="1588">
      <contour>
        <pt x="142" y="226" on="1"/>
        <pt x="142" y="1588" on="1"/>
        <pt x="842" y="1588" on="1"/>
        <pt x="842" y="226" on="1"/>
      </contour>
      <contour>
        <pt x="284" y="368" on="1"/>
        <pt x="700" y="368" on="1"/>
        <pt x="700" y="1447" on="1"/>
        <pt x="284" y="1447" on="1"/>
      </contour>
    </TTGlyph>
    <TTGlyph name="percent" xMin="142" yMin="226" xMax="842" yMax="1588">
      <contour>
        <pt x="142" y="226" on="1"/>
        <pt x="142" y="1588" on="1"/>
        <pt x="842" y="1588" on="1"/>
        <pt x="842" y="226" on="1"/>
      </contour>
      <contour>
        <pt x="284" y="368" on="1"/>
        <pt x="700" y="368" on="1"/>
        <pt x="700" y="1447" on="1"/>
        <pt x="284" y="1447" on="1"/>
      </contour>
    </TTGlyph>
    <TTGlyph name="period" xMin="142" yMin="226" xMax="842" yMax="1588">
      <contour>
        <pt x="142" y="226" on="1"/>
        <pt x="142" y="1588" on="1"/>
        <pt x="842" y="1588" on="1"/>
        <pt x="842" y="226" on="1"/>
      </contour>
      <contour>
        <pt x="284" y="368" on="1"/>
        <pt x="700" y="368" on="1"/>
        <pt x="700" y="1447" on="1"/>
        <pt x="284" y="1447" on="1"/>
      </contour>
    </TTGlyph>
    <TTGlyph name="plus" xMin="142" yMin="226" xMax="842" yMax="1588">
      <contour>
        <pt x="142" y="226" on="1"/>
        <pt x="142" y="1588" on="1"/>
        <pt x="842" y="1588" on="1"/>
        <pt x="842" y="226" on="1"/>
      </contour>
      <contour>
        <pt x="284" y="368" on="1"/>
        <pt x="700" y="368" on="1"/>
        <pt x="700" y="1447" on="1"/>
        <pt x="284" y="1447" on="1"/>
      </contour>
    </TTGlyph>
    <TTGlyph name="quotedbl" xMin="142" yMin="226" xMax="842" yMax="1588">
      <contour>
        <pt x="142" y="226" on="1"/>
        <pt x="142" y="1588" on="1"/>
        <pt x="842" y="1588" on="1"/>
        <pt x="842" y="226" on="1"/>
      </contour>
      <contour>
        <pt x="284" y="368" on="1"/>
        <pt x="700" y="368" on="1"/>
        <pt x="700" y="1447" on="1"/>
        <pt x="284" y="1447" on="1"/>
      </contour>
    </TTGlyph>
    <TTGlyph name="quotesingle" xMin="142" yMin="226" xMax="842" yMax="1588">
      <contour>
        <pt x="142" y="226" on="1"/>
        <pt x="142" y="1588" on="1"/>
        <pt x="842" y="1588" on="1"/>
        <pt x="842" y="226" on="1"/>
      </contour>
      <contour>
        <pt x="284" y="368" on="1"/>
        <pt x="700" y="368" on="1"/>
        <pt x="700" y="1447" on="1"/>
        <pt x="284" y="1447" on="1"/>
      </contour>
    </TTGlyph>
    <TTGlyph name="rehdotbelowdotabovefinal" xMin="142" yMin="226" xMax="842" yMax="1588">
      <contour>
        <pt x="142" y="226" on="1"/>
        <pt x="142" y="1588" on="1"/>
        <pt x="842" y="1588" on="1"/>
        <pt x="842" y="226" on="1"/>
      </contour>
      <contour>
        <pt x="284" y="368" on="1"/>
        <pt x="700" y="368" on="1"/>
        <pt x="700" y="1447" on="1"/>
        <pt x="284" y="1447" on="1"/>
      </contour>
    </TTGlyph>
    <TTGlyph name="rehringfinal" xMin="142" yMin="226" xMax="842" yMax="1588">
      <contour>
        <pt x="142" y="226" on="1"/>
        <pt x="142" y="1588" on="1"/>
        <pt x="842" y="1588" on="1"/>
        <pt x="842" y="226" on="1"/>
      </contour>
      <contour>
        <pt x="284" y="368" on="1"/>
        <pt x="700" y="368" on="1"/>
        <pt x="700" y="1447" on="1"/>
        <pt x="284" y="1447" on="1"/>
      </contour>
    </TTGlyph>
    <TTGlyph name="rrehfinalarabic" xMin="142" yMin="226" xMax="842" yMax="1588">
      <contour>
        <pt x="142" y="226" on="1"/>
        <pt x="142" y="1588" on="1"/>
        <pt x="842" y="1588" on="1"/>
        <pt x="842" y="226" on="1"/>
      </contour>
      <contour>
        <pt x="284" y="368" on="1"/>
        <pt x="700" y="368" on="1"/>
        <pt x="700" y="1447" on="1"/>
        <pt x="284" y="1447" on="1"/>
      </contour>
    </TTGlyph>
    <TTGlyph name="seendotbelowdotabovefinal" xMin="142" yMin="226" xMax="842" yMax="1588">
      <contour>
        <pt x="142" y="226" on="1"/>
        <pt x="142" y="1588" on="1"/>
        <pt x="842" y="1588" on="1"/>
        <pt x="842" y="226" on="1"/>
      </contour>
      <contour>
        <pt x="284" y="368" on="1"/>
        <pt x="700" y="368" on="1"/>
        <pt x="700" y="1447" on="1"/>
        <pt x="284" y="1447" on="1"/>
      </contour>
    </TTGlyph>
    <TTGlyph name="seendotbelowdotaboveinitial" xMin="142" yMin="226" xMax="842" yMax="1588">
      <contour>
        <pt x="142" y="226" on="1"/>
        <pt x="142" y="1588" on="1"/>
        <pt x="842" y="1588" on="1"/>
        <pt x="842" y="226" on="1"/>
      </contour>
      <contour>
        <pt x="284" y="368" on="1"/>
        <pt x="700" y="368" on="1"/>
        <pt x="700" y="1447" on="1"/>
        <pt x="284" y="1447" on="1"/>
      </contour>
    </TTGlyph>
    <TTGlyph name="seendotbelowdotabovemedial" xMin="142" yMin="226" xMax="842" yMax="1588">
      <contour>
        <pt x="142" y="226" on="1"/>
        <pt x="142" y="1588" on="1"/>
        <pt x="842" y="1588" on="1"/>
        <pt x="842" y="226" on="1"/>
      </contour>
      <contour>
        <pt x="284" y="368" on="1"/>
        <pt x="700" y="368" on="1"/>
        <pt x="700" y="1447" on="1"/>
        <pt x="284" y="1447" on="1"/>
      </contour>
    </TTGlyph>
    <TTGlyph name="shaddadammaarabic" xMin="142" yMin="226" xMax="842" yMax="1588">
      <contour>
        <pt x="142" y="226" on="1"/>
        <pt x="142" y="1588" on="1"/>
        <pt x="842" y="1588" on="1"/>
        <pt x="842" y="226" on="1"/>
      </contour>
      <contour>
        <pt x="284" y="368" on="1"/>
        <pt x="700" y="368" on="1"/>
        <pt x="700" y="1447" on="1"/>
        <pt x="284" y="1447" on="1"/>
      </contour>
    </TTGlyph>
    <TTGlyph name="shaddadammatanarabic" xMin="142" yMin="226" xMax="842" yMax="1588">
      <contour>
        <pt x="142" y="226" on="1"/>
        <pt x="142" y="1588" on="1"/>
        <pt x="842" y="1588" on="1"/>
        <pt x="842" y="226" on="1"/>
      </contour>
      <contour>
        <pt x="284" y="368" on="1"/>
        <pt x="700" y="368" on="1"/>
        <pt x="700" y="1447" on="1"/>
        <pt x="284" y="1447" on="1"/>
      </contour>
    </TTGlyph>
    <TTGlyph name="shaddafathaarabic" xMin="142" yMin="226" xMax="842" yMax="1588">
      <contour>
        <pt x="142" y="226" on="1"/>
        <pt x="142" y="1588" on="1"/>
        <pt x="842" y="1588" on="1"/>
        <pt x="842" y="226" on="1"/>
      </contour>
      <contour>
        <pt x="284" y="368" on="1"/>
        <pt x="700" y="368" on="1"/>
        <pt x="700" y="1447" on="1"/>
        <pt x="284" y="1447" on="1"/>
      </contour>
    </TTGlyph>
    <TTGlyph name="shaddakasraarabic" xMin="142" yMin="226" xMax="842" yMax="1588">
      <contour>
        <pt x="142" y="226" on="1"/>
        <pt x="142" y="1588" on="1"/>
        <pt x="842" y="1588" on="1"/>
        <pt x="842" y="226" on="1"/>
      </contour>
      <contour>
        <pt x="284" y="368" on="1"/>
        <pt x="700" y="368" on="1"/>
        <pt x="700" y="1447" on="1"/>
        <pt x="284" y="1447" on="1"/>
      </contour>
    </TTGlyph>
    <TTGlyph name="shaddakasratanarabic" xMin="142" yMin="226" xMax="842" yMax="1588">
      <contour>
        <pt x="142" y="226" on="1"/>
        <pt x="142" y="1588" on="1"/>
        <pt x="842" y="1588" on="1"/>
        <pt x="842" y="226" on="1"/>
      </contour>
      <contour>
        <pt x="284" y="368" on="1"/>
        <pt x="700" y="368" on="1"/>
        <pt x="700" y="1447" on="1"/>
        <pt x="284" y="1447" on="1"/>
      </contour>
    </TTGlyph>
    <TTGlyph name="slash" xMin="142" yMin="226" xMax="842" yMax="1588">
      <contour>
        <pt x="142" y="226" on="1"/>
        <pt x="142" y="1588" on="1"/>
        <pt x="842" y="1588" on="1"/>
        <pt x="842" y="226" on="1"/>
      </contour>
      <contour>
        <pt x="284" y="368" on="1"/>
        <pt x="700" y="368" on="1"/>
        <pt x="700" y="1447" on="1"/>
        <pt x="284" y="1447" on="1"/>
      </contour>
    </TTGlyph>
    <TTGlyph name="space" xMin="142" yMin="226" xMax="842" yMax="1588">
      <contour>
        <pt x="142" y="226" on="1"/>
        <pt x="142" y="1588" on="1"/>
        <pt x="842" y="1588" on="1"/>
        <pt x="842" y="226" on="1"/>
      </contour>
      <contour>
        <pt x="284" y="368" on="1"/>
        <pt x="700" y="368" on="1"/>
        <pt x="700" y="1447" on="1"/>
        <pt x="284" y="1447" on="1"/>
      </contour>
    </TTGlyph>
    <TTGlyph name="tchehfinalarabic" xMin="142" yMin="226" xMax="842" yMax="1588">
      <contour>
        <pt x="142" y="226" on="1"/>
        <pt x="142" y="1588" on="1"/>
        <pt x="842" y="1588" on="1"/>
        <pt x="842" y="226" on="1"/>
      </contour>
      <contour>
        <pt x="284" y="368" on="1"/>
        <pt x="700" y="368" on="1"/>
        <pt x="700" y="1447" on="1"/>
        <pt x="284" y="1447" on="1"/>
      </contour>
    </TTGlyph>
    <TTGlyph name="tchehinitialarabic" xMin="142" yMin="226" xMax="842" yMax="1588">
      <contour>
        <pt x="142" y="226" on="1"/>
        <pt x="142" y="1588" on="1"/>
        <pt x="842" y="1588" on="1"/>
        <pt x="842" y="226" on="1"/>
      </contour>
      <contour>
        <pt x="284" y="368" on="1"/>
        <pt x="700" y="368" on="1"/>
        <pt x="700" y="1447" on="1"/>
        <pt x="284" y="1447" on="1"/>
      </contour>
    </TTGlyph>
    <TTGlyph name="tchehmedialarabic" xMin="142" yMin="226" xMax="842" yMax="1588">
      <contour>
        <pt x="142" y="226" on="1"/>
        <pt x="142" y="1588" on="1"/>
        <pt x="842" y="1588" on="1"/>
        <pt x="842" y="226" on="1"/>
      </contour>
      <contour>
        <pt x="284" y="368" on="1"/>
        <pt x="700" y="368" on="1"/>
        <pt x="700" y="1447" on="1"/>
        <pt x="284" y="1447" on="1"/>
      </contour>
    </TTGlyph>
    <TTGlyph name="tehhahisolatedarabic" xMin="142" yMin="226" xMax="842" yMax="1588">
      <contour>
        <pt x="142" y="226" on="1"/>
        <pt x="142" y="1588" on="1"/>
        <pt x="842" y="1588" on="1"/>
        <pt x="842" y="226" on="1"/>
      </contour>
      <contour>
        <pt x="284" y="368" on="1"/>
        <pt x="700" y="368" on="1"/>
        <pt x="700" y="1447" on="1"/>
        <pt x="284" y="1447" on="1"/>
      </contour>
    </TTGlyph>
    <TTGlyph name="tehjeemisolatedarabic" xMin="142" yMin="226" xMax="842" yMax="1588">
      <contour>
        <pt x="142" y="226" on="1"/>
        <pt x="142" y="1588" on="1"/>
        <pt x="842" y="1588" on="1"/>
        <pt x="842" y="226" on="1"/>
      </contour>
      <contour>
        <pt x="284" y="368" on="1"/>
        <pt x="700" y="368" on="1"/>
        <pt x="700" y="1447" on="1"/>
        <pt x="284" y="1447" on="1"/>
      </contour>
    </TTGlyph>
    <TTGlyph name="tehmeemisolatedarabic" xMin="142" yMin="226" xMax="842" yMax="1588">
      <contour>
        <pt x="142" y="226" on="1"/>
        <pt x="142" y="1588" on="1"/>
        <pt x="842" y="1588" on="1"/>
        <pt x="842" y="226" on="1"/>
      </contour>
      <contour>
        <pt x="284" y="368" on="1"/>
        <pt x="700" y="368" on="1"/>
        <pt x="700" y="1447" on="1"/>
        <pt x="284" y="1447" on="1"/>
      </contour>
    </TTGlyph>
    <TTGlyph name="tehnoonfinalarabic" xMin="142" yMin="226" xMax="842" yMax="1588">
      <contour>
        <pt x="142" y="226" on="1"/>
        <pt x="142" y="1588" on="1"/>
        <pt x="842" y="1588" on="1"/>
        <pt x="842" y="226" on="1"/>
      </contour>
      <contour>
        <pt x="284" y="368" on="1"/>
        <pt x="700" y="368" on="1"/>
        <pt x="700" y="1447" on="1"/>
        <pt x="284" y="1447" on="1"/>
      </contour>
    </TTGlyph>
    <TTGlyph name="tehringfinal" xMin="142" yMin="226" xMax="842" yMax="1588">
      <contour>
        <pt x="142" y="226" on="1"/>
        <pt x="142" y="1588" on="1"/>
        <pt x="842" y="1588" on="1"/>
        <pt x="842" y="226" on="1"/>
      </contour>
      <contour>
        <pt x="284" y="368" on="1"/>
        <pt x="700" y="368" on="1"/>
        <pt x="700" y="1447" on="1"/>
        <pt x="284" y="1447" on="1"/>
      </contour>
    </TTGlyph>
    <TTGlyph name="tehringinitial" xMin="142" yMin="226" xMax="842" yMax="1588">
      <contour>
        <pt x="142" y="226" on="1"/>
        <pt x="142" y="1588" on="1"/>
        <pt x="842" y="1588" on="1"/>
        <pt x="842" y="226" on="1"/>
      </contour>
      <contour>
        <pt x="284" y="368" on="1"/>
        <pt x="700" y="368" on="1"/>
        <pt x="700" y="1447" on="1"/>
        <pt x="284" y="1447" on="1"/>
      </contour>
    </TTGlyph>
    <TTGlyph name="tehringmedial" xMin="142" yMin="226" xMax="842" yMax="1588">
      <contour>
        <pt x="142" y="226" on="1"/>
        <pt x="142" y="1588" on="1"/>
        <pt x="842" y="1588" on="1"/>
        <pt x="842" y="226" on="1"/>
      </contour>
      <contour>
        <pt x="284" y="368" on="1"/>
        <pt x="700" y="368" on="1"/>
        <pt x="700" y="1447" on="1"/>
        <pt x="284" y="1447" on="1"/>
      </contour>
    </TTGlyph>
    <TTGlyph name="ttehfinalarabic" xMin="142" yMin="226" xMax="842" yMax="1588">
      <contour>
        <pt x="142" y="226" on="1"/>
        <pt x="142" y="1588" on="1"/>
        <pt x="842" y="1588" on="1"/>
        <pt x="842" y="226" on="1"/>
      </contour>
      <contour>
        <pt x="284" y="368" on="1"/>
        <pt x="700" y="368" on="1"/>
        <pt x="700" y="1447" on="1"/>
        <pt x="284" y="1447" on="1"/>
      </contour>
    </TTGlyph>
    <TTGlyph name="ttehinitialarabic" xMin="142" yMin="226" xMax="842" yMax="1588">
      <contour>
        <pt x="142" y="226" on="1"/>
        <pt x="142" y="1588" on="1"/>
        <pt x="842" y="1588" on="1"/>
        <pt x="842" y="226" on="1"/>
      </contour>
      <contour>
        <pt x="284" y="368" on="1"/>
        <pt x="700" y="368" on="1"/>
        <pt x="700" y="1447" on="1"/>
        <pt x="284" y="1447" on="1"/>
      </contour>
    </TTGlyph>
    <TTGlyph name="ttehmedialarabic" xMin="142" yMin="226" xMax="842" yMax="1588">
      <contour>
        <pt x="142" y="226" on="1"/>
        <pt x="142" y="1588" on="1"/>
        <pt x="842" y="1588" on="1"/>
        <pt x="842" y="226" on="1"/>
      </contour>
      <contour>
        <pt x="284" y="368" on="1"/>
        <pt x="700" y="368" on="1"/>
        <pt x="700" y="1447" on="1"/>
        <pt x="284" y="1447" on="1"/>
      </contour>
    </TTGlyph>
    <TTGlyph name="uni000D" xMin="142" yMin="226" xMax="842" yMax="1588">
      <contour>
        <pt x="142" y="226" on="1"/>
        <pt x="142" y="1588" on="1"/>
        <pt x="842" y="1588" on="1"/>
        <pt x="842" y="226" on="1"/>
      </contour>
      <contour>
        <pt x="284" y="368" on="1"/>
        <pt x="700" y="368" on="1"/>
        <pt x="700" y="1447" on="1"/>
        <pt x="284" y="1447" on="1"/>
      </contour>
    </TTGlyph>
    <TTGlyph name="uni00A0" xMin="142" yMin="226" xMax="842" yMax="1588">
      <contour>
        <pt x="142" y="226" on="1"/>
        <pt x="142" y="1588" on="1"/>
        <pt x="842" y="1588" on="1"/>
        <pt x="842" y="226" on="1"/>
      </contour>
      <contour>
        <pt x="284" y="368" on="1"/>
        <pt x="700" y="368" on="1"/>
        <pt x="700" y="1447" on="1"/>
        <pt x="284" y="1447" on="1"/>
      </contour>
    </TTGlyph>
    <TTGlyph name="uni00AD" xMin="142" yMin="226" xMax="842" yMax="1588">
      <contour>
        <pt x="142" y="226" on="1"/>
        <pt x="142" y="1588" on="1"/>
        <pt x="842" y="1588" on="1"/>
        <pt x="842" y="226" on="1"/>
      </contour>
      <contour>
        <pt x="284" y="368" on="1"/>
        <pt x="700" y="368" on="1"/>
        <pt x="700" y="1447" on="1"/>
        <pt x="284" y="1447" on="1"/>
      </contour>
    </TTGlyph>
    <TTGlyph name="uni0653" xMin="142" yMin="226" xMax="842" yMax="1588">
      <contour>
        <pt x="142" y="226" on="1"/>
        <pt x="142" y="1588" on="1"/>
        <pt x="842" y="1588" on="1"/>
        <pt x="842" y="226" on="1"/>
      </contour>
      <contour>
        <pt x="284" y="368" on="1"/>
        <pt x="700" y="368" on="1"/>
        <pt x="700" y="1447" on="1"/>
        <pt x="284" y="1447" on="1"/>
      </contour>
    </TTGlyph>
    <TTGlyph name="uni0654" xMin="142" yMin="226" xMax="842" yMax="1588">
      <contour>
        <pt x="142" y="226" on="1"/>
        <pt x="142" y="1588" on="1"/>
        <pt x="842" y="1588" on="1"/>
        <pt x="842" y="226" on="1"/>
      </contour>
      <contour>
        <pt x="284" y="368" on="1"/>
        <pt x="700" y="368" on="1"/>
        <pt x="700" y="1447" on="1"/>
        <pt x="284" y="1447" on="1"/>
      </contour>
    </TTGlyph>
    <TTGlyph name="uni0655" xMin="142" yMin="226" xMax="842" yMax="1588">
      <contour>
        <pt x="142" y="226" on="1"/>
        <pt x="142" y="1588" on="1"/>
        <pt x="842" y="1588" on="1"/>
        <pt x="842" y="226" on="1"/>
      </contour>
      <contour>
        <pt x="284" y="368" on="1"/>
        <pt x="700" y="368" on="1"/>
        <pt x="700" y="1447" on="1"/>
        <pt x="284" y="1447" on="1"/>
      </contour>
    </TTGlyph>
    <TTGlyph name="uni066B" xMin="142" yMin="226" xMax="842" yMax="1588">
      <contour>
        <pt x="142" y="226" on="1"/>
        <pt x="142" y="1588" on="1"/>
        <pt x="842" y="1588" on="1"/>
        <pt x="842" y="226" on="1"/>
      </contour>
      <contour>
        <pt x="284" y="368" on="1"/>
        <pt x="700" y="368" on="1"/>
        <pt x="700" y="1447" on="1"/>
        <pt x="284" y="1447" on="1"/>
      </contour>
    </TTGlyph>
    <TTGlyph name="uni066C" xMin="142" yMin="226" xMax="842" yMax="1588">
      <contour>
        <pt x="142" y="226" on="1"/>
        <pt x="142" y="1588" on="1"/>
        <pt x="842" y="1588" on="1"/>
        <pt x="842" y="226" on="1"/>
      </contour>
      <contour>
        <pt x="284" y="368" on="1"/>
        <pt x="700" y="368" on="1"/>
        <pt x="700" y="1447" on="1"/>
        <pt x="284" y="1447" on="1"/>
      </contour>
    </TTGlyph>
    <TTGlyph name="uni0671" xMin="142" yMin="226" xMax="842" yMax="1588">
      <contour>
        <pt x="142" y="226" on="1"/>
        <pt x="142" y="1588" on="1"/>
        <pt x="842" y="1588" on="1"/>
        <pt x="842" y="226" on="1"/>
      </contour>
      <contour>
        <pt x="284" y="368" on="1"/>
        <pt x="700" y="368" on="1"/>
        <pt x="700" y="1447" on="1"/>
        <pt x="284" y="1447" on="1"/>
      </contour>
    </TTGlyph>
    <TTGlyph name="uni067C" xMin="142" yMin="226" xMax="842" yMax="1588">
      <contour>
        <pt x="142" y="226" on="1"/>
        <pt x="142" y="1588" on="1"/>
        <pt x="842" y="1588" on="1"/>
        <pt x="842" y="226" on="1"/>
      </contour>
      <contour>
        <pt x="284" y="368" on="1"/>
        <pt x="700" y="368" on="1"/>
        <pt x="700" y="1447" on="1"/>
        <pt x="284" y="1447" on="1"/>
      </contour>
    </TTGlyph>
    <TTGlyph name="uni0681" xMin="142" yMin="226" xMax="842" yMax="1588">
      <contour>
        <pt x="142" y="226" on="1"/>
        <pt x="142" y="1588" on="1"/>
        <pt x="842" y="1588" on="1"/>
        <pt x="842" y="226" on="1"/>
      </contour>
      <contour>
        <pt x="284" y="368" on="1"/>
        <pt x="700" y="368" on="1"/>
        <pt x="700" y="1447" on="1"/>
        <pt x="284" y="1447" on="1"/>
      </contour>
    </TTGlyph>
    <TTGlyph name="uni0685" xMin="142" yMin="226" xMax="842" yMax="1588">
      <contour>
        <pt x="142" y="226" on="1"/>
        <pt x="142" y="1588" on="1"/>
        <pt x="842" y="1588" on="1"/>
        <pt x="842" y="226" on="1"/>
      </contour>
      <contour>
        <pt x="284" y="368" on="1"/>
        <pt x="700" y="368" on="1"/>
        <pt x="700" y="1447" on="1"/>
        <pt x="284" y="1447" on="1"/>
      </contour>
    </TTGlyph>
    <TTGlyph name="uni0689" xMin="142" yMin="226" xMax="842" yMax="1588">
      <contour>
        <pt x="142" y="226" on="1"/>
        <pt x="142" y="1588" on="1"/>
        <pt x="842" y="1588" on="1"/>
        <pt x="842" y="226" on="1"/>
      </contour>
      <contour>
        <pt x="284" y="368" on="1"/>
        <pt x="700" y="368" on="1"/>
        <pt x="700" y="1447" on="1"/>
        <pt x="284" y="1447" on="1"/>
      </contour>
    </TTGlyph>
    <TTGlyph name="uni0693" xMin="142" yMin="226" xMax="842" yMax="1588">
      <contour>
        <pt x="142" y="226" on="1"/>
        <pt x="142" y="1588" on="1"/>
        <pt x="842" y="1588" on="1"/>
        <pt x="842" y="226" on="1"/>
      </contour>
      <contour>
        <pt x="284" y="368" on="1"/>
        <pt x="700" y="368" on="1"/>
        <pt x="700" y="1447" on="1"/>
        <pt x="284" y="1447" on="1"/>
      </contour>
    </TTGlyph>
    <TTGlyph name="uni0696" xMin="142" yMin="226" xMax="842" yMax="1588">
      <contour>
        <pt x="142" y="226" on="1"/>
        <pt x="142" y="1588" on="1"/>
        <pt x="842" y="1588" on="1"/>
        <pt x="842" y="226" on="1"/>
      </contour>
      <contour>
        <pt x="284" y="368" on="1"/>
        <pt x="700" y="368" on="1"/>
        <pt x="700" y="1447" on="1"/>
        <pt x="284" y="1447" on="1"/>
      </contour>
    </TTGlyph>
    <TTGlyph name="uni069A" xMin="142" yMin="226" xMax="842" yMax="1588">
      <contour>
        <pt x="142" y="226" on="1"/>
        <pt x="142" y="1588" on="1"/>
        <pt x="842" y="1588" on="1"/>
        <pt x="842" y="226" on="1"/>
      </contour>
      <contour>
        <pt x="284" y="368" on="1"/>
        <pt x="700" y="368" on="1"/>
        <pt x="700" y="1447" on="1"/>
        <pt x="284" y="1447" on="1"/>
      </contour>
    </TTGlyph>
    <TTGlyph name="uni06A9" xMin="142" yMin="226" xMax="842" yMax="1588">
      <contour>
        <pt x="142" y="226" on="1"/>
        <pt x="142" y="1588" on="1"/>
        <pt x="842" y="1588" on="1"/>
        <pt x="842" y="226" on="1"/>
      </contour>
      <contour>
        <pt x="284" y="368" on="1"/>
        <pt x="700" y="368" on="1"/>
        <pt x="700" y="1447" on="1"/>
        <pt x="284" y="1447" on="1"/>
      </contour>
    </TTGlyph>
    <TTGlyph name="uni06AB" xMin="142" yMin="226" xMax="842" yMax="1588">
      <contour>
        <pt x="142" y="226" on="1"/>
        <pt x="142" y="1588" on="1"/>
        <pt x="842" y="1588" on="1"/>
        <pt x="842" y="226" on="1"/>
      </contour>
      <contour>
        <pt x="284" y="368" on="1"/>
        <pt x="700" y="368" on="1"/>
        <pt x="700" y="1447" on="1"/>
        <pt x="284" y="1447" on="1"/>
      </contour>
    </TTGlyph>
    <TTGlyph name="uni06B7" xMin="142" yMin="226" xMax="842" yMax="1588">
      <contour>
        <pt x="142" y="226" on="1"/>
        <pt x="142" y="1588" on="1"/>
        <pt x="842" y="1588" on="1"/>
        <pt x="842" y="226" on="1"/>
      </contour>
      <contour>
        <pt x="284" y="368" on="1"/>
        <pt x="700" y="368" on="1"/>
        <pt x="700" y="1447" on="1"/>
        <pt x="284" y="1447" on="1"/>
      </contour>
    </TTGlyph>
    <TTGlyph name="uni06BC" xMin="142" yMin="226" xMax="842" yMax="1588">
      <contour>
        <pt x="142" y="226" on="1"/>
        <pt x="142" y="1588" on="1"/>
        <pt x="842" y="1588" on="1"/>
        <pt x="842" y="226" on="1"/>
      </contour>
      <contour>
        <pt x="284" y="368" on="1"/>
        <pt x="700" y="368" on="1"/>
        <pt x="700" y="1447" on="1"/>
        <pt x="284" y="1447" on="1"/>
      </contour>
    </TTGlyph>
    <TTGlyph name="uni06BE" xMin="142" yMin="226" xMax="842" yMax="1588">
      <contour>
        <pt x="142" y="226" on="1"/>
        <pt x="142" y="1588" on="1"/>
        <pt x="842" y="1588" on="1"/>
        <pt x="842" y="226" on="1"/>
      </contour>
      <contour>
        <pt x="284" y="368" on="1"/>
        <pt x="700" y="368" on="1"/>
        <pt x="700" y="1447" on="1"/>
        <pt x="284" y="1447" on="1"/>
      </contour>
    </TTGlyph>
    <TTGlyph name="uni06C2" xMin="142" yMin="226" xMax="842" yMax="1588">
      <contour>
        <pt x="142" y="226" on="1"/>
        <pt x="142" y="1588" on="1"/>
        <pt x="842" y="1588" on="1"/>
        <pt x="842" y="226" on="1"/>
      </contour>
      <contour>
        <pt x="284" y="368" on="1"/>
        <pt x="700" y="368" on="1"/>
        <pt x="700" y="1447" on="1"/>
        <pt x="284" y="1447" on="1"/>
      </contour>
    </TTGlyph>
    <TTGlyph name="uni06C7" xMin="142" yMin="226" xMax="842" yMax="1588">
      <contour>
        <pt x="142" y="226" on="1"/>
        <pt x="142" y="1588" on="1"/>
        <pt x="842" y="1588" on="1"/>
        <pt x="842" y="226" on="1"/>
      </contour>
      <contour>
        <pt x="284" y="368" on="1"/>
        <pt x="700" y="368" on="1"/>
        <pt x="700" y="1447" on="1"/>
        <pt x="284" y="1447" on="1"/>
      </contour>
    </TTGlyph>
    <TTGlyph name="uni06C9" xMin="142" yMin="226" xMax="842" yMax="1588">
      <contour>
        <pt x="142" y="226" on="1"/>
        <pt x="142" y="1588" on="1"/>
        <pt x="842" y="1588" on="1"/>
        <pt x="842" y="226" on="1"/>
      </contour>
      <contour>
        <pt x="284" y="368" on="1"/>
        <pt x="700" y="368" on="1"/>
        <pt x="700" y="1447" on="1"/>
        <pt x="284" y="1447" on="1"/>
      </contour>
    </TTGlyph>
    <TTGlyph name="uni06CC" xMin="142" yMin="226" xMax="842" yMax="1588">
      <contour>
        <pt x="142" y="226" on="1"/>
        <pt x="142" y="1588" on="1"/>
        <pt x="842" y="1588" on="1"/>
        <pt x="842" y="226" on="1"/>
      </contour>
      <contour>
        <pt x="284" y="368" on="1"/>
        <pt x="700" y="368" on="1"/>
        <pt x="700" y="1447" on="1"/>
        <pt x="284" y="1447" on="1"/>
      </contour>
    </TTGlyph>
    <TTGlyph name="uni06CD" xMin="142" yMin="226" xMax="842" yMax="1588">
      <contour>
        <pt x="142" y="226" on="1"/>
        <pt x="142" y="1588" on="1"/>
        <pt x="842" y="1588" on="1"/>
        <pt x="842" y="226" on="1"/>
      </contour>
      <contour>
        <pt x="284" y="368" on="1"/>
        <pt x="700" y="368" on="1"/>
        <pt x="700" y="1447" on="1"/>
        <pt x="284" y="1447" on="1"/>
      </contour>
    </TTGlyph>
    <TTGlyph name="uni06D0" xMin="142" yMin="226" xMax="842" yMax="1588">
      <contour>
        <pt x="142" y="226" on="1"/>
        <pt x="142" y="1588" on="1"/>
        <pt x="842" y="1588" on="1"/>
        <pt x="842" y="226" on="1"/>
      </contour>
      <contour>
        <pt x="284" y="368" on="1"/>
        <pt x="700" y="368" on="1"/>
        <pt x="700" y="1447" on="1"/>
        <pt x="284" y="1447" on="1"/>
      </contour>
    </TTGlyph>
    <TTGlyph name="uni06D1" xMin="142" yMin="226" xMax="842" yMax="1588">
      <contour>
        <pt x="142" y="226" on="1"/>
        <pt x="142" y="1588" on="1"/>
        <pt x="842" y="1588" on="1"/>
        <pt x="842" y="226" on="1"/>
      </contour>
      <contour>
        <pt x="284" y="368" on="1"/>
        <pt x="700" y="368" on="1"/>
        <pt x="700" y="1447" on="1"/>
        <pt x="284" y="1447" on="1"/>
      </contour>
    </TTGlyph>
    <TTGlyph name="uni06D3" xMin="142" yMin="226" xMax="842" yMax="1588">
      <contour>
        <pt x="142" y="226" on="1"/>
        <pt x="142" y="1588" on="1"/>
        <pt x="842" y="1588" on="1"/>
        <pt x="842" y="226" on="1"/>
      </contour>
      <contour>
        <pt x="284" y="368" on="1"/>
        <pt x="700" y="368" on="1"/>
        <pt x="700" y="1447" on="1"/>
        <pt x="284" y="1447" on="1"/>
      </contour>
    </TTGlyph>
    <TTGlyph name="uni06D4" xMin="142" yMin="226" xMax="842" yMax="1588">
      <contour>
        <pt x="142" y="226" on="1"/>
        <pt x="142" y="1588" on="1"/>
        <pt x="842" y="1588" on="1"/>
        <pt x="842" y="226" on="1"/>
      </contour>
      <contour>
        <pt x="284" y="368" on="1"/>
        <pt x="700" y="368" on="1"/>
        <pt x="700" y="1447" on="1"/>
        <pt x="284" y="1447" on="1"/>
      </contour>
    </TTGlyph>
    <TTGlyph name="uni06F0" xMin="142" yMin="226" xMax="842" yMax="1588">
      <contour>
        <pt x="142" y="226" on="1"/>
        <pt x="142" y="1588" on="1"/>
        <pt x="842" y="1588" on="1"/>
        <pt x="842" y="226" on="1"/>
      </contour>
      <contour>
        <pt x="284" y="368" on="1"/>
        <pt x="700" y="368" on="1"/>
        <pt x="700" y="1447" on="1"/>
        <pt x="284" y="1447" on="1"/>
      </contour>
    </TTGlyph>
    <TTGlyph name="uni06F1" xMin="142" yMin="226" xMax="842" yMax="1588">
      <contour>
        <pt x="142" y="226" on="1"/>
        <pt x="142" y="1588" on="1"/>
        <pt x="842" y="1588" on="1"/>
        <pt x="842" y="226" on="1"/>
      </contour>
      <contour>
        <pt x="284" y="368" on="1"/>
        <pt x="700" y="368" on="1"/>
        <pt x="700" y="1447" on="1"/>
        <pt x="284" y="1447" on="1"/>
      </contour>
    </TTGlyph>
    <TTGlyph name="uni06F2" xMin="142" yMin="226" xMax="842" yMax="1588">
      <contour>
        <pt x="142" y="226" on="1"/>
        <pt x="142" y="1588" on="1"/>
        <pt x="842" y="1588" on="1"/>
        <pt x="842" y="226" on="1"/>
      </contour>
      <contour>
        <pt x="284" y="368" on="1"/>
        <pt x="700" y="368" on="1"/>
        <pt x="700" y="1447" on="1"/>
        <pt x="284" y="1447" on="1"/>
      </contour>
    </TTGlyph>
    <TTGlyph name="uni06F3" xMin="142" yMin="226" xMax="842" yMax="1588">
      <contour>
        <pt x="142" y="226" on="1"/>
        <pt x="142" y="1588" on="1"/>
        <pt x="842" y="1588" on="1"/>
        <pt x="842" y="226" on="1"/>
      </contour>
      <contour>
        <pt x="284" y="368" on="1"/>
        <pt x="700" y="368" on="1"/>
        <pt x="700" y="1447" on="1"/>
        <pt x="284" y="1447" on="1"/>
      </contour>
    </TTGlyph>
    <TTGlyph name="uni06F4" xMin="142" yMin="226" xMax="842" yMax="1588">
      <contour>
        <pt x="142" y="226" on="1"/>
        <pt x="142" y="1588" on="1"/>
        <pt x="842" y="1588" on="1"/>
        <pt x="842" y="226" on="1"/>
      </contour>
      <contour>
        <pt x="284" y="368" on="1"/>
        <pt x="700" y="368" on="1"/>
        <pt x="700" y="1447" on="1"/>
        <pt x="284" y="1447" on="1"/>
      </contour>
    </TTGlyph>
    <TTGlyph name="uni06F5" xMin="142" yMin="226" xMax="842" yMax="1588">
      <contour>
        <pt x="142" y="226" on="1"/>
        <pt x="142" y="1588" on="1"/>
        <pt x="842" y="1588" on="1"/>
        <pt x="842" y="226" on="1"/>
      </contour>
      <contour>
        <pt x="284" y="368" on="1"/>
        <pt x="700" y="368" on="1"/>
        <pt x="700" y="1447" on="1"/>
        <pt x="284" y="1447" on="1"/>
      </contour>
    </TTGlyph>
    <TTGlyph name="uni06F6" xMin="142" yMin="226" xMax="842" yMax="1588">
      <contour>
        <pt x="142" y="226" on="1"/>
        <pt x="142" y="1588" on="1"/>
        <pt x="842" y="1588" on="1"/>
        <pt x="842" y="226" on="1"/>
      </contour>
      <contour>
        <pt x="284" y="368" on="1"/>
        <pt x="700" y="368" on="1"/>
        <pt x="700" y="1447" on="1"/>
        <pt x="284" y="1447" on="1"/>
      </contour>
    </TTGlyph>
    <TTGlyph name="uni06F7" xMin="142" yMin="226" xMax="842" yMax="1588">
      <contour>
        <pt x="142" y="226" on="1"/>
        <pt x="142" y="1588" on="1"/>
        <pt x="842" y="1588" on="1"/>
        <pt x="842" y="226" on="1"/>
      </contour>
      <contour>
        <pt x="284" y="368" on="1"/>
        <pt x="700" y="368" on="1"/>
        <pt x="700" y="1447" on="1"/>
        <pt x="284" y="1447" on="1"/>
      </contour>
    </TTGlyph>
    <TTGlyph name="uni06F8" xMin="142" yMin="226" xMax="842" yMax="1588">
      <contour>
        <pt x="142" y="226" on="1"/>
        <pt x="142" y="1588" on="1"/>
        <pt x="842" y="1588" on="1"/>
        <pt x="842" y="226" on="1"/>
      </contour>
      <contour>
        <pt x="284" y="368" on="1"/>
        <pt x="700" y="368" on="1"/>
        <pt x="700" y="1447" on="1"/>
        <pt x="284" y="1447" on="1"/>
      </contour>
    </TTGlyph>
    <TTGlyph name="uni06F9" xMin="142" yMin="226" xMax="842" yMax="1588">
      <contour>
        <pt x="142" y="226" on="1"/>
        <pt x="142" y="1588" on="1"/>
        <pt x="842" y="1588" on="1"/>
        <pt x="842" y="226" on="1"/>
      </contour>
      <contour>
        <pt x="284" y="368" on="1"/>
        <pt x="700" y="368" on="1"/>
        <pt x="700" y="1447" on="1"/>
        <pt x="284" y="1447" on="1"/>
      </contour>
    </TTGlyph>
    <TTGlyph name="uni2010" xMin="144" yMin="-516" xMax="1884" yMax="1541">
      <contour>
        <pt x="1649" y="1505" on="1"/>
        <pt x="1649" y="1463" on="0"/>
        <pt x="1467" y="1365" on="1"/>
        <pt x="1352" y="1303" on="0"/>
        <pt x="1238" y="1242" on="1"/>
        <pt x="1194" y="1218" on="0"/>
        <pt x="1099" y="1163" on="1"/>
        <pt x="1099" y="1167" on="0"/>
        <pt x="1086" y="1179" on="0"/>
        <pt x="1086" y="1194" on="1"/>
        <pt x="1086" y="1256" on="0"/>
        <pt x="1150" y="1292" on="1"/>
        <pt x="1333" y="1393" on="0"/>
        <pt x="1612" y="1541" on="1"/>
        <pt x="1649" y="1541" on="1"/>
      </contour>
      <contour>
        <pt x="1884" y="333" on="1"/>
        <pt x="1877" y="301" on="0"/>
        <pt x="1869" y="270" on="1"/>
        <pt x="1858" y="228" on="0"/>
        <pt x="1837" y="214" on="1"/>
        <pt x="1546" y="20" on="0"/>
        <pt x="1022" y="-27" on="1"/>
        <pt x="996" y="-63" on="0"/>
        <pt x="976" y="-148" on="1"/>
        <pt x="954" y="-247" on="0"/>
        <pt x="933" y="-290" on="1"/>
        <pt x="893" y="-371" on="0"/>
        <pt x="807" y="-421" on="1"/>
        <pt x="774" y="-427" on="0"/>
        <pt x="714" y="-448" on="1"/>
        <pt x="568" y="-516" on="0"/>
        <pt x="456" y="-516" on="1"/>
        <pt x="434" y="-516" on="0"/>
        <pt x="368" y="-494" on="1"/>
        <pt x="293" y="-469" on="0"/>
        <pt x="204" y="-412" on="0"/>
        <pt x="173" y="-336" on="1"/>
        <pt x="144" y="-267" on="0"/>
        <pt x="144" y="-203" on="1"/>
        <pt x="144" y="-142" on="0"/>
        <pt x="205" y="-32" on="1"/>
        <pt x="270" y="84" on="0"/>
        <pt x="322" y="86" on="1"/>
        <pt x="314" y="48" on="0"/>
        <pt x="278" y="-40" on="1"/>
        <pt x="246" y="-120" on="0"/>
        <pt x="246" y="-131" on="1"/>
        <pt x="246" y="-243" on="0"/>
        <pt x="334" y="-303" on="1"/>
        <pt x="404" y="-352" on="0"/>
        <pt x="492" y="-352" on="1"/>
        <pt x="727" y="-352" on="0"/>
        <pt x="903" y="-203" on="1"/>
        <pt x="906" y="-138" on="0"/>
        <pt x="858" y="51" on="1"/>
        <pt x="853" y="66" on="0"/>
        <pt x="825" y="119" on="1"/>
        <pt x="799" y="166" on="0"/>
        <pt x="799" y="180" on="1"/>
        <pt x="799" y="203" on="0"/>
        <pt x="821" y="270" on="1"/>
        <pt x="833" y="283" on="0"/>
        <pt x="851" y="283" on="1"/>
        <pt x="863" y="283" on="0"/>
        <pt x="892" y="237" on="1"/>
        <pt x="926" y="184" on="0"/>
        <pt x="941" y="171" on="1"/>
        <pt x="993" y="129" on="0"/>
        <pt x="1111" y="129" on="1"/>
        <pt x="1184" y="129" on="0"/>
        <pt x="1232" y="138" on="1"/>
        <pt x="1244" y="151" on="0"/>
        <pt x="1236" y="174" on="1"/>
        <pt x="1235" y="179" on="0"/>
        <pt x="1220" y="205" on="1"/>
        <pt x="1207" y="229" on="0"/>
        <pt x="1207" y="245" on="1"/>
        <pt x="1207" y="252" on="0"/>
        <pt x="1209" y="258" on="1"/>
        <pt x="1243" y="369" on="0"/>
        <pt x="1265" y="420" on="1"/>
        <pt x="1324" y="558" on="0"/>
        <pt x="1396" y="605" on="1"/>
        <pt x="1463" y="651" on="0"/>
        <pt x="1532" y="651" on="1"/>
        <pt x="1634" y="651" on="0"/>
        <pt x="1762" y="513" on="1"/>
        <pt x="1757" y="508" on="0"/>
        <pt x="1742" y="483" on="0"/>
        <pt x="1737" y="477" on="1"/>
        <pt x="1623" y="528" on="0"/>
        <pt x="1567" y="528" on="1"/>
        <pt x="1498" y="528" on="0"/>
        <pt x="1415" y="480" on="1"/>
        <pt x="1321" y="426" on="0"/>
        <pt x="1321" y="365" on="1"/>
        <pt x="1321" y="319" on="0"/>
        <pt x="1383" y="247" on="1"/>
        <pt x="1441" y="180" on="0"/>
        <pt x="1470" y="180" on="1"/>
        <pt x="1574" y="180" on="0"/>
        <pt x="1847" y="333" on="1"/>
      </contour>
      <contour>
        <pt x="564" y="528" on="1"/>
        <pt x="564" y="507" on="0"/>
        <pt x="544" y="469" on="1"/>
        <pt x="520" y="426" on="0"/>
        <pt x="497" y="426" on="1"/>
        <pt x="476" y="426" on="0"/>
        <pt x="435" y="455" on="1"/>
        <pt x="390" y="487" on="0"/>
        <pt x="390" y="513" on="1"/>
        <pt x="390" y="528" on="0"/>
        <pt x="454" y="620" on="1"/>
        <pt x="477" y="615" on="0"/>
        <pt x="564" y="543" on="0"/>
      </contour>
    </TTGlyph>
    <TTGlyph name="uni2011" xMin="144" yMin="-516" xMax="1884" yMax="1541">
      <contour>
        <pt x="1649" y="1505" on="1"/>
        <pt x="1649" y="1463" on="0"/>
        <pt x="1467" y="1365" on="1"/>
        <pt x="1352" y="1303" on="0"/>
        <pt x="1238" y="1242" on="1"/>
        <pt x="1194" y="1218" on="0"/>
        <pt x="1099" y="1163" on="1"/>
        <pt x="1099" y="1167" on="0"/>
        <pt x="1086" y="1179" on="0"/>
        <pt x="1086" y="1194" on="1"/>
        <pt x="1086" y="1256" on="0"/>
        <pt x="1150" y="1292" on="1"/>
        <pt x="1333" y="1393" on="0"/>
        <pt x="1612" y="1541" on="1"/>
        <pt x="1649" y="1541" on="1"/>
      </contour>
      <contour>
        <pt x="1884" y="333" on="1"/>
        <pt x="1877" y="301" on="0"/>
        <pt x="1869" y="270" on="1"/>
        <pt x="1858" y="228" on="0"/>
        <pt x="1837" y="214" on="1"/>
        <pt x="1546" y="20" on="0"/>
        <pt x="1022" y="-27" on="1"/>
        <pt x="996" y="-63" on="0"/>
        <pt x="976" y="-148" on="1"/>
        <pt x="954" y="-247" on="0"/>
        <pt x="933" y="-290" on="1"/>
        <pt x="893" y="-371" on="0"/>
        <pt x="807" y="-421" on="1"/>
        <pt x="774" y="-427" on="0"/>
        <pt x="714" y="-448" on="1"/>
        <pt x="568" y="-516" on="0"/>
        <pt x="456" y="-516" on="1"/>
        <pt x="434" y="-516" on="0"/>
        <pt x="368" y="-494" on="1"/>
        <pt x="293" y="-469" on="0"/>
        <pt x="204" y="-412" on="0"/>
        <pt x="173" y="-336" on="1"/>
        <pt x="144" y="-267" on="0"/>
        <pt x="144" y="-203" on="1"/>
        <pt x="144" y="-142" on="0"/>
        <pt x="205" y="-32" on="1"/>
        <pt x="270" y="84" on="0"/>
        <pt x="322" y="86" on="1"/>
        <pt x="314" y="48" on="0"/>
        <pt x="278" y="-40" on="1"/>
        <pt x="246" y="-120" on="0"/>
        <pt x="246" y="-131" on="1"/>
        <pt x="246" y="-243" on="0"/>
        <pt x="334" y="-303" on="1"/>
        <pt x="404" y="-352" on="0"/>
        <pt x="492" y="-352" on="1"/>
        <pt x="727" y="-352" on="0"/>
        <pt x="903" y="-203" on="1"/>
        <pt x="906" y="-138" on="0"/>
        <pt x="858" y="51" on="1"/>
        <pt x="853" y="66" on="0"/>
        <pt x="825" y="119" on="1"/>
        <pt x="799" y="166" on="0"/>
        <pt x="799" y="180" on="1"/>
        <pt x="799" y="203" on="0"/>
        <pt x="821" y="270" on="1"/>
        <pt x="833" y="283" on="0"/>
        <pt x="851" y="283" on="1"/>
        <pt x="863" y="283" on="0"/>
        <pt x="892" y="237" on="1"/>
        <pt x="926" y="184" on="0"/>
        <pt x="941" y="171" on="1"/>
        <pt x="993" y="129" on="0"/>
        <pt x="1111" y="129" on="1"/>
        <pt x="1184" y="129" on="0"/>
        <pt x="1232" y="138" on="1"/>
        <pt x="1244" y="151" on="0"/>
        <pt x="1236" y="174" on="1"/>
        <pt x="1235" y="179" on="0"/>
        <pt x="1220" y="205" on="1"/>
        <pt x="1207" y="229" on="0"/>
        <pt x="1207" y="245" on="1"/>
        <pt x="1207" y="252" on="0"/>
        <pt x="1209" y="258" on="1"/>
        <pt x="1243" y="369" on="0"/>
        <pt x="1265" y="420" on="1"/>
        <pt x="1324" y="558" on="0"/>
        <pt x="1396" y="605" on="1"/>
        <pt x="1463" y="651" on="0"/>
        <pt x="1532" y="651" on="1"/>
        <pt x="1634" y="651" on="0"/>
        <pt x="1762" y="513" on="1"/>
        <pt x="1757" y="508" on="0"/>
        <pt x="1742" y="483" on="0"/>
        <pt x="1737" y="477" on="1"/>
        <pt x="1623" y="528" on="0"/>
        <pt x="1567" y="528" on="1"/>
        <pt x="1498" y="528" on="0"/>
        <pt x="1415" y="480" on="1"/>
        <pt x="1321" y="426" on="0"/>
        <pt x="1321" y="365" on="1"/>
        <pt x="1321" y="319" on="0"/>
        <pt x="1383" y="247" on="1"/>
        <pt x="1441" y="180" on="0"/>
        <pt x="1470" y="180" on="1"/>
        <pt x="1574" y="180" on="0"/>
        <pt x="1847" y="333" on="1"/>
      </contour>
      <contour>
        <pt x="564" y="528" on="1"/>
        <pt x="564" y="507" on="0"/>
        <pt x="544" y="469" on="1"/>
        <pt x="520" y="426" on="0"/>
        <pt x="497" y="426" on="1"/>
        <pt x="476" y="426" on="0"/>
        <pt x="435" y="455" on="1"/>
        <pt x="390" y="487" on="0"/>
        <pt x="390" y="513" on="1"/>
        <pt x="390" y="528" on="0"/>
        <pt x="454" y="620" on="1"/>
        <pt x="477" y="615" on="0"/>
        <pt x="564" y="543" on="0"/>
      </contour>
    </TTGlyph>
    <TTGlyph name="uniE000" xMin="0" yMin="0" xMax="1965" yMax="1965">
      <contour>
        <pt x="0" y="1965" on="1"/>
        <pt x="1965" y="1965" on="1"/>
        <pt x="1965" y="0" on="1"/>
        <pt x="0" y="0" on="1"/>
      </contour>
    </TTGlyph>
    <TTGlyph name="uniFB51" xMin="304" yMin="-346" xMax="1878" yMax="1609">
      <contour>
        <pt x="1878" y="1264" on="1"/>
        <pt x="1826" y="1225" on="0"/>
        <pt x="1533" y="1047" on="1"/>
        <pt x="1488" y="1047" on="1"/>
        <pt x="1488" y="1081" on="1"/>
        <pt x="1488" y="1122" on="0"/>
        <pt x="1656" y="1217" on="1"/>
        <pt x="1778" y="1285" on="0"/>
        <pt x="1843" y="1312" on="1"/>
        <pt x="1878" y="1312" on="1"/>
      </contour>
      <contour>
        <pt x="1292" y="1584" on="1"/>
        <pt x="1287" y="1567" on="0"/>
        <pt x="1277" y="1540" on="1"/>
        <pt x="1205" y="1471" on="0"/>
        <pt x="1070" y="1397" on="1"/>
        <pt x="873" y="1288" on="0"/>
        <pt x="848" y="1272" on="1"/>
        <pt x="805" y="1272" on="1"/>
        <pt x="793" y="1273" on="0"/>
        <pt x="793" y="1297" on="1"/>
        <pt x="793" y="1348" on="0"/>
        <pt x="950" y="1434" on="1"/>
        <pt x="1034" y="1476" on="0"/>
        <pt x="1117" y="1519" on="1"/>
        <pt x="1185" y="1570" on="0"/>
        <pt x="1258" y="1609" on="1"/>
        <pt x="1263" y="1604" on="0"/>
        <pt x="1287" y="1589" on="0"/>
      </contour>
      <contour>
        <pt x="1732" y="222" on="1"/>
        <pt x="1732" y="-49" on="0"/>
        <pt x="1466" y="-280" on="1"/>
        <pt x="1434" y="-308" on="0"/>
        <pt x="1376" y="-322" on="1"/>
        <pt x="1280" y="-346" on="0"/>
        <pt x="1208" y="-346" on="1"/>
        <pt x="1127" y="-346" on="0"/>
        <pt x="963" y="-312" on="1"/>
        <pt x="921" y="-303" on="0"/>
        <pt x="891" y="-258" on="1"/>
        <pt x="904" y="-241" on="1"/>
        <pt x="920" y="-236" on="0"/>
        <pt x="941" y="-236" on="1"/>
        <pt x="968" y="-236" on="0"/>
        <pt x="1082" y="-264" on="0"/>
        <pt x="1106" y="-264" on="1"/>
        <pt x="1268" y="-264" on="0"/>
        <pt x="1416" y="-161" on="1"/>
        <pt x="1573" y="-50" on="0"/>
        <pt x="1654" y="140" on="1"/>
        <pt x="1658" y="146" on="0"/>
        <pt x="1649" y="156" on="1"/>
        <pt x="1573" y="74" on="0"/>
        <pt x="1537" y="74" on="1"/>
        <pt x="1471" y="74" on="0"/>
        <pt x="1432" y="129" on="1"/>
        <pt x="1399" y="174" on="0"/>
        <pt x="1399" y="227" on="1"/>
        <pt x="1399" y="286" on="0"/>
        <pt x="1444" y="376" on="1"/>
        <pt x="1496" y="483" on="0"/>
        <pt x="1556" y="483" on="1"/>
        <pt x="1647" y="483" on="0"/>
        <pt x="1697" y="369" on="1"/>
        <pt x="1732" y="289" on="0"/>
      </contour>
      <contour>
        <pt x="1222" y="1043" on="1"/>
        <pt x="1218" y="1014" on="0"/>
        <pt x="1180" y="968" on="1"/>
        <pt x="1136" y="917" on="0"/>
        <pt x="1128" y="895" on="1"/>
        <pt x="1110" y="854" on="0"/>
        <pt x="1099" y="760" on="1"/>
        <pt x="1083" y="612" on="0"/>
        <pt x="1082" y="610" on="1"/>
        <pt x="1076" y="564" on="0"/>
        <pt x="1040" y="460" on="1"/>
        <pt x="1009" y="365" on="0"/>
        <pt x="1009" y="355" on="1"/>
        <pt x="1009" y="343" on="0"/>
        <pt x="1077" y="151" on="0"/>
        <pt x="1077" y="140" on="1"/>
        <pt x="1077" y="39" on="0"/>
        <pt x="1025" y="15" on="1"/>
        <pt x="904" y="-39" on="0"/>
        <pt x="696" y="-39" on="1"/>
        <pt x="640" y="-39" on="0"/>
        <pt x="619" y="-27" on="1"/>
        <pt x="588" y="-9" on="0"/>
        <pt x="588" y="43" on="1"/>
        <pt x="588" y="125" on="0"/>
        <pt x="651" y="125" on="1"/>
        <pt x="663" y="125" on="0"/>
        <pt x="678" y="115" on="0"/>
        <pt x="691" y="115" on="1"/>
        <pt x="744" y="115" on="0"/>
        <pt x="816" y="184" on="1"/>
        <pt x="891" y="257" on="0"/>
        <pt x="891" y="324" on="1"/>
        <pt x="891" y="355" on="0"/>
        <pt x="731" y="578" on="1"/>
        <pt x="564" y="811" on="0"/>
        <pt x="515" y="811" on="1"/>
        <pt x="504" y="811" on="0"/>
        <pt x="447" y="791" on="0"/>
        <pt x="436" y="791" on="1"/>
        <pt x="420" y="791" on="0"/>
        <pt x="351" y="828" on="0"/>
        <pt x="337" y="846" on="1"/>
        <pt x="304" y="888" on="0"/>
        <pt x="304" y="975" on="1"/>
        <pt x="304" y="1033" on="0"/>
        <pt x="347" y="1097" on="1"/>
        <pt x="457" y="1052" on="0"/>
        <pt x="724" y="803" on="0"/>
        <pt x="799" y="675" on="1"/>
        <pt x="826" y="623" on="0"/>
        <pt x="853" y="573" on="1"/>
        <pt x="889" y="510" on="0"/>
        <pt x="943" y="452" on="1"/>
        <pt x="1019" y="647" on="0"/>
        <pt x="1021" y="786" on="1"/>
        <pt x="1025" y="792" on="0"/>
        <pt x="1034" y="807" on="1"/>
        <pt x="1044" y="977" on="0"/>
        <pt x="1024" y="1041" on="1"/>
        <pt x="1077" y="1196" on="0"/>
        <pt x="1152" y="1250" on="1"/>
        <pt x="1154" y="1228" on="0"/>
        <pt x="1150" y="1187" on="1"/>
        <pt x="1145" y="1139" on="0"/>
        <pt x="1145" y="1123" on="1"/>
        <pt x="1145" y="1098" on="0"/>
      </contour>
      <contour>
        <pt x="1605" y="270" on="1"/>
        <pt x="1605" y="307" on="1"/>
        <pt x="1595" y="316" on="0"/>
        <pt x="1531" y="350" on="1"/>
        <pt x="1487" y="305" on="0"/>
        <pt x="1487" y="283" on="1"/>
        <pt x="1487" y="265" on="0"/>
        <pt x="1527" y="227" on="0"/>
        <pt x="1546" y="227" on="1"/>
        <pt x="1564" y="227" on="0"/>
      </contour>
      <contour>
        <pt x="978" y="182" on="1"/>
        <pt x="963" y="216" on="0"/>
        <pt x="932" y="216" on="1"/>
        <pt x="902" y="147" on="0"/>
        <pt x="902" y="157" on="1"/>
        <pt x="956" y="146" on="1"/>
        <pt x="978" y="170" on="0"/>
      </contour>
    </TTGlyph>
    <TTGlyph name="uniFB52" xMin="187" yMin="-883" xMax="2419" yMax="1524">
      <contour>
        <pt x="2419" y="1466" on="1"/>
        <pt x="2419" y="1436" on="0"/>
        <pt x="2307" y="1375" on="1"/>
        <pt x="2246" y="1345" on="0"/>
        <pt x="2187" y="1316" on="1"/>
        <pt x="2104" y="1259" on="0"/>
        <pt x="1932" y="1176" on="1"/>
        <pt x="1917" y="1189" on="0"/>
        <pt x="1917" y="1206" on="1"/>
        <pt x="1917" y="1250" on="0"/>
        <pt x="1961" y="1283" on="1"/>
        <pt x="1995" y="1308" on="0"/>
        <pt x="2208" y="1416" on="0"/>
        <pt x="2255" y="1434" on="1"/>
        <pt x="2292" y="1458" on="0"/>
        <pt x="2372" y="1502" on="1"/>
        <pt x="2419" y="1502" on="1"/>
      </contour>
      <contour>
        <pt x="2305" y="755" on="1"/>
        <pt x="2305" y="729" on="0"/>
        <pt x="2238" y="664" on="0"/>
        <pt x="2215" y="664" on="1"/>
        <pt x="2183" y="664" on="0"/>
        <pt x="2147" y="703" on="1"/>
        <pt x="2115" y="737" on="0"/>
        <pt x="2115" y="750" on="1"/>
        <pt x="2115" y="768" on="0"/>
        <pt x="2169" y="842" on="1"/>
        <pt x="2161" y="854" on="0"/>
        <pt x="2118" y="890" on="1"/>
        <pt x="2084" y="920" on="0"/>
        <pt x="2084" y="935" on="1"/>
        <pt x="2084" y="952" on="0"/>
        <pt x="2160" y="1032" on="0"/>
        <pt x="2178" y="1032" on="1"/>
        <pt x="2206" y="1032" on="0"/>
        <pt x="2241" y="991" on="1"/>
        <pt x="2274" y="955" on="0"/>
        <pt x="2274" y="940" on="1"/>
        <pt x="2274" y="928" on="0"/>
        <pt x="2232" y="871" on="0"/>
        <pt x="2232" y="858" on="1"/>
        <pt x="2232" y="848" on="0"/>
        <pt x="2305" y="777" on="0"/>
      </contour>
      <contour>
        <pt x="1549" y="1456" on="1"/>
        <pt x="1549" y="1440" on="0"/>
        <pt x="1167" y="1216" on="0"/>
        <pt x="1072" y="1176" on="1"/>
        <pt x="1057" y="1189" on="0"/>
        <pt x="1057" y="1211" on="1"/>
        <pt x="1057" y="1266" on="0"/>
        <pt x="1277" y="1388" on="1"/>
        <pt x="1400" y="1450" on="0"/>
        <pt x="1523" y="1513" on="1"/>
        <pt x="1539" y="1502" on="0"/>
        <pt x="1549" y="1502" on="1"/>
      </contour>
      <contour>
        <pt x="1959" y="643" on="1"/>
        <pt x="1959" y="615" on="0"/>
        <pt x="1915" y="586" on="1"/>
        <pt x="1877" y="561" on="0"/>
        <pt x="1864" y="561" on="1"/>
        <pt x="1832" y="561" on="0"/>
        <pt x="1794" y="591" on="1"/>
        <pt x="1759" y="618" on="0"/>
        <pt x="1759" y="632" on="1"/>
        <pt x="1759" y="655" on="0"/>
        <pt x="1831" y="725" on="0"/>
        <pt x="1854" y="725" on="1"/>
        <pt x="1887" y="725" on="0"/>
        <pt x="1925" y="688" on="1"/>
        <pt x="1959" y="656" on="0"/>
      </contour>
      <contour>
        <pt x="1372" y="812" on="1"/>
        <pt x="1372" y="777" on="0"/>
        <pt x="1335" y="748" on="1"/>
        <pt x="1304" y="725" on="0"/>
        <pt x="1288" y="725" on="1"/>
        <pt x="1255" y="725" on="0"/>
        <pt x="1227" y="748" on="1"/>
        <pt x="1204" y="768" on="0"/>
        <pt x="1204" y="781" on="1"/>
        <pt x="1204" y="796" on="0"/>
        <pt x="1236" y="836" on="1"/>
        <pt x="1272" y="878" on="0"/>
        <pt x="1298" y="878" on="1"/>
        <pt x="1322" y="878" on="0"/>
        <pt x="1348" y="848" on="1"/>
        <pt x="1372" y="822" on="0"/>
      </contour>
      <contour>
        <pt x="774" y="1185" on="1"/>
        <pt x="774" y="1172" on="0"/>
        <pt x="761" y="1145" on="0"/>
        <pt x="761" y="1135" on="1"/>
        <pt x="758" y="1135" on="0"/>
        <pt x="742" y="1124" on="0"/>
        <pt x="726" y="1124" on="1"/>
        <pt x="715" y="1124" on="0"/>
        <pt x="614" y="1176" on="0"/>
        <pt x="601" y="1176" on="1"/>
        <pt x="590" y="1176" on="0"/>
        <pt x="525" y="1109" on="1"/>
        <pt x="451" y="1035" on="0"/>
        <pt x="415" y="1015" on="1"/>
        <pt x="348" y="994" on="0"/>
        <pt x="212" y="950" on="1"/>
        <pt x="205" y="952" on="0"/>
        <pt x="187" y="964" on="1"/>
        <pt x="200" y="993" on="0"/>
        <pt x="252" y="1027" on="1"/>
        <pt x="311" y="1063" on="0"/>
        <pt x="369" y="1098" on="1"/>
        <pt x="480" y="1171" on="0"/>
        <pt x="480" y="1206" on="1"/>
        <pt x="480" y="1228" on="0"/>
        <pt x="397" y="1279" on="1"/>
        <pt x="392" y="1342" on="0"/>
        <pt x="420" y="1398" on="1"/>
        <pt x="436" y="1428" on="0"/>
        <pt x="485" y="1474" on="1"/>
        <pt x="538" y="1524" on="0"/>
        <pt x="565" y="1524" on="1"/>
        <pt x="633" y="1524" on="0"/>
        <pt x="633" y="1398" on="1"/>
        <pt x="633" y="1378" on="0"/>
        <pt x="630" y="1342" on="1"/>
        <pt x="629" y="1312" on="0"/>
        <pt x="629" y="1306" on="1"/>
        <pt x="674" y="1273" on="0"/>
        <pt x="719" y="1241" on="1"/>
        <pt x="774" y="1203" on="0"/>
      </contour>
      <contour>
        <pt x="2305" y="264" on="1"/>
        <pt x="2305" y="166" on="0"/>
        <pt x="2264" y="103" on="1"/>
        <pt x="2214" y="29" on="0"/>
        <pt x="2120" y="29" on="1"/>
        <pt x="2109" y="29" on="0"/>
        <pt x="1928" y="100" on="0"/>
        <pt x="1917" y="100" on="1"/>
        <pt x="1917" y="100" on="0"/>
        <pt x="1694" y="-22" on="0"/>
        <pt x="1571" y="-22" on="1"/>
        <pt x="1500" y="-22" on="0"/>
        <pt x="1439" y="-9" on="1"/>
        <pt x="1416" y="-4" on="0"/>
        <pt x="1349" y="18" on="1"/>
        <pt x="1291" y="39" on="0"/>
        <pt x="1277" y="39" on="1"/>
        <pt x="1264" y="39" on="0"/>
        <pt x="955" y="-22" on="0"/>
        <pt x="941" y="-22" on="1"/>
        <pt x="736" y="-22" on="0"/>
        <pt x="631" y="120" on="1"/>
        <pt x="509" y="50" on="0"/>
        <pt x="427" y="-95" on="1"/>
        <pt x="355" y="-222" on="0"/>
        <pt x="355" y="-319" on="1"/>
        <pt x="355" y="-511" on="0"/>
        <pt x="497" y="-618" on="1"/>
        <pt x="618" y="-710" on="0"/>
        <pt x="812" y="-723" on="1"/>
        <pt x="839" y="-739" on="0"/>
        <pt x="852" y="-739" on="1"/>
        <pt x="847" y="-739" on="0"/>
        <pt x="1229" y="-729" on="0"/>
        <pt x="1324" y="-729" on="1"/>
        <pt x="1666" y="-678" on="1"/>
        <pt x="1691" y="-684" on="0"/>
        <pt x="1737" y="-701" on="1"/>
        <pt x="1737" y="-711" on="0"/>
        <pt x="1703" y="-736" on="1"/>
        <pt x="1617" y="-756" on="0"/>
        <pt x="1420" y="-818" on="1"/>
        <pt x="1342" y="-847" on="0"/>
        <pt x="1240" y="-859" on="1"/>
        <pt x="1047" y="-883" on="0"/>
        <pt x="947" y="-883" on="1"/>
        <pt x="736" y="-883" on="0"/>
        <pt x="562" y="-823" on="1"/>
        <pt x="350" y="-750" on="0"/>
        <pt x="298" y="-612" on="1"/>
        <pt x="239" y="-454" on="0"/>
        <pt x="239" y="-426" on="1"/>
        <pt x="239" y="-415" on="0"/>
        <pt x="265" y="-337" on="0"/>
        <pt x="266" y="-324" on="1"/>
        <pt x="282" y="-208" on="0"/>
        <pt x="353" y="-64" on="1"/>
        <pt x="432" y="93" on="0"/>
        <pt x="543" y="209" on="1"/>
        <pt x="529" y="256" on="0"/>
        <pt x="419" y="256" on="1"/>
        <pt x="407" y="256" on="0"/>
        <pt x="398" y="255" on="1"/>
        <pt x="398" y="288" on="1"/>
        <pt x="397" y="330" on="0"/>
        <pt x="481" y="383" on="1"/>
        <pt x="553" y="428" on="0"/>
        <pt x="590" y="434" on="1"/>
        <pt x="611" y="438" on="0"/>
        <pt x="664" y="438" on="1"/>
        <pt x="737" y="438" on="0"/>
        <pt x="798" y="413" on="1"/>
        <pt x="878" y="380" on="0"/>
        <pt x="878" y="320" on="1"/>
        <pt x="878" y="283" on="0"/>
        <pt x="784" y="197" on="1"/>
        <pt x="819" y="131" on="0"/>
        <pt x="962" y="131" on="1"/>
        <pt x="1022" y="131" on="0"/>
        <pt x="1163" y="162" on="1"/>
        <pt x="1174" y="229" on="0"/>
        <pt x="1218" y="353" on="1"/>
        <pt x="1250" y="413" on="0"/>
        <pt x="1312" y="483" on="1"/>
        <pt x="1388" y="571" on="0"/>
        <pt x="1430" y="571" on="1"/>
        <pt x="1489" y="571" on="0"/>
        <pt x="1529" y="488" on="1"/>
        <pt x="1560" y="424" on="0"/>
        <pt x="1560" y="371" on="1"/>
        <pt x="1560" y="335" on="0"/>
        <pt x="1486" y="168" on="1"/>
        <pt x="1494" y="161" on="0"/>
        <pt x="1537" y="147" on="1"/>
        <pt x="1584" y="131" on="0"/>
        <pt x="1607" y="131" on="1"/>
        <pt x="1675" y="131" on="0"/>
        <pt x="1943" y="264" on="0"/>
        <pt x="1933" y="264" on="1"/>
        <pt x="1955" y="264" on="0"/>
        <pt x="2084" y="193" on="0"/>
        <pt x="2152" y="193" on="1"/>
        <pt x="2192" y="193" on="0"/>
        <pt x="2203" y="202" on="1"/>
        <pt x="2210" y="210" on="0"/>
        <pt x="2210" y="238" on="1"/>
        <pt x="2210" y="251" on="0"/>
        <pt x="2169" y="359" on="0"/>
        <pt x="2169" y="371" on="1"/>
        <pt x="2169" y="396" on="0"/>
        <pt x="2224" y="479" on="1"/>
        <pt x="2305" y="422" on="0"/>
      </contour>
      <contour>
        <pt x="563" y="1330" on="1"/>
        <pt x="563" y="1377" on="1"/>
        <pt x="541" y="1400" on="0"/>
        <pt x="525" y="1400" on="1"/>
        <pt x="502" y="1377" on="0"/>
        <pt x="502" y="1352" on="1"/>
        <pt x="546" y="1330" on="0"/>
      </contour>
      <contour>
        <pt x="1465" y="275" on="1"/>
        <pt x="1469" y="312" on="0"/>
        <pt x="1450" y="355" on="1"/>
        <pt x="1428" y="407" on="0"/>
        <pt x="1387" y="407" on="1"/>
        <pt x="1362" y="407" on="0"/>
        <pt x="1277" y="303" on="0"/>
        <pt x="1277" y="284" on="1"/>
        <pt x="1277" y="264" on="0"/>
        <pt x="1322" y="213" on="0"/>
        <pt x="1340" y="213" on="1"/>
        <pt x="1356" y="213" on="0"/>
        <pt x="1399" y="238" on="1"/>
        <pt x="1454" y="270" on="0"/>
      </contour>
    </TTGlyph>
    <TTGlyph name="uniFB53" xMin="434" yMin="-90" xMax="4458" yMax="1783">
      <contour>
        <pt x="4458" y="1461" on="1"/>
        <pt x="4458" y="1380" on="0"/>
        <pt x="4369" y="1312" on="1"/>
        <pt x="4292" y="1251" on="0"/>
        <pt x="4230" y="1251" on="1"/>
        <pt x="4220" y="1251" on="0"/>
        <pt x="4171" y="1262" on="0"/>
        <pt x="4159" y="1262" on="1"/>
        <pt x="4129" y="1262" on="0"/>
        <pt x="4106" y="1240" on="1"/>
        <pt x="4079" y="1215" on="0"/>
        <pt x="4051" y="1190" on="1"/>
        <pt x="4051" y="1224" on="1"/>
        <pt x="4050" y="1244" on="0"/>
        <pt x="4097" y="1300" on="1"/>
        <pt x="4140" y="1351" on="0"/>
        <pt x="4157" y="1359" on="1"/>
        <pt x="4183" y="1364" on="0"/>
        <pt x="4224" y="1376" on="1"/>
        <pt x="4257" y="1418" on="0"/>
        <pt x="4292" y="1460" on="1"/>
        <pt x="4359" y="1538" on="0"/>
        <pt x="4396" y="1538" on="1"/>
        <pt x="4413" y="1538" on="0"/>
        <pt x="4458" y="1480" on="0"/>
      </contour>
      <contour>
        <pt x="4277" y="192" on="1"/>
        <pt x="4277" y="179" on="0"/>
        <pt x="4276" y="143" on="1"/>
        <pt x="4274" y="102" on="0"/>
        <pt x="4274" y="88" on="1"/>
        <pt x="4274" y="72" on="0"/>
        <pt x="4255" y="44" on="1"/>
        <pt x="4232" y="12" on="0"/>
        <pt x="4203" y="2" on="1"/>
        <pt x="4125" y="887" on="1"/>
        <pt x="4125" y="951" on="0"/>
        <pt x="4148" y="1009" on="0"/>
        <pt x="4189" y="1046" on="1"/>
      </contour>
      <contour>
        <pt x="3480" y="1709" on="1"/>
        <pt x="3468" y="1676" on="0"/>
        <pt x="3440" y="1633" on="1"/>
        <pt x="3265" y="1528" on="0"/>
        <pt x="2942" y="1364" on="1"/>
        <pt x="2930" y="1366" on="0"/>
        <pt x="2930" y="1389" on="1"/>
        <pt x="2930" y="1442" on="0"/>
        <pt x="2960" y="1461" on="1"/>
        <pt x="3051" y="1520" on="0"/>
        <pt x="3427" y="1722" on="1"/>
      </contour>
      <contour>
        <pt x="3443" y="1297" on="1"/>
        <pt x="3443" y="1271" on="0"/>
        <pt x="3422" y="1227" on="1"/>
        <pt x="3398" y="1177" on="0"/>
        <pt x="3364" y="1152" on="1"/>
        <pt x="3351" y="1143" on="0"/>
        <pt x="3259" y="1114" on="1"/>
        <pt x="3170" y="1087" on="0"/>
        <pt x="3177" y="1087" on="1"/>
        <pt x="3110" y="1087" on="0"/>
        <pt x="3110" y="1159" on="1"/>
        <pt x="3110" y="1185" on="0"/>
        <pt x="3150" y="1250" on="1"/>
        <pt x="3160" y="1250" on="0"/>
        <pt x="3200" y="1210" on="0"/>
        <pt x="3215" y="1210" on="1"/>
        <pt x="3234" y="1210" on="0"/>
        <pt x="3256" y="1254" on="1"/>
        <pt x="3280" y="1303" on="0"/>
        <pt x="3307" y="1312" on="1"/>
        <pt x="3311" y="1285" on="0"/>
        <pt x="3333" y="1241" on="1"/>
        <pt x="3351" y="1276" on="0"/>
        <pt x="3399" y="1353" on="1"/>
        <pt x="3443" y="1330" on="0"/>
      </contour>
      <contour>
        <pt x="3386" y="872" on="1"/>
        <pt x="3386" y="852" on="0"/>
        <pt x="3363" y="813" on="1"/>
        <pt x="3338" y="770" on="0"/>
        <pt x="3314" y="770" on="1"/>
        <pt x="3295" y="770" on="0"/>
        <pt x="3234" y="839" on="0"/>
        <pt x="3234" y="852" on="1"/>
        <pt x="3234" y="870" on="0"/>
        <pt x="3297" y="954" on="0"/>
        <pt x="3314" y="954" on="1"/>
        <pt x="3352" y="954" on="0"/>
      </contour>
      <contour>
        <pt x="3499" y="682" on="1"/>
        <pt x="3499" y="659" on="0"/>
        <pt x="3436" y="586" on="0"/>
        <pt x="3413" y="586" on="1"/>
        <pt x="3402" y="586" on="0"/>
        <pt x="3345" y="637" on="0"/>
        <pt x="3333" y="637" on="1"/>
        <pt x="3321" y="637" on="0"/>
        <pt x="3255" y="575" on="0"/>
        <pt x="3243" y="575" on="1"/>
        <pt x="3216" y="575" on="0"/>
        <pt x="3158" y="623" on="0"/>
        <pt x="3158" y="652" on="1"/>
        <pt x="3158" y="678" on="0"/>
        <pt x="3196" y="716" on="1"/>
        <pt x="3229" y="750" on="0"/>
        <pt x="3238" y="750" on="1"/>
        <pt x="3248" y="750" on="0"/>
        <pt x="3305" y="698" on="0"/>
        <pt x="3319" y="698" on="1"/>
        <pt x="3331" y="698" on="0"/>
        <pt x="3407" y="759" on="0"/>
        <pt x="3418" y="759" on="1"/>
        <pt x="3440" y="759" on="0"/>
        <pt x="3467" y="736" on="1"/>
        <pt x="3499" y="711" on="0"/>
      </contour>
      <contour>
        <pt x="2654" y="1629" on="1"/>
        <pt x="2652" y="1594" on="0"/>
        <pt x="2629" y="1548" on="1"/>
        <pt x="2460" y="1451" on="0"/>
        <pt x="2120" y="1242" on="1"/>
        <pt x="2077" y="1242" on="1"/>
        <pt x="2075" y="1313" on="0"/>
        <pt x="2127" y="1348" on="1"/>
        <pt x="2240" y="1425" on="0"/>
        <pt x="2602" y="1629" on="1"/>
      </contour>
      <contour>
        <pt x="2484" y="831" on="1"/>
        <pt x="2484" y="795" on="0"/>
        <pt x="2450" y="764" on="1"/>
        <pt x="2422" y="739" on="0"/>
        <pt x="2403" y="739" on="1"/>
        <pt x="2384" y="739" on="0"/>
        <pt x="2354" y="762" on="1"/>
        <pt x="2322" y="786" on="0"/>
        <pt x="2322" y="811" on="1"/>
        <pt x="2322" y="831" on="0"/>
        <pt x="2385" y="913" on="0"/>
        <pt x="2403" y="913" on="1"/>
        <pt x="2437" y="913" on="0"/>
        <pt x="2462" y="880" on="1"/>
        <pt x="2484" y="852" on="0"/>
      </contour>
      <contour>
        <pt x="1734" y="1497" on="1"/>
        <pt x="1734" y="1460" on="0"/>
        <pt x="1509" y="1311" on="1"/>
        <pt x="1354" y="1208" on="0"/>
        <pt x="1232" y="1140" on="1"/>
        <pt x="1232" y="1208" on="1"/>
        <pt x="1309" y="1268" on="0"/>
        <pt x="1699" y="1527" on="1"/>
        <pt x="1734" y="1527" on="0"/>
      </contour>
      <contour>
        <pt x="3907" y="242" on="1"/>
        <pt x="3907" y="209" on="0"/>
        <pt x="3868" y="35" on="0"/>
        <pt x="3855" y="13" on="1"/>
        <pt x="3789" y="-18" on="0"/>
        <pt x="3717" y="-18" on="1"/>
        <pt x="3653" y="-18" on="0"/>
        <pt x="3516" y="43" on="0"/>
        <pt x="3518" y="43" on="1"/>
        <pt x="3517" y="43" on="0"/>
        <pt x="3409" y="-39" on="0"/>
        <pt x="3361" y="-39" on="1"/>
        <pt x="3351" y="-39" on="0"/>
        <pt x="3278" y="-8" on="0"/>
        <pt x="3267" y="-8" on="1"/>
        <pt x="3256" y="-8" on="0"/>
        <pt x="3224" y="-28" on="1"/>
        <pt x="3187" y="-52" on="0"/>
        <pt x="3173" y="-56" on="1"/>
        <pt x="3134" y="-69" on="0"/>
        <pt x="3087" y="-69" on="1"/>
        <pt x="3071" y="-69" on="0"/>
        <pt x="2951" y="-18" on="0"/>
        <pt x="2939" y="-18" on="1"/>
        <pt x="2928" y="-18" on="0"/>
        <pt x="2888" y="-39" on="1"/>
        <pt x="2842" y="-63" on="0"/>
        <pt x="2831" y="-67" on="1"/>
        <pt x="2761" y="-90" on="0"/>
        <pt x="2678" y="-90" on="1"/>
        <pt x="2570" y="-90" on="0"/>
        <pt x="2307" y="-8" on="0"/>
        <pt x="2318" y="-8" on="1"/>
        <pt x="2305" y="-8" on="0"/>
        <pt x="2275" y="-20" on="1"/>
        <pt x="2239" y="-35" on="0"/>
        <pt x="2233" y="-36" on="1"/>
        <pt x="2099" y="-69" on="0"/>
        <pt x="1971" y="-69" on="1"/>
        <pt x="1960" y="-69" on="0"/>
        <pt x="1929" y="-77" on="1"/>
        <pt x="1894" y="-86" on="0"/>
        <pt x="1882" y="-87" on="1"/>
        <pt x="1859" y="-90" on="0"/>
        <pt x="1810" y="-86" on="1"/>
        <pt x="1751" y="-80" on="0"/>
        <pt x="1749" y="-80" on="1"/>
        <pt x="1740" y="-80" on="0"/>
        <pt x="1722" y="-85" on="1"/>
        <pt x="1707" y="-90" on="0"/>
        <pt x="1691" y="-87" on="1"/>
        <pt x="1674" y="-85" on="0"/>
        <pt x="1614" y="-71" on="1"/>
        <pt x="1562" y="-59" on="0"/>
        <pt x="1537" y="-59" on="0"/>
        <pt x="1424" y="12" on="0"/>
        <pt x="1411" y="12" on="1"/>
        <pt x="1406" y="12" on="0"/>
        <pt x="1237" y="-69" on="0"/>
        <pt x="1169" y="-69" on="1"/>
        <pt x="1047" y="-69" on="0"/>
        <pt x="999" y="-28" on="1"/>
        <pt x="962" y="2" on="0"/>
        <pt x="893" y="146" on="1"/>
        <pt x="862" y="116" on="0"/>
        <pt x="792" y="66" on="1"/>
        <pt x="728" y="33" on="0"/>
        <pt x="657" y="33" on="1"/>
        <pt x="604" y="33" on="0"/>
        <pt x="540" y="51" on="1"/>
        <pt x="453" y="75" on="0"/>
        <pt x="453" y="115" on="1"/>
        <pt x="453" y="136" on="0"/>
        <pt x="494" y="204" on="1"/>
        <pt x="560" y="314" on="0"/>
        <pt x="840" y="481" on="1"/>
        <pt x="844" y="497" on="0"/>
        <pt x="856" y="611" on="1"/>
        <pt x="862" y="655" on="0"/>
        <pt x="900" y="687" on="1"/>
        <pt x="924" y="525" on="0"/>
        <pt x="986" y="213" on="1"/>
        <pt x="998" y="167" on="0"/>
        <pt x="1070" y="124" on="1"/>
        <pt x="1134" y="84" on="0"/>
        <pt x="1175" y="84" on="1"/>
        <pt x="1188" y="84" on="0"/>
        <pt x="1300" y="114" on="1"/>
        <pt x="1304" y="119" on="0"/>
        <pt x="1312" y="135" on="0"/>
        <pt x="1316" y="140" on="1"/>
        <pt x="1279" y="184" on="0"/>
        <pt x="1247" y="191" on="1"/>
        <pt x="1207" y="195" on="0"/>
        <pt x="1166" y="199" on="1"/>
        <pt x="1198" y="283" on="0"/>
        <pt x="1344" y="381" on="0"/>
        <pt x="1430" y="381" on="1"/>
        <pt x="1482" y="381" on="0"/>
        <pt x="1551" y="340" on="1"/>
        <pt x="1629" y="294" on="0"/>
        <pt x="1629" y="242" on="1"/>
        <pt x="1629" y="198" on="0"/>
        <pt x="1553" y="128" on="1"/>
        <pt x="1553" y="112" on="0"/>
        <pt x="1561" y="106" on="1"/>
        <pt x="1714" y="53" on="0"/>
        <pt x="1759" y="53" on="1"/>
        <pt x="1865" y="53" on="1"/>
        <pt x="1963" y="53" on="0"/>
        <pt x="2089" y="80" on="1"/>
        <pt x="2122" y="84" on="0"/>
        <pt x="2155" y="87" on="1"/>
        <pt x="2199" y="93" on="0"/>
        <pt x="2225" y="122" on="1"/>
        <pt x="2229" y="227" on="0"/>
        <pt x="2258" y="296" on="1"/>
        <pt x="2284" y="355" on="0"/>
        <pt x="2344" y="428" on="1"/>
        <pt x="2423" y="524" on="0"/>
        <pt x="2479" y="524" on="1"/>
        <pt x="2530" y="524" on="0"/>
        <pt x="2561" y="436" on="1"/>
        <pt x="2588" y="365" on="0"/>
        <pt x="2588" y="299" on="1"/>
        <pt x="2588" y="290" on="0"/>
        <pt x="2568" y="215" on="1"/>
        <pt x="2546" y="133" on="0"/>
        <pt x="2540" y="99" on="1"/>
        <pt x="2565" y="63" on="0"/>
        <pt x="2684" y="63" on="1"/>
        <pt x="2821" y="63" on="0"/>
        <pt x="2885" y="96" on="1"/>
        <pt x="2903" y="106" on="0"/>
        <pt x="2950" y="169" on="1"/>
        <pt x="2989" y="224" on="0"/>
        <pt x="3023" y="226" on="1"/>
        <pt x="3035" y="175" on="0"/>
        <pt x="3015" y="90" on="1"/>
        <pt x="3045" y="63" on="0"/>
        <pt x="3072" y="63" on="1"/>
        <pt x="3177" y="63" on="0"/>
        <pt x="3231" y="110" on="1"/>
        <pt x="3268" y="142" on="0"/>
        <pt x="3331" y="256" on="1"/>
        <pt x="3375" y="256" on="1"/>
        <pt x="3361" y="210" on="0"/>
        <pt x="3328" y="121" on="1"/>
        <pt x="3371" y="104" on="0"/>
        <pt x="3409" y="104" on="1"/>
        <pt x="3469" y="104" on="0"/>
        <pt x="3506" y="170" on="1"/>
        <pt x="3558" y="264" on="0"/>
        <pt x="3587" y="288" on="1"/>
        <pt x="3585" y="270" on="0"/>
        <pt x="3585" y="254" on="1"/>
        <pt x="3585" y="135" on="0"/>
        <pt x="3722" y="135" on="1"/>
        <pt x="3775" y="135" on="1"/>
        <pt x="3831" y="135" on="0"/>
        <pt x="3831" y="176" on="1"/>
        <pt x="3831" y="188" on="0"/>
        <pt x="3817" y="256" on="1"/>
        <pt x="3800" y="336" on="0"/>
        <pt x="3796" y="365" on="1"/>
        <pt x="3779" y="529" on="0"/>
        <pt x="3733" y="856" on="1"/>
        <pt x="3730" y="868" on="0"/>
        <pt x="3714" y="900" on="1"/>
        <pt x="3699" y="930" on="0"/>
        <pt x="3699" y="944" on="1"/>
        <pt x="3699" y="967" on="0"/>
        <pt x="3777" y="1140" on="0"/>
        <pt x="3799" y="1158" on="1"/>
        <pt x="3803" y="1152" on="0"/>
        <pt x="3807" y="1059" on="1"/>
        <pt x="3809" y="972" on="0"/>
        <pt x="3880" y="972" on="1"/>
        <pt x="3888" y="972" on="0"/>
        <pt x="3897" y="973" on="1"/>
        <pt x="3897" y="917" on="1"/>
        <pt x="3898" y="906" on="0"/>
        <pt x="3831" y="804" on="0"/>
        <pt x="3831" y="791" on="1"/>
        <pt x="3831" y="777" on="0"/>
        <pt x="3907" y="256" on="0"/>
      </contour>
      <contour>
        <pt x="1999" y="575" on="1"/>
        <pt x="1999" y="487" on="0"/>
        <pt x="1950" y="453" on="1"/>
        <pt x="1941" y="523" on="0"/>
        <pt x="1902" y="660" on="1"/>
        <pt x="1895" y="673" on="0"/>
        <pt x="1860" y="714" on="1"/>
        <pt x="1829" y="750" on="0"/>
        <pt x="1829" y="764" on="1"/>
        <pt x="1829" y="786" on="0"/>
        <pt x="1870" y="831" on="1"/>
        <pt x="1927" y="827" on="0"/>
        <pt x="1968" y="726" on="1"/>
        <pt x="1999" y="642" on="0"/>
      </contour>
      <contour>
        <pt x="1003" y="1446" on="1"/>
        <pt x="1003" y="1432" on="0"/>
        <pt x="992" y="1406" on="0"/>
        <pt x="992" y="1396" on="1"/>
        <pt x="989" y="1396" on="0"/>
        <pt x="974" y="1384" on="0"/>
        <pt x="960" y="1384" on="1"/>
        <pt x="951" y="1384" on="0"/>
        <pt x="864" y="1435" on="0"/>
        <pt x="852" y="1435" on="1"/>
        <pt x="852" y="1435" on="0"/>
        <pt x="739" y="1328" on="1"/>
        <pt x="622" y="1218" on="0"/>
        <pt x="524" y="1206" on="1"/>
        <pt x="524" y="1206" on="0"/>
        <pt x="505" y="1198" on="1"/>
        <pt x="490" y="1190" on="0"/>
        <pt x="475" y="1191" on="1"/>
        <pt x="434" y="1191" on="1"/>
        <pt x="522" y="1256" on="0"/>
        <pt x="612" y="1320" on="1"/>
        <pt x="766" y="1434" on="0"/>
        <pt x="766" y="1466" on="1"/>
        <pt x="766" y="1477" on="0"/>
        <pt x="671" y="1565" on="0"/>
        <pt x="671" y="1579" on="1"/>
        <pt x="671" y="1618" on="0"/>
        <pt x="731" y="1699" on="1"/>
        <pt x="793" y="1783" on="0"/>
        <pt x="827" y="1783" on="1"/>
        <pt x="831" y="1783" on="0"/>
        <pt x="867" y="1769" on="1"/>
        <pt x="902" y="1741" on="0"/>
        <pt x="902" y="1688" on="1"/>
        <pt x="902" y="1669" on="0"/>
        <pt x="890" y="1586" on="0"/>
        <pt x="890" y="1565" on="1"/>
        <pt x="890" y="1555" on="0"/>
        <pt x="891" y="1545" on="1"/>
        <pt x="921" y="1529" on="0"/>
        <pt x="950" y="1514" on="1"/>
        <pt x="1003" y="1481" on="0"/>
      </contour>
      <contour>
        <pt x="937" y="959" on="1"/>
        <pt x="937" y="936" on="0"/>
        <pt x="898" y="898" on="1"/>
        <pt x="865" y="862" on="0"/>
        <pt x="856" y="862" on="1"/>
        <pt x="843" y="862" on="0"/>
        <pt x="772" y="913" on="1"/>
        <pt x="726" y="861" on="0"/>
        <pt x="709" y="853" on="1"/>
        <pt x="707" y="852" on="0"/>
        <pt x="676" y="852" on="1"/>
        <pt x="586" y="852" on="0"/>
        <pt x="586" y="918" on="1"/>
        <pt x="586" y="938" on="0"/>
        <pt x="649" y="1016" on="0"/>
        <pt x="667" y="1016" on="1"/>
        <pt x="680" y="1016" on="0"/>
        <pt x="751" y="964" on="1"/>
        <pt x="830" y="1046" on="0"/>
        <pt x="852" y="1046" on="1"/>
        <pt x="869" y="1046" on="0"/>
        <pt x="937" y="978" on="0"/>
      </contour>
      <contour>
        <pt x="4363" y="1411" on="1"/>
        <pt x="4354" y="1420" on="0"/>
        <pt x="4339" y="1425" on="1"/>
        <pt x="4303" y="1416" on="0"/>
        <pt x="4293" y="1365" on="1"/>
        <pt x="4324" y="1377" on="0"/>
      </contour>
      <contour>
        <pt x="2502" y="218" on="1"/>
        <pt x="2504" y="227" on="0"/>
        <pt x="2504" y="237" on="1"/>
        <pt x="2504" y="282" on="0"/>
        <pt x="2469" y="345" on="1"/>
        <pt x="2446" y="360" on="0"/>
        <pt x="2436" y="360" on="1"/>
        <pt x="2414" y="360" on="0"/>
        <pt x="2312" y="259" on="0"/>
        <pt x="2312" y="233" on="1"/>
        <pt x="2312" y="211" on="0"/>
        <pt x="2373" y="165" on="0"/>
        <pt x="2398" y="165" on="1"/>
        <pt x="2430" y="165" on="0"/>
      </contour>
      <contour>
        <pt x="832" y="1647" on="1"/>
        <pt x="810" y="1670" on="0"/>
        <pt x="797" y="1670" on="1"/>
        <pt x="767" y="1637" on="0"/>
        <pt x="767" y="1623" on="1"/>
        <pt x="797" y="1590" on="0"/>
        <pt x="821" y="1590" on="1"/>
      </contour>
      <contour>
        <pt x="879" y="229" on="1"/>
        <pt x="879" y="360" on="0"/>
        <pt x="833" y="360" on="1"/>
        <pt x="812" y="360" on="0"/>
        <pt x="754" y="338" on="1"/>
        <pt x="690" y="311" on="0"/>
        <pt x="623" y="256" on="0"/>
        <pt x="586" y="200" on="1"/>
        <pt x="696" y="176" on="0"/>
        <pt x="723" y="176" on="1"/>
        <pt x="794" y="176" on="0"/>
      </contour>
    </TTGlyph>
    <TTGlyph name="uniFB54" xMin="300" yMin="-345" xMax="3575" yMax="1661">
      <contour>
        <pt x="2069" y="1649" on="1"/>
        <pt x="2069" y="1602" on="0"/>
        <pt x="2045" y="1582" on="1"/>
        <pt x="1873" y="1451" on="0"/>
        <pt x="1533" y="1251" on="1"/>
        <pt x="1518" y="1266" on="0"/>
        <pt x="1518" y="1292" on="1"/>
        <pt x="1518" y="1337" on="0"/>
        <pt x="1634" y="1412" on="1"/>
        <pt x="1701" y="1450" on="0"/>
        <pt x="1766" y="1488" on="1"/>
        <pt x="1860" y="1549" on="0"/>
        <pt x="2046" y="1661" on="1"/>
        <pt x="2060" y="1649" on="0"/>
      </contour>
      <contour>
        <pt x="2553" y="714" on="1"/>
        <pt x="2553" y="698" on="0"/>
        <pt x="2528" y="660" on="1"/>
        <pt x="2500" y="616" on="0"/>
        <pt x="2476" y="616" on="1"/>
        <pt x="2432" y="616" on="0"/>
        <pt x="2348" y="692" on="1"/>
        <pt x="2400" y="800" on="0"/>
        <pt x="2445" y="800" on="1"/>
        <pt x="2467" y="800" on="0"/>
        <pt x="2553" y="735" on="0"/>
      </contour>
      <contour>
        <pt x="3575" y="-108" on="1"/>
        <pt x="3496" y="-187" on="0"/>
        <pt x="3356" y="-244" on="1"/>
        <pt x="3232" y="-295" on="0"/>
        <pt x="3109" y="-345" on="1"/>
        <pt x="3095" y="-344" on="0"/>
        <pt x="3095" y="-320" on="1"/>
        <pt x="3095" y="-271" on="0"/>
        <pt x="3290" y="-176" on="1"/>
        <pt x="3415" y="-118" on="0"/>
        <pt x="3539" y="-60" on="1"/>
        <pt x="3575" y="-60" on="1"/>
      </contour>
      <contour>
        <pt x="3494" y="274" on="1"/>
        <pt x="3494" y="222" on="0"/>
        <pt x="3306" y="152" on="1"/>
        <pt x="3057" y="59" on="0"/>
        <pt x="3025" y="48" on="1"/>
        <pt x="2876" y="2" on="0"/>
        <pt x="2747" y="2" on="1"/>
        <pt x="2612" y="2" on="0"/>
        <pt x="2547" y="74" on="1"/>
        <pt x="2383" y="-49" on="0"/>
        <pt x="2205" y="-49" on="1"/>
        <pt x="2150" y="-49" on="0"/>
        <pt x="2059" y="-23" on="1"/>
        <pt x="1948" y="7" on="0"/>
        <pt x="1931" y="46" on="1"/>
        <pt x="1920" y="70" on="0"/>
        <pt x="1850" y="186" on="1"/>
        <pt x="1811" y="141" on="0"/>
        <pt x="1700" y="47" on="1"/>
        <pt x="1670" y="25" on="0"/>
        <pt x="1473" y="-28" on="0"/>
        <pt x="1426" y="-28" on="1"/>
        <pt x="1373" y="-28" on="0"/>
        <pt x="1326" y="-11" on="1"/>
        <pt x="1263" y="11" on="0"/>
        <pt x="1263" y="53" on="1"/>
        <pt x="1263" y="83" on="0"/>
        <pt x="1317" y="165" on="1"/>
        <pt x="1399" y="125" on="0"/>
        <pt x="1447" y="125" on="1"/>
        <pt x="1542" y="125" on="0"/>
        <pt x="1658" y="170" on="1"/>
        <pt x="1816" y="230" on="0"/>
        <pt x="1816" y="329" on="1"/>
        <pt x="1816" y="330" on="0"/>
        <pt x="1775" y="519" on="0"/>
        <pt x="1775" y="565" on="1"/>
        <pt x="1775" y="679" on="0"/>
        <pt x="1808" y="708" on="1"/>
        <pt x="1834" y="708" on="0"/>
        <pt x="1842" y="664" on="1"/>
        <pt x="1899" y="355" on="0"/>
        <pt x="1939" y="276" on="1"/>
        <pt x="2028" y="104" on="0"/>
        <pt x="2251" y="104" on="1"/>
        <pt x="2277" y="104" on="0"/>
        <pt x="2349" y="122" on="1"/>
        <pt x="2435" y="143" on="0"/>
        <pt x="2473" y="167" on="1"/>
        <pt x="2498" y="184" on="0"/>
        <pt x="2534" y="229" on="1"/>
        <pt x="2576" y="282" on="0"/>
        <pt x="2595" y="298" on="1"/>
        <pt x="2599" y="278" on="0"/>
        <pt x="2592" y="233" on="1"/>
        <pt x="2583" y="179" on="0"/>
        <pt x="2582" y="161" on="1"/>
        <pt x="2614" y="135" on="0"/>
        <pt x="2752" y="135" on="1"/>
        <pt x="2781" y="135" on="0"/>
        <pt x="2830" y="153" on="1"/>
        <pt x="2830" y="170" on="0"/>
        <pt x="2808" y="241" on="0"/>
        <pt x="2808" y="253" on="1"/>
        <pt x="2808" y="265" on="0"/>
        <pt x="2818" y="279" on="1"/>
        <pt x="2833" y="300" on="0"/>
        <pt x="2835" y="306" on="1"/>
        <pt x="2908" y="459" on="0"/>
        <pt x="2962" y="522" on="1"/>
        <pt x="3034" y="606" on="0"/>
        <pt x="3125" y="606" on="1"/>
        <pt x="3179" y="606" on="0"/>
        <pt x="3250" y="560" on="1"/>
        <pt x="3324" y="511" on="0"/>
        <pt x="3341" y="457" on="1"/>
        <pt x="3338" y="450" on="0"/>
        <pt x="3326" y="432" on="1"/>
        <pt x="3229" y="493" on="0"/>
        <pt x="3166" y="493" on="1"/>
        <pt x="3116" y="493" on="0"/>
        <pt x="3039" y="451" on="1"/>
        <pt x="2941" y="399" on="0"/>
        <pt x="2941" y="329" on="1"/>
        <pt x="2941" y="271" on="0"/>
        <pt x="3000" y="224" on="1"/>
        <pt x="3048" y="186" on="0"/>
        <pt x="3084" y="186" on="1"/>
        <pt x="3099" y="186" on="0"/>
        <pt x="3241" y="238" on="1"/>
        <pt x="3433" y="307" on="0"/>
        <pt x="3470" y="319" on="1"/>
        <pt x="3494" y="295" on="0"/>
      </contour>
      <contour>
        <pt x="1323" y="1383" on="1"/>
        <pt x="1323" y="1342" on="0"/>
        <pt x="1290" y="1292" on="1"/>
        <pt x="1258" y="1292" on="1"/>
        <pt x="1245" y="1292" on="0"/>
        <pt x="1188" y="1333" on="0"/>
        <pt x="1176" y="1333" on="1"/>
        <pt x="1153" y="1333" on="0"/>
        <pt x="1121" y="1286" on="1"/>
        <pt x="1079" y="1225" on="0"/>
        <pt x="1066" y="1214" on="1"/>
        <pt x="1022" y="1176" on="0"/>
        <pt x="950" y="1133" on="1"/>
        <pt x="875" y="1087" on="0"/>
        <pt x="857" y="1088" on="1"/>
        <pt x="751" y="1088" on="1"/>
        <pt x="751" y="1097" on="0"/>
        <pt x="754" y="1112" on="1"/>
        <pt x="840" y="1164" on="0"/>
        <pt x="926" y="1215" on="1"/>
        <pt x="1030" y="1280" on="0"/>
        <pt x="1078" y="1348" on="1"/>
        <pt x="1051" y="1380" on="0"/>
        <pt x="997" y="1407" on="1"/>
        <pt x="965" y="1423" on="0"/>
        <pt x="965" y="1466" on="1"/>
        <pt x="965" y="1507" on="0"/>
        <pt x="1019" y="1580" on="1"/>
        <pt x="1078" y="1661" on="0"/>
        <pt x="1129" y="1661" on="1"/>
        <pt x="1145" y="1661" on="0"/>
        <pt x="1190" y="1609" on="0"/>
        <pt x="1197" y="1585" on="1"/>
        <pt x="1214" y="1519" on="0"/>
        <pt x="1204" y="1464" on="1"/>
        <pt x="1226" y="1439" on="0"/>
        <pt x="1263" y="1418" on="1"/>
        <pt x="1314" y="1389" on="0"/>
      </contour>
      <contour>
        <pt x="1181" y="258" on="1"/>
        <pt x="1181" y="172" on="0"/>
        <pt x="998" y="-18" on="0"/>
        <pt x="919" y="-18" on="1"/>
        <pt x="866" y="-18" on="0"/>
        <pt x="832" y="33" on="1"/>
        <pt x="801" y="79" on="0"/>
        <pt x="801" y="135" on="1"/>
        <pt x="801" y="146" on="0"/>
        <pt x="854" y="274" on="1"/>
        <pt x="912" y="417" on="0"/>
        <pt x="928" y="470" on="1"/>
        <pt x="945" y="493" on="0"/>
        <pt x="971" y="493" on="1"/>
        <pt x="984" y="493" on="0"/>
        <pt x="1023" y="471" on="1"/>
        <pt x="1075" y="442" on="0"/>
        <pt x="1085" y="438" on="1"/>
        <pt x="1122" y="423" on="0"/>
        <pt x="1153" y="353" on="1"/>
        <pt x="1181" y="292" on="0"/>
      </contour>
      <contour>
        <pt x="822" y="531" on="1"/>
        <pt x="780" y="473" on="0"/>
        <pt x="696" y="439" on="1"/>
        <pt x="624" y="410" on="0"/>
        <pt x="556" y="410" on="1"/>
        <pt x="543" y="410" on="0"/>
        <pt x="400" y="451" on="0"/>
        <pt x="387" y="451" on="1"/>
        <pt x="378" y="451" on="0"/>
        <pt x="338" y="408" on="0"/>
        <pt x="320" y="408" on="1"/>
        <pt x="311" y="408" on="0"/>
        <pt x="300" y="413" on="1"/>
        <pt x="366" y="532" on="0"/>
        <pt x="412" y="532" on="1"/>
        <pt x="425" y="532" on="0"/>
        <pt x="543" y="481" on="0"/>
        <pt x="556" y="481" on="1"/>
        <pt x="566" y="481" on="0"/>
        <pt x="676" y="501" on="0"/>
        <pt x="701" y="501" on="0"/>
        <pt x="745" y="532" on="0"/>
        <pt x="757" y="531" on="1"/>
      </contour>
      <contour>
        <pt x="689" y="135" on="1"/>
        <pt x="689" y="61" on="0"/>
        <pt x="632" y="-15" on="1"/>
        <pt x="569" y="-100" on="0"/>
        <pt x="489" y="-100" on="1"/>
        <pt x="468" y="-100" on="0"/>
        <pt x="372" y="-53" on="0"/>
        <pt x="362" y="-41" on="1"/>
        <pt x="380" y="-45" on="0"/>
        <pt x="401" y="-45" on="1"/>
        <pt x="547" y="-45" on="0"/>
        <pt x="607" y="60" on="1"/>
        <pt x="607" y="76" on="0"/>
        <pt x="601" y="80" on="1"/>
        <pt x="565" y="81" on="0"/>
        <pt x="505" y="139" on="0"/>
        <pt x="505" y="165" on="1"/>
        <pt x="505" y="198" on="0"/>
        <pt x="530" y="245" on="1"/>
        <pt x="560" y="299" on="0"/>
        <pt x="592" y="299" on="1"/>
        <pt x="628" y="299" on="0"/>
        <pt x="662" y="224" on="1"/>
        <pt x="689" y="164" on="0"/>
      </contour>
      <contour>
        <pt x="1128" y="1488" on="1"/>
        <pt x="1128" y="1515" on="1"/>
        <pt x="1081" y="1527" on="1"/>
        <pt x="1069" y="1488" on="1"/>
      </contour>
      <contour>
        <pt x="1118" y="245" on="1"/>
        <pt x="1091" y="250" on="0"/>
        <pt x="1035" y="281" on="1"/>
        <pt x="982" y="309" on="0"/>
        <pt x="971" y="309" on="1"/>
        <pt x="954" y="309" on="0"/>
        <pt x="894" y="224" on="0"/>
        <pt x="894" y="202" on="1"/>
        <pt x="894" y="145" on="0"/>
        <pt x="981" y="145" on="1"/>
        <pt x="1063" y="145" on="0"/>
      </contour>
    </TTGlyph>
    <TTGlyph name="uniFB55" xMin="434" yMin="-613" xMax="1929" yMax="2015">
      <contour>
        <pt x="1401" y="1958" on="1"/>
        <pt x="967" y="1690" on="1"/>
        <pt x="927" y="1690" on="1"/>
        <pt x="927" y="1734" on="1"/>
        <pt x="927" y="1762" on="0"/>
        <pt x="1018" y="1819" on="1"/>
        <pt x="1076" y="1852" on="0"/>
        <pt x="1134" y="1886" on="1"/>
        <pt x="1202" y="1927" on="0"/>
        <pt x="1269" y="1968" on="1"/>
        <pt x="1334" y="2005" on="0"/>
        <pt x="1390" y="2015" on="1"/>
        <pt x="1390" y="2013" on="0"/>
        <pt x="1401" y="1976" on="0"/>
      </contour>
      <contour>
        <pt x="1329" y="1577" on="1"/>
        <pt x="1329" y="1488" on="0"/>
        <pt x="1255" y="1443" on="1"/>
        <pt x="1225" y="1423" on="0"/>
        <pt x="1139" y="1399" on="1"/>
        <pt x="1133" y="1398" on="0"/>
        <pt x="1100" y="1372" on="0"/>
        <pt x="1088" y="1372" on="1"/>
        <pt x="1034" y="1372" on="0"/>
        <pt x="1034" y="1439" on="1"/>
        <pt x="1034" y="1456" on="0"/>
        <pt x="1082" y="1566" on="1"/>
        <pt x="1091" y="1557" on="0"/>
        <pt x="1112" y="1484" on="1"/>
        <pt x="1138" y="1487" on="0"/>
        <pt x="1156" y="1534" on="1"/>
        <pt x="1185" y="1611" on="0"/>
        <pt x="1190" y="1617" on="1"/>
        <pt x="1222" y="1600" on="0"/>
        <pt x="1222" y="1543" on="1"/>
        <pt x="1226" y="1538" on="0"/>
        <pt x="1239" y="1530" on="0"/>
        <pt x="1243" y="1525" on="1"/>
        <pt x="1256" y="1571" on="0"/>
        <pt x="1287" y="1657" on="1"/>
        <pt x="1320" y="1657" on="1"/>
        <pt x="1320" y="1647" on="0"/>
        <pt x="1329" y="1590" on="0"/>
      </contour>
      <contour>
        <pt x="1687" y="189" on="1"/>
        <pt x="1687" y="142" on="0"/>
        <pt x="1672" y="84" on="1"/>
        <pt x="1654" y="15" on="0"/>
        <pt x="1628" y="1" on="1"/>
        <pt x="1535" y="1039" on="1"/>
        <pt x="1535" y="1049" on="0"/>
        <pt x="1580" y="1170" on="0"/>
        <pt x="1586" y="1177" on="1"/>
      </contour>
      <contour>
        <pt x="1813" y="-240" on="1"/>
        <pt x="1813" y="-279" on="0"/>
        <pt x="1756" y="-304" on="1"/>
        <pt x="1704" y="-319" on="0"/>
        <pt x="1652" y="-335" on="1"/>
        <pt x="1574" y="-358" on="0"/>
        <pt x="1521" y="-398" on="1"/>
        <pt x="1515" y="-391" on="0"/>
        <pt x="1505" y="-373" on="1"/>
        <pt x="1521" y="-326" on="0"/>
        <pt x="1515" y="-304" on="1"/>
        <pt x="1481" y="-269" on="0"/>
        <pt x="1481" y="-245" on="1"/>
        <pt x="1481" y="-219" on="0"/>
        <pt x="1555" y="-134" on="1"/>
        <pt x="1629" y="-51" on="0"/>
        <pt x="1647" y="-51" on="1"/>
        <pt x="1664" y="-51" on="0"/>
        <pt x="1714" y="-104" on="0"/>
        <pt x="1714" y="-122" on="1"/>
        <pt x="1714" y="-142" on="0"/>
        <pt x="1699" y="-167" on="1"/>
        <pt x="1682" y="-194" on="0"/>
        <pt x="1665" y="-194" on="1"/>
        <pt x="1654" y="-194" on="0"/>
        <pt x="1642" y="-182" on="1"/>
        <pt x="1624" y="-166" on="0"/>
        <pt x="1619" y="-163" on="1"/>
        <pt x="1596" y="-163" on="1"/>
        <pt x="1592" y="-172" on="0"/>
        <pt x="1580" y="-190" on="1"/>
        <pt x="1592" y="-217" on="0"/>
        <pt x="1621" y="-222" on="1"/>
        <pt x="1687" y="-235" on="0"/>
        <pt x="1701" y="-235" on="1"/>
        <pt x="1712" y="-235" on="0"/>
        <pt x="1727" y="-215" on="0"/>
        <pt x="1738" y="-215" on="1"/>
        <pt x="1802" y="-215" on="1"/>
        <pt x="1813" y="-217" on="0"/>
      </contour>
      <contour>
        <pt x="1311" y="1034" on="1"/>
        <pt x="1311" y="988" on="0"/>
        <pt x="1225" y="912" on="0"/>
        <pt x="1225" y="905" on="1"/>
        <pt x="1213" y="781" on="0"/>
        <pt x="1174" y="536" on="1"/>
        <pt x="1167" y="509" on="0"/>
        <pt x="1134" y="426" on="1"/>
        <pt x="1106" y="352" on="0"/>
        <pt x="1106" y="338" on="1"/>
        <pt x="1106" y="325" on="0"/>
        <pt x="1160" y="151" on="0"/>
        <pt x="1160" y="138" on="1"/>
        <pt x="1160" y="79" on="0"/>
        <pt x="1130" y="24" on="1"/>
        <pt x="1083" y="17" on="0"/>
        <pt x="956" y="-3" on="1"/>
        <pt x="849" y="-20" on="0"/>
        <pt x="837" y="-20" on="1"/>
        <pt x="773" y="-20" on="0"/>
        <pt x="760" y="-18" on="1"/>
        <pt x="712" y="-6" on="0"/>
        <pt x="712" y="41" on="1"/>
        <pt x="712" y="46" on="0"/>
        <pt x="740" y="142" on="1"/>
        <pt x="743" y="143" on="0"/>
        <pt x="814" y="143" on="1"/>
        <pt x="859" y="143" on="0"/>
        <pt x="875" y="155" on="1"/>
        <pt x="904" y="178" on="0"/>
        <pt x="949" y="238" on="1"/>
        <pt x="998" y="304" on="0"/>
        <pt x="998" y="328" on="1"/>
        <pt x="998" y="373" on="0"/>
        <pt x="671" y="819" on="0"/>
        <pt x="640" y="819" on="1"/>
        <pt x="631" y="819" on="0"/>
        <pt x="593" y="809" on="0"/>
        <pt x="581" y="809" on="1"/>
        <pt x="434" y="809" on="0"/>
        <pt x="434" y="1013" on="1"/>
        <pt x="434" y="1081" on="0"/>
        <pt x="445" y="1116" on="1"/>
        <pt x="482" y="1116" on="1"/>
        <pt x="500" y="1116" on="0"/>
        <pt x="571" y="1064" on="1"/>
        <pt x="649" y="1008" on="0"/>
        <pt x="693" y="957" on="1"/>
        <pt x="776" y="858" on="0"/>
        <pt x="881" y="699" on="1"/>
        <pt x="969" y="564" on="0"/>
        <pt x="1057" y="430" on="1"/>
        <pt x="1109" y="478" on="0"/>
        <pt x="1121" y="605" on="1"/>
        <pt x="1128" y="700" on="0"/>
        <pt x="1134" y="795" on="1"/>
        <pt x="1152" y="910" on="0"/>
        <pt x="1148" y="976" on="1"/>
        <pt x="1140" y="991" on="0"/>
        <pt x="1126" y="1017" on="1"/>
        <pt x="1122" y="1073" on="0"/>
        <pt x="1158" y="1161" on="1"/>
        <pt x="1197" y="1253" on="0"/>
        <pt x="1242" y="1279" on="1"/>
        <pt x="1253" y="1196" on="0"/>
        <pt x="1242" y="1112" on="1"/>
        <pt x="1246" y="1108" on="0"/>
        <pt x="1285" y="1072" on="1"/>
        <pt x="1311" y="1049" on="0"/>
      </contour>
      <contour>
        <pt x="1929" y="-393" on="1"/>
        <pt x="1904" y="-452" on="0"/>
        <pt x="1873" y="-467" on="1"/>
        <pt x="1761" y="-515" on="0"/>
        <pt x="1541" y="-613" on="1"/>
        <pt x="1510" y="-613" on="1"/>
        <pt x="1510" y="-569" on="1"/>
        <pt x="1509" y="-539" on="0"/>
        <pt x="1677" y="-462" on="1"/>
        <pt x="1788" y="-416" on="0"/>
        <pt x="1899" y="-368" on="1"/>
        <pt x="1904" y="-373" on="0"/>
        <pt x="1925" y="-388" on="0"/>
      </contour>
      <contour>
        <pt x="1069" y="176" on="1"/>
        <pt x="1069" y="213" on="1"/>
        <pt x="1065" y="213" on="0"/>
        <pt x="1042" y="224" on="0"/>
        <pt x="1036" y="224" on="1"/>
        <pt x="990" y="166" on="1"/>
        <pt x="1052" y="166" on="0"/>
      </contour>
    </TTGlyph>
    <TTGlyph name="uniFB56" xMin="255" yMin="-552" xMax="2292" yMax="1453">
      <contour>
        <pt x="1678" y="1428" on="1"/>
        <pt x="1678" y="1395" on="0"/>
        <pt x="1488" y="1275" on="1"/>
        <pt x="1217" y="1105" on="0"/>
        <pt x="1204" y="1095" on="1"/>
        <pt x="1161" y="1106" on="1"/>
        <pt x="1173" y="1106" on="0"/>
        <pt x="1169" y="1130" on="1"/>
        <pt x="1164" y="1158" on="0"/>
        <pt x="1169" y="1165" on="1"/>
        <pt x="1182" y="1182" on="0"/>
        <pt x="1231" y="1211" on="1"/>
        <pt x="1298" y="1251" on="0"/>
        <pt x="1312" y="1261" on="1"/>
        <pt x="1488" y="1387" on="0"/>
        <pt x="1664" y="1453" on="1"/>
        <pt x="1678" y="1452" on="0"/>
      </contour>
      <contour>
        <pt x="869" y="1218" on="1"/>
        <pt x="869" y="1158" on="0"/>
        <pt x="730" y="1097" on="1"/>
        <pt x="623" y="1049" on="0"/>
        <pt x="578" y="1045" on="1"/>
        <pt x="543" y="1045" on="1"/>
        <pt x="543" y="1082" on="1"/>
        <pt x="588" y="1108" on="0"/>
        <pt x="674" y="1163" on="1"/>
        <pt x="659" y="1198" on="0"/>
        <pt x="624" y="1198" on="1"/>
        <pt x="595" y="1198" on="0"/>
        <pt x="492" y="1148" on="1"/>
        <pt x="492" y="1181" on="1"/>
        <pt x="491" y="1197" on="0"/>
        <pt x="527" y="1235" on="1"/>
        <pt x="560" y="1269" on="0"/>
        <pt x="585" y="1285" on="1"/>
        <pt x="624" y="1311" on="0"/>
        <pt x="674" y="1311" on="1"/>
        <pt x="686" y="1311" on="0"/>
        <pt x="752" y="1283" on="1"/>
        <pt x="823" y="1254" on="0"/>
        <pt x="856" y="1248" on="1"/>
        <pt x="869" y="1235" on="0"/>
      </contour>
      <contour>
        <pt x="2292" y="-334" on="1"/>
        <pt x="2292" y="-376" on="0"/>
        <pt x="1888" y="-552" on="1"/>
        <pt x="1854" y="-552" on="1"/>
        <pt x="1842" y="-551" on="0"/>
        <pt x="1842" y="-527" on="1"/>
        <pt x="1842" y="-483" on="0"/>
        <pt x="2014" y="-403" on="1"/>
        <pt x="2129" y="-350" on="0"/>
        <pt x="2245" y="-298" on="1"/>
        <pt x="2292" y="-298" on="1"/>
      </contour>
      <contour>
        <pt x="2179" y="899" on="1"/>
        <pt x="2159" y="808" on="0"/>
        <pt x="2128" y="761" on="1"/>
        <pt x="2108" y="731" on="0"/>
        <pt x="2108" y="660" on="1"/>
        <pt x="2108" y="647" on="0"/>
        <pt x="2169" y="279" on="0"/>
        <pt x="2169" y="266" on="1"/>
        <pt x="2169" y="111" on="0"/>
        <pt x="2102" y="43" on="1"/>
        <pt x="2054" y="-8" on="0"/>
        <pt x="1956" y="-9" on="1"/>
        <pt x="1809" y="-11" on="0"/>
        <pt x="1797" y="-13" on="1"/>
        <pt x="1784" y="-31" on="0"/>
        <pt x="1746" y="-58" on="1"/>
        <pt x="1711" y="-72" on="0"/>
        <pt x="1657" y="-72" on="1"/>
        <pt x="1612" y="-72" on="1"/>
        <pt x="1536" y="-72" on="0"/>
        <pt x="1370" y="30" on="0"/>
        <pt x="1371" y="30" on="1"/>
        <pt x="1345" y="30" on="0"/>
        <pt x="1257" y="-3" on="1"/>
        <pt x="1154" y="-41" on="0"/>
        <pt x="1116" y="-80" on="1"/>
        <pt x="1103" y="-147" on="0"/>
        <pt x="1049" y="-294" on="1"/>
        <pt x="1009" y="-371" on="0"/>
        <pt x="907" y="-416" on="1"/>
        <pt x="739" y="-491" on="0"/>
        <pt x="658" y="-491" on="1"/>
        <pt x="604" y="-491" on="1"/>
        <pt x="483" y="-491" on="0"/>
        <pt x="375" y="-416" on="1"/>
        <pt x="255" y="-332" on="0"/>
        <pt x="255" y="-209" on="1"/>
        <pt x="255" y="-132" on="0"/>
        <pt x="313" y="-18" on="1"/>
        <pt x="375" y="102" on="0"/>
        <pt x="438" y="122" on="1"/>
        <pt x="438" y="85" on="1"/>
        <pt x="439" y="72" on="0"/>
        <pt x="412" y="26" on="1"/>
        <pt x="373" y="-40" on="0"/>
        <pt x="370" y="-48" on="1"/>
        <pt x="357" y="-73" on="0"/>
        <pt x="357" y="-127" on="1"/>
        <pt x="357" y="-242" on="0"/>
        <pt x="490" y="-299" on="1"/>
        <pt x="580" y="-338" on="0"/>
        <pt x="674" y="-338" on="1"/>
        <pt x="859" y="-338" on="0"/>
        <pt x="994" y="-234" on="1"/>
        <pt x="1013" y="-219" on="0"/>
        <pt x="1013" y="-148" on="1"/>
        <pt x="1013" y="-81" on="0"/>
        <pt x="998" y="-55" on="1"/>
        <pt x="964" y="3" on="0"/>
        <pt x="947" y="55" on="1"/>
        <pt x="943" y="66" on="0"/>
        <pt x="920" y="96" on="1"/>
        <pt x="900" y="121" on="0"/>
        <pt x="900" y="138" on="1"/>
        <pt x="900" y="164" on="0"/>
        <pt x="918" y="202" on="1"/>
        <pt x="938" y="246" on="0"/>
        <pt x="961" y="246" on="1"/>
        <pt x="990" y="246" on="0"/>
        <pt x="1008" y="214" on="1"/>
        <pt x="1021" y="188" on="0"/>
        <pt x="1035" y="161" on="1"/>
        <pt x="1068" y="116" on="0"/>
        <pt x="1091" y="104" on="1"/>
        <pt x="1139" y="82" on="0"/>
        <pt x="1207" y="82" on="1"/>
        <pt x="1303" y="82" on="0"/>
        <pt x="1376" y="143" on="1"/>
        <pt x="1395" y="158" on="0"/>
        <pt x="1478" y="256" on="1"/>
        <pt x="1530" y="317" on="0"/>
        <pt x="1576" y="317" on="1"/>
        <pt x="1586" y="317" on="0"/>
        <pt x="1649" y="256" on="1"/>
        <pt x="1721" y="185" on="0"/>
        <pt x="1757" y="165" on="1"/>
        <pt x="1818" y="133" on="0"/>
        <pt x="1919" y="133" on="1"/>
        <pt x="1970" y="133" on="1"/>
        <pt x="2027" y="133" on="0"/>
        <pt x="2078" y="170" on="1"/>
        <pt x="2065" y="384" on="0"/>
        <pt x="2022" y="782" on="1"/>
        <pt x="2020" y="795" on="0"/>
        <pt x="1985" y="859" on="0"/>
        <pt x="1985" y="875" on="1"/>
        <pt x="1985" y="1013" on="0"/>
        <pt x="2083" y="1106" on="1"/>
        <pt x="2100" y="1087" on="0"/>
        <pt x="2100" y="1057" on="1"/>
        <pt x="2100" y="1049" on="0"/>
        <pt x="2097" y="1013" on="0"/>
        <pt x="2097" y="1004" on="1"/>
        <pt x="2097" y="972" on="0"/>
        <pt x="2110" y="949" on="1"/>
        <pt x="2133" y="934" on="0"/>
      </contour>
      <contour>
        <pt x="715" y="481" on="1"/>
        <pt x="715" y="455" on="0"/>
        <pt x="656" y="389" on="0"/>
        <pt x="644" y="389" on="1"/>
        <pt x="598" y="389" on="0"/>
        <pt x="531" y="452" on="1"/>
        <pt x="536" y="481" on="0"/>
        <pt x="606" y="573" on="0"/>
        <pt x="624" y="573" on="1"/>
        <pt x="654" y="573" on="0"/>
        <pt x="715" y="508" on="0"/>
      </contour>
      <contour>
        <pt x="1605" y="103" on="1"/>
        <pt x="1587" y="154" on="0"/>
        <pt x="1581" y="165" on="1"/>
        <pt x="1566" y="194" on="0"/>
        <pt x="1539" y="205" on="1"/>
        <pt x="1493" y="158" on="0"/>
        <pt x="1494" y="146" on="1"/>
        <pt x="1539" y="102" on="0"/>
        <pt x="1571" y="103" on="1"/>
      </contour>
    </TTGlyph>
    <TTGlyph name="uniFB57" xMin="369" yMin="-421" xMax="3629" yMax="1759">
      <contour>
        <pt x="3599" y="1733" on="1"/>
        <pt x="3599" y="1683" on="0"/>
        <pt x="3375" y="1549" on="1"/>
        <pt x="3191" y="1439" on="0"/>
        <pt x="3119" y="1411" on="1"/>
        <pt x="3106" y="1412" on="0"/>
        <pt x="3106" y="1436" on="1"/>
        <pt x="3106" y="1478" on="0"/>
        <pt x="3186" y="1529" on="1"/>
        <pt x="3238" y="1558" on="0"/>
        <pt x="3289" y="1587" on="1"/>
        <pt x="3387" y="1642" on="0"/>
        <pt x="3585" y="1759" on="1"/>
        <pt x="3599" y="1757" on="0"/>
      </contour>
      <contour>
        <pt x="3629" y="1208" on="1"/>
        <pt x="3573" y="1167" on="0"/>
        <pt x="3475" y="1141" on="1"/>
        <pt x="3366" y="1112" on="0"/>
        <pt x="3316" y="1083" on="1"/>
        <pt x="3304" y="1098" on="1"/>
        <pt x="3317" y="1149" on="0"/>
        <pt x="3317" y="1140" on="1"/>
        <pt x="3317" y="1149" on="0"/>
        <pt x="3267" y="1202" on="0"/>
        <pt x="3267" y="1217" on="1"/>
        <pt x="3267" y="1252" on="0"/>
        <pt x="3412" y="1401" on="0"/>
        <pt x="3443" y="1401" on="1"/>
        <pt x="3470" y="1401" on="0"/>
        <pt x="3528" y="1347" on="0"/>
        <pt x="3528" y="1324" on="1"/>
        <pt x="3528" y="1267" on="0"/>
        <pt x="3463" y="1267" on="1"/>
        <pt x="3454" y="1267" on="0"/>
        <pt x="3426" y="1278" on="1"/>
        <pt x="3404" y="1287" on="0"/>
        <pt x="3387" y="1281" on="1"/>
        <pt x="3409" y="1237" on="0"/>
        <pt x="3463" y="1237" on="1"/>
        <pt x="3475" y="1237" on="0"/>
        <pt x="3615" y="1257" on="1"/>
        <pt x="3629" y="1244" on="1"/>
      </contour>
      <contour>
        <pt x="3568" y="233" on="1"/>
        <pt x="3568" y="116" on="0"/>
        <pt x="3511" y="70" on="1"/>
        <pt x="3407" y="955" on="1"/>
        <pt x="3407" y="1051" on="0"/>
        <pt x="3475" y="1103" on="1"/>
      </contour>
      <contour>
        <pt x="3015" y="843" on="1"/>
        <pt x="3015" y="818" on="0"/>
        <pt x="2995" y="789" on="1"/>
        <pt x="2975" y="755" on="0"/>
        <pt x="2949" y="755" on="1"/>
        <pt x="2926" y="755" on="0"/>
        <pt x="2886" y="781" on="1"/>
        <pt x="2845" y="807" on="0"/>
        <pt x="2845" y="827" on="1"/>
        <pt x="2845" y="845" on="0"/>
        <pt x="2906" y="930" on="0"/>
        <pt x="2930" y="930" on="1"/>
        <pt x="2967" y="930" on="0"/>
        <pt x="2992" y="898" on="1"/>
        <pt x="3015" y="870" on="0"/>
      </contour>
      <contour>
        <pt x="3257" y="243" on="1"/>
        <pt x="3257" y="166" on="0"/>
        <pt x="3222" y="103" on="1"/>
        <pt x="3207" y="75" on="0"/>
        <pt x="3113" y="45" on="1"/>
        <pt x="3091" y="35" on="0"/>
        <pt x="3051" y="21" on="1"/>
        <pt x="2944" y="-2" on="0"/>
        <pt x="2845" y="-2" on="1"/>
        <pt x="2733" y="-2" on="0"/>
        <pt x="2733" y="70" on="1"/>
        <pt x="2733" y="100" on="0"/>
        <pt x="2772" y="161" on="0"/>
        <pt x="2794" y="161" on="1"/>
        <pt x="2806" y="161" on="0"/>
        <pt x="2856" y="152" on="0"/>
        <pt x="2869" y="152" on="1"/>
        <pt x="2968" y="152" on="0"/>
        <pt x="3149" y="205" on="1"/>
        <pt x="3176" y="213" on="0"/>
        <pt x="3176" y="243" on="1"/>
        <pt x="3176" y="276" on="0"/>
        <pt x="3110" y="351" on="1"/>
        <pt x="3058" y="410" on="0"/>
        <pt x="3038" y="425" on="1"/>
        <pt x="3010" y="440" on="0"/>
        <pt x="2954" y="471" on="1"/>
        <pt x="2958" y="505" on="0"/>
        <pt x="2963" y="540" on="1"/>
        <pt x="2975" y="602" on="0"/>
        <pt x="3010" y="602" on="1"/>
        <pt x="3106" y="602" on="0"/>
        <pt x="3188" y="444" on="1"/>
        <pt x="3257" y="314" on="0"/>
      </contour>
      <contour>
        <pt x="3235" y="-182" on="1"/>
        <pt x="3236" y="-212" on="0"/>
        <pt x="3129" y="-258" on="1"/>
        <pt x="3070" y="-280" on="0"/>
        <pt x="3012" y="-302" on="1"/>
        <pt x="2925" y="-336" on="0"/>
        <pt x="2758" y="-421" on="1"/>
        <pt x="2744" y="-410" on="0"/>
        <pt x="2734" y="-410" on="1"/>
        <pt x="2734" y="-367" on="1"/>
        <pt x="2733" y="-334" on="0"/>
        <pt x="2927" y="-250" on="1"/>
        <pt x="3069" y="-192" on="0"/>
        <pt x="3212" y="-135" on="1"/>
        <pt x="3226" y="-146" on="0"/>
        <pt x="3235" y="-146" on="1"/>
      </contour>
      <contour>
        <pt x="2462" y="1590" on="1"/>
        <pt x="2445" y="1546" on="0"/>
        <pt x="2398" y="1486" on="1"/>
        <pt x="2198" y="1371" on="0"/>
        <pt x="1536" y="1018" on="1"/>
        <pt x="958" y="710" on="0"/>
        <pt x="626" y="511" on="1"/>
        <pt x="590" y="511" on="1"/>
        <pt x="590" y="555" on="1"/>
        <pt x="589" y="608" on="0"/>
        <pt x="643" y="638" on="1"/>
        <pt x="1101" y="901" on="0"/>
        <pt x="2437" y="1615" on="1"/>
      </contour>
      <contour>
        <pt x="1726" y="478" on="1"/>
        <pt x="1730" y="468" on="0"/>
        <pt x="1730" y="455" on="1"/>
        <pt x="1730" y="419" on="0"/>
        <pt x="1667" y="346" on="0"/>
        <pt x="1646" y="346" on="1"/>
        <pt x="1631" y="346" on="0"/>
        <pt x="1545" y="414" on="0"/>
        <pt x="1545" y="428" on="1"/>
        <pt x="1545" y="460" on="0"/>
        <pt x="1586" y="497" on="1"/>
        <pt x="1621" y="530" on="0"/>
        <pt x="1636" y="530" on="1"/>
        <pt x="1644" y="530" on="0"/>
      </contour>
      <contour>
        <pt x="2603" y="433" on="1"/>
        <pt x="2603" y="360" on="0"/>
        <pt x="2563" y="271" on="1"/>
        <pt x="2519" y="172" on="0"/>
        <pt x="2450" y="114" on="1"/>
        <pt x="2331" y="16" on="0"/>
        <pt x="1808" y="-166" on="0"/>
        <pt x="1646" y="-166" on="1"/>
        <pt x="1533" y="-166" on="0"/>
        <pt x="1479" y="-159" on="1"/>
        <pt x="1470" y="-158" on="0"/>
        <pt x="1442" y="-167" on="1"/>
        <pt x="1413" y="-176" on="0"/>
        <pt x="1400" y="-176" on="1"/>
        <pt x="1388" y="-176" on="0"/>
        <pt x="1306" y="-165" on="1"/>
        <pt x="1213" y="-152" on="0"/>
        <pt x="1178" y="-149" on="1"/>
        <pt x="933" y="-126" on="0"/>
        <pt x="788" y="-79" on="1"/>
        <pt x="513" y="11" on="0"/>
        <pt x="369" y="216" on="1"/>
        <pt x="369" y="251" on="1"/>
        <pt x="379" y="255" on="0"/>
        <pt x="394" y="264" on="1"/>
        <pt x="436" y="193" on="0"/>
        <pt x="711" y="94" on="1"/>
        <pt x="980" y="-2" on="0"/>
        <pt x="1113" y="-2" on="1"/>
        <pt x="1123" y="-2" on="0"/>
        <pt x="1497" y="-22" on="0"/>
        <pt x="1511" y="-22" on="1"/>
        <pt x="1727" y="-22" on="0"/>
        <pt x="2052" y="52" on="1"/>
        <pt x="2113" y="66" on="0"/>
        <pt x="2289" y="145" on="1"/>
        <pt x="2522" y="251" on="0"/>
        <pt x="2522" y="315" on="1"/>
        <pt x="2522" y="326" on="0"/>
        <pt x="2504" y="374" on="1"/>
        <pt x="2483" y="429" on="0"/>
        <pt x="2478" y="452" on="1"/>
        <pt x="2476" y="460" on="0"/>
        <pt x="2431" y="506" on="0"/>
        <pt x="2431" y="520" on="1"/>
        <pt x="2431" y="535" on="0"/>
        <pt x="2449" y="569" on="1"/>
        <pt x="2471" y="611" on="0"/>
        <pt x="2474" y="622" on="1"/>
        <pt x="2500" y="614" on="0"/>
        <pt x="2550" y="547" on="1"/>
        <pt x="2603" y="475" on="0"/>
      </contour>
    </TTGlyph>
    <TTGlyph name="uniFB58" xMin="112" yMin="-94" xMax="1566" yMax="1850">
      <contour>
        <pt x="1565" y="1814" on="1"/>
        <pt x="1566" y="1784" on="0"/>
        <pt x="1509" y="1742" on="1"/>
        <pt x="1501" y="1736" on="0"/>
        <pt x="1353" y="1652" on="1"/>
        <pt x="1223" y="1577" on="0"/>
        <pt x="1153" y="1514" on="1"/>
        <pt x="1106" y="1514" on="1"/>
        <pt x="1106" y="1558" on="1"/>
        <pt x="1106" y="1607" on="0"/>
        <pt x="1529" y="1850" on="1"/>
        <pt x="1565" y="1850" on="1"/>
      </contour>
      <contour>
        <pt x="1013" y="1303" on="1"/>
        <pt x="989" y="1288" on="0"/>
        <pt x="952" y="1288" on="1"/>
        <pt x="939" y="1288" on="0"/>
        <pt x="842" y="1319" on="0"/>
        <pt x="829" y="1319" on="1"/>
        <pt x="573" y="1063" on="0"/>
        <pt x="526" y="1064" on="1"/>
        <pt x="471" y="1064" on="1"/>
        <pt x="585" y="1198" on="0"/>
        <pt x="737" y="1334" on="1"/>
        <pt x="721" y="1353" on="0"/>
        <pt x="625" y="1422" on="1"/>
        <pt x="617" y="1475" on="0"/>
        <pt x="731" y="1647" on="0"/>
        <pt x="783" y="1647" on="1"/>
        <pt x="838" y="1647" on="0"/>
        <pt x="850" y="1561" on="1"/>
        <pt x="856" y="1511" on="0"/>
        <pt x="862" y="1460" on="1"/>
        <pt x="880" y="1432" on="0"/>
        <pt x="992" y="1334" on="0"/>
      </contour>
      <contour>
        <pt x="1454" y="243" on="1"/>
        <pt x="1415" y="64" on="0"/>
        <pt x="1399" y="35" on="1"/>
        <pt x="1367" y="-22" on="0"/>
        <pt x="1270" y="-22" on="1"/>
        <pt x="1197" y="-22" on="0"/>
        <pt x="1181" y="-16" on="1"/>
        <pt x="1159" y="-7" on="0"/>
        <pt x="1079" y="61" on="1"/>
        <pt x="1065" y="73" on="0"/>
        <pt x="1043" y="127" on="1"/>
        <pt x="1025" y="172" on="0"/>
        <pt x="1003" y="172" on="1"/>
        <pt x="1001" y="172" on="0"/>
        <pt x="839" y="79" on="0"/>
        <pt x="771" y="79" on="1"/>
        <pt x="692" y="79" on="1"/>
        <pt x="657" y="79" on="0"/>
        <pt x="599" y="95" on="1"/>
        <pt x="522" y="116" on="0"/>
        <pt x="522" y="147" on="1"/>
        <pt x="522" y="179" on="0"/>
        <pt x="584" y="251" on="1"/>
        <pt x="639" y="313" on="0"/>
        <pt x="667" y="331" on="1"/>
        <pt x="746" y="367" on="0"/>
        <pt x="825" y="404" on="1"/>
        <pt x="920" y="449" on="0"/>
        <pt x="959" y="518" on="1"/>
        <pt x="963" y="525" on="0"/>
        <pt x="972" y="604" on="1"/>
        <pt x="980" y="664" on="0"/>
        <pt x="1020" y="683" on="1"/>
        <pt x="1024" y="632" on="0"/>
        <pt x="1036" y="537" on="1"/>
        <pt x="1051" y="455" on="0"/>
        <pt x="1065" y="375" on="1"/>
        <pt x="1085" y="280" on="0"/>
        <pt x="1118" y="220" on="1"/>
        <pt x="1141" y="177" on="0"/>
        <pt x="1236" y="133" on="1"/>
        <pt x="1262" y="120" on="0"/>
        <pt x="1305" y="120" on="1"/>
        <pt x="1344" y="120" on="0"/>
        <pt x="1372" y="147" on="1"/>
        <pt x="1366" y="258" on="0"/>
        <pt x="1324" y="527" on="1"/>
        <pt x="1282" y="788" on="0"/>
        <pt x="1275" y="924" on="1"/>
        <pt x="1274" y="945" on="0"/>
        <pt x="1229" y="1048" on="0"/>
        <pt x="1229" y="1058" on="1"/>
        <pt x="1229" y="1069" on="0"/>
        <pt x="1246" y="1133" on="1"/>
        <pt x="1267" y="1209" on="0"/>
        <pt x="1272" y="1234" on="1"/>
        <pt x="1284" y="1251" on="0"/>
        <pt x="1316" y="1278" on="1"/>
        <pt x="1341" y="1253" on="0"/>
        <pt x="1341" y="1160" on="1"/>
        <pt x="1341" y="1121" on="0"/>
        <pt x="1383" y="1113" on="1"/>
        <pt x="1437" y="1104" on="0"/>
        <pt x="1453" y="1081" on="1"/>
        <pt x="1454" y="1077" on="0"/>
        <pt x="1454" y="1072" on="1"/>
        <pt x="1454" y="1044" on="0"/>
        <pt x="1411" y="985" on="1"/>
        <pt x="1365" y="923" on="0"/>
        <pt x="1361" y="904" on="1"/>
      </contour>
      <contour>
        <pt x="419" y="147" on="1"/>
        <pt x="419" y="75" on="0"/>
        <pt x="355" y="-5" on="1"/>
        <pt x="286" y="-94" on="0"/>
        <pt x="209" y="-94" on="1"/>
        <pt x="160" y="-94" on="0"/>
        <pt x="112" y="-58" on="1"/>
        <pt x="161" y="-40" on="0"/>
        <pt x="209" y="-24" on="1"/>
        <pt x="276" y="0" on="0"/>
        <pt x="318" y="48" on="1"/>
        <pt x="341" y="70" on="0"/>
        <pt x="332" y="90" on="1"/>
        <pt x="321" y="79" on="0"/>
        <pt x="302" y="79" on="1"/>
        <pt x="280" y="79" on="0"/>
        <pt x="235" y="119" on="0"/>
        <pt x="235" y="136" on="1"/>
        <pt x="235" y="172" on="0"/>
        <pt x="255" y="220" on="1"/>
        <pt x="281" y="284" on="0"/>
        <pt x="323" y="284" on="1"/>
        <pt x="354" y="284" on="0"/>
        <pt x="389" y="220" on="1"/>
        <pt x="419" y="166" on="0"/>
      </contour>
      <contour>
        <pt x="776" y="1474" on="1"/>
        <pt x="776" y="1522" on="1"/>
        <pt x="739" y="1522" on="1"/>
        <pt x="725" y="1494" on="0"/>
        <pt x="750" y="1475" on="1"/>
        <pt x="759" y="1473" on="0"/>
      </contour>
      <contour>
        <pt x="993" y="276" on="1"/>
        <pt x="993" y="346" on="0"/>
        <pt x="958" y="397" on="1"/>
        <pt x="885" y="358" on="0"/>
        <pt x="811" y="319" on="1"/>
        <pt x="720" y="270" on="0"/>
        <pt x="696" y="237" on="1"/>
        <pt x="751" y="223" on="0"/>
        <pt x="839" y="223" on="1"/>
        <pt x="932" y="223" on="0"/>
      </contour>
    </TTGlyph>
    <TTGlyph name="uniFB59" xMin="583" yMin="1767" xMax="1034" yMax="2299">
      <contour>
        <pt x="870" y="2007" on="1"/>
        <pt x="845" y="1982" on="0"/>
        <pt x="824" y="1982" on="1"/>
        <pt x="801" y="1982" on="0"/>
        <pt x="779" y="2005" on="1"/>
        <pt x="779" y="2042" on="1"/>
        <pt x="802" y="2042" on="0"/>
        <pt x="823" y="2064" on="1"/>
        <pt x="848" y="2052" on="0"/>
      </contour>
      <contour>
        <pt x="1034" y="1846" on="1"/>
        <pt x="1021" y="1825" on="1"/>
        <pt x="1000" y="1820" on="0"/>
        <pt x="918" y="1792" on="1"/>
        <pt x="848" y="1767" on="0"/>
        <pt x="834" y="1767" on="1"/>
        <pt x="583" y="1767" on="0"/>
        <pt x="583" y="1977" on="1"/>
        <pt x="583" y="2037" on="0"/>
        <pt x="665" y="2191" on="1"/>
        <pt x="649" y="2208" on="1"/>
        <pt x="615" y="2188" on="0"/>
        <pt x="584" y="2188" on="1"/>
        <pt x="584" y="2225" on="1"/>
        <pt x="657" y="2299" on="0"/>
        <pt x="701" y="2299" on="1"/>
        <pt x="714" y="2299" on="0"/>
        <pt x="920" y="2287" on="0"/>
        <pt x="961" y="2287" on="1"/>
        <pt x="940" y="2236" on="0"/>
        <pt x="846" y="2217" on="1"/>
        <pt x="742" y="2195" on="0"/>
        <pt x="708" y="2148" on="1"/>
        <pt x="690" y="2124" on="0"/>
        <pt x="671" y="2059" on="1"/>
        <pt x="655" y="2000" on="0"/>
        <pt x="655" y="1977" on="1"/>
        <pt x="655" y="1849" on="0"/>
        <pt x="846" y="1849" on="1"/>
        <pt x="848" y="1849" on="0"/>
        <pt x="979" y="1846" on="0"/>
      </contour>
    </TTGlyph>
    <TTGlyph name="uniFB5A" xMin="523" yMin="-421" xMax="2547" yMax="1730">
      <contour>
        <pt x="2294" y="1559" on="1"/>
        <pt x="2294" y="1513" on="0"/>
        <pt x="2021" y="1336" on="1"/>
        <pt x="1943" y="1281" on="0"/>
        <pt x="1783" y="1176" on="1"/>
        <pt x="1770" y="1190" on="0"/>
        <pt x="1770" y="1206" on="1"/>
        <pt x="1770" y="1252" on="0"/>
        <pt x="1915" y="1353" on="1"/>
        <pt x="1993" y="1403" on="0"/>
        <pt x="2070" y="1453" on="1"/>
        <pt x="2132" y="1496" on="0"/>
        <pt x="2252" y="1584" on="1"/>
        <pt x="2283" y="1584" on="1"/>
        <pt x="2294" y="1583" on="0"/>
      </contour>
      <contour>
        <pt x="1507" y="1669" on="1"/>
        <pt x="1141" y="1431" on="0"/>
        <pt x="1114" y="1432" on="1"/>
        <pt x="1076" y="1432" on="1"/>
        <pt x="1065" y="1433" on="0"/>
        <pt x="1065" y="1457" on="1"/>
        <pt x="1065" y="1492" on="0"/>
        <pt x="1261" y="1613" on="1"/>
        <pt x="1449" y="1730" on="0"/>
        <pt x="1459" y="1727" on="1"/>
        <pt x="1507" y="1727" on="1"/>
      </contour>
      <contour>
        <pt x="1454" y="1272" on="1"/>
        <pt x="1454" y="1121" on="0"/>
        <pt x="1296" y="1090" on="1"/>
        <pt x="1285" y="1087" on="0"/>
        <pt x="1209" y="1042" on="0"/>
        <pt x="1196" y="1042" on="1"/>
        <pt x="1169" y="1042" on="0"/>
        <pt x="1151" y="1076" on="1"/>
        <pt x="1137" y="1101" on="0"/>
        <pt x="1137" y="1119" on="1"/>
        <pt x="1137" y="1153" on="0"/>
        <pt x="1171" y="1202" on="1"/>
        <pt x="1198" y="1242" on="0"/>
        <pt x="1209" y="1246" on="1"/>
        <pt x="1209" y="1174" on="1"/>
        <pt x="1211" y="1174" on="0"/>
        <pt x="1224" y="1165" on="0"/>
        <pt x="1237" y="1165" on="1"/>
        <pt x="1264" y="1165" on="0"/>
        <pt x="1280" y="1225" on="1"/>
        <pt x="1296" y="1289" on="0"/>
        <pt x="1320" y="1298" on="1"/>
        <pt x="1327" y="1267" on="0"/>
        <pt x="1352" y="1205" on="1"/>
        <pt x="1394" y="1209" on="0"/>
        <pt x="1395" y="1267" on="1"/>
        <pt x="1398" y="1333" on="0"/>
        <pt x="1432" y="1349" on="1"/>
        <pt x="1454" y="1325" on="0"/>
      </contour>
      <contour>
        <pt x="1463" y="735" on="1"/>
        <pt x="1463" y="718" on="0"/>
        <pt x="1401" y="643" on="0"/>
        <pt x="1386" y="643" on="1"/>
        <pt x="1375" y="643" on="0"/>
        <pt x="1316" y="684" on="0"/>
        <pt x="1305" y="684" on="1"/>
        <pt x="1295" y="684" on="0"/>
        <pt x="1242" y="623" on="0"/>
        <pt x="1228" y="623" on="1"/>
        <pt x="1205" y="623" on="0"/>
        <pt x="1147" y="670" on="0"/>
        <pt x="1147" y="694" on="1"/>
        <pt x="1147" y="728" on="0"/>
        <pt x="1184" y="759" on="1"/>
        <pt x="1215" y="786" on="0"/>
        <pt x="1232" y="786" on="1"/>
        <pt x="1243" y="786" on="0"/>
        <pt x="1291" y="755" on="0"/>
        <pt x="1300" y="755" on="1"/>
        <pt x="1312" y="755" on="0"/>
        <pt x="1375" y="827" on="0"/>
        <pt x="1386" y="827" on="1"/>
        <pt x="1405" y="827" on="0"/>
        <pt x="1436" y="786" on="1"/>
        <pt x="1463" y="749" on="0"/>
      </contour>
      <contour>
        <pt x="2547" y="310" on="1"/>
        <pt x="2480" y="193" on="0"/>
        <pt x="2434" y="193" on="1"/>
        <pt x="2423" y="193" on="0"/>
        <pt x="2247" y="223" on="0"/>
        <pt x="2236" y="223" on="1"/>
        <pt x="2171" y="223" on="0"/>
        <pt x="1813" y="111" on="0"/>
        <pt x="1689" y="111" on="1"/>
        <pt x="1644" y="111" on="0"/>
        <pt x="1581" y="130" on="1"/>
        <pt x="1514" y="152" on="0"/>
        <pt x="1492" y="176" on="1"/>
        <pt x="1467" y="206" on="0"/>
        <pt x="1442" y="236" on="1"/>
        <pt x="1410" y="274" on="0"/>
        <pt x="1395" y="274" on="1"/>
        <pt x="1356" y="274" on="0"/>
        <pt x="1273" y="156" on="1"/>
        <pt x="1295" y="98" on="0"/>
        <pt x="1369" y="72" on="1"/>
        <pt x="1436" y="65" on="0"/>
        <pt x="1504" y="57" on="1"/>
        <pt x="1617" y="39" on="0"/>
        <pt x="1617" y="-17" on="1"/>
        <pt x="1617" y="-190" on="0"/>
        <pt x="1339" y="-320" on="1"/>
        <pt x="1122" y="-421" on="0"/>
        <pt x="988" y="-421" on="1"/>
        <pt x="851" y="-421" on="0"/>
        <pt x="734" y="-344" on="1"/>
        <pt x="587" y="-249" on="0"/>
        <pt x="587" y="-84" on="1"/>
        <pt x="587" y="-24" on="0"/>
        <pt x="629" y="73" on="1"/>
        <pt x="672" y="174" on="0"/>
        <pt x="730" y="243" on="1"/>
        <pt x="749" y="229" on="0"/>
        <pt x="749" y="213" on="1"/>
        <pt x="749" y="200" on="0"/>
        <pt x="677" y="-4" on="0"/>
        <pt x="677" y="-17" on="1"/>
        <pt x="677" y="-143" on="0"/>
        <pt x="803" y="-212" on="1"/>
        <pt x="904" y="-268" on="0"/>
        <pt x="1029" y="-268" on="1"/>
        <pt x="1226" y="-268" on="0"/>
        <pt x="1463" y="-117" on="1"/>
        <pt x="1463" y="-102" on="0"/>
        <pt x="1456" y="-97" on="1"/>
        <pt x="1370" y="-77" on="0"/>
        <pt x="1284" y="-56" on="1"/>
        <pt x="1173" y="-22" on="0"/>
        <pt x="1173" y="65" on="1"/>
        <pt x="1173" y="140" on="0"/>
        <pt x="1294" y="272" on="1"/>
        <pt x="1406" y="397" on="0"/>
        <pt x="1449" y="397" on="1"/>
        <pt x="1461" y="397" on="0"/>
        <pt x="1498" y="359" on="1"/>
        <pt x="1558" y="299" on="0"/>
        <pt x="1564" y="292" on="0"/>
        <pt x="1604" y="280" on="1"/>
        <pt x="1617" y="271" on="0"/>
        <pt x="1649" y="256" on="1"/>
        <pt x="1658" y="254" on="0"/>
        <pt x="1720" y="254" on="1"/>
        <pt x="1823" y="254" on="0"/>
        <pt x="1927" y="277" on="1"/>
        <pt x="1961" y="284" on="0"/>
        <pt x="1996" y="310" on="1"/>
        <pt x="1926" y="397" on="0"/>
        <pt x="1838" y="397" on="1"/>
        <pt x="1777" y="397" on="0"/>
        <pt x="1685" y="347" on="1"/>
        <pt x="1644" y="347" on="1"/>
        <pt x="1666" y="478" on="0"/>
        <pt x="1893" y="591" on="1"/>
        <pt x="1980" y="505" on="0"/>
        <pt x="2372" y="336" on="0"/>
        <pt x="2483" y="336" on="1"/>
        <pt x="2534" y="336" on="0"/>
        <pt x="2537" y="334" on="1"/>
        <pt x="2537" y="328" on="0"/>
      </contour>
      <contour>
        <pt x="1038" y="725" on="1"/>
        <pt x="1038" y="645" on="0"/>
        <pt x="909" y="595" on="1"/>
        <pt x="821" y="561" on="0"/>
        <pt x="776" y="561" on="1"/>
        <pt x="765" y="561" on="0"/>
        <pt x="619" y="602" on="0"/>
        <pt x="609" y="602" on="1"/>
        <pt x="597" y="602" on="0"/>
        <pt x="581" y="591" on="1"/>
        <pt x="557" y="575" on="0"/>
        <pt x="555" y="573" on="1"/>
        <pt x="548" y="574" on="0"/>
        <pt x="523" y="591" on="1"/>
        <pt x="582" y="714" on="0"/>
        <pt x="631" y="714" on="1"/>
        <pt x="643" y="714" on="0"/>
        <pt x="797" y="664" on="0"/>
        <pt x="808" y="664" on="1"/>
        <pt x="864" y="664" on="0"/>
        <pt x="908" y="686" on="1"/>
        <pt x="967" y="721" on="0"/>
        <pt x="1025" y="755" on="1"/>
        <pt x="1038" y="741" on="0"/>
      </contour>
      <contour>
        <pt x="975" y="284" on="1"/>
        <pt x="975" y="251" on="0"/>
        <pt x="919" y="152" on="1"/>
        <pt x="919" y="158" on="0"/>
        <pt x="900" y="279" on="1"/>
        <pt x="895" y="308" on="0"/>
        <pt x="861" y="379" on="1"/>
        <pt x="830" y="446" on="0"/>
        <pt x="830" y="459" on="1"/>
        <pt x="830" y="497" on="0"/>
        <pt x="870" y="530" on="1"/>
        <pt x="930" y="493" on="0"/>
        <pt x="944" y="424" on="1"/>
        <pt x="975" y="276" on="0"/>
      </contour>
    </TTGlyph>
    <TTGlyph name="uniFB5B" xMin="202" yMin="-512" xMax="1471" yMax="1607">
      <contour>
        <pt x="929" y="1576" on="1"/>
        <pt x="929" y="1528" on="0"/>
        <pt x="826" y="1458" on="1"/>
        <pt x="764" y="1419" on="0"/>
        <pt x="702" y="1380" on="1"/>
        <pt x="561" y="1267" on="0"/>
        <pt x="472" y="1229" on="1"/>
        <pt x="458" y="1230" on="0"/>
        <pt x="458" y="1254" on="1"/>
        <pt x="458" y="1308" on="0"/>
        <pt x="675" y="1458" on="1"/>
        <pt x="856" y="1583" on="0"/>
        <pt x="914" y="1607" on="1"/>
        <pt x="929" y="1593" on="0"/>
      </contour>
      <contour>
        <pt x="1266" y="261" on="1"/>
        <pt x="1266" y="135" on="0"/>
        <pt x="1224" y="43" on="1"/>
        <pt x="1197" y="31" on="1"/>
        <pt x="1102" y="983" on="1"/>
        <pt x="1102" y="999" on="0"/>
        <pt x="1158" y="1092" on="0"/>
        <pt x="1181" y="1116" on="1"/>
      </contour>
      <contour>
        <pt x="806" y="813" on="1"/>
        <pt x="806" y="782" on="0"/>
        <pt x="768" y="752" on="1"/>
        <pt x="737" y="727" on="0"/>
        <pt x="719" y="727" on="1"/>
        <pt x="687" y="727" on="0"/>
        <pt x="622" y="770" on="1"/>
        <pt x="618" y="798" on="0"/>
        <pt x="679" y="890" on="0"/>
        <pt x="703" y="890" on="1"/>
        <pt x="734" y="890" on="0"/>
        <pt x="806" y="831" on="0"/>
      </contour>
      <contour>
        <pt x="1369" y="-166" on="1"/>
        <pt x="1358" y="-193" on="0"/>
        <pt x="1325" y="-232" on="1"/>
        <pt x="1274" y="-260" on="0"/>
        <pt x="1181" y="-293" on="1"/>
        <pt x="1047" y="-339" on="0"/>
        <pt x="1025" y="-348" on="1"/>
        <pt x="1011" y="-336" on="0"/>
        <pt x="1002" y="-336" on="1"/>
        <pt x="1002" y="-326" on="0"/>
        <pt x="1036" y="-268" on="0"/>
        <pt x="1038" y="-260" on="1"/>
        <pt x="1039" y="-249" on="0"/>
        <pt x="1020" y="-212" on="0"/>
        <pt x="1020" y="-199" on="1"/>
        <pt x="1020" y="-166" on="0"/>
        <pt x="1088" y="-90" on="1"/>
        <pt x="1158" y="-10" on="0"/>
        <pt x="1205" y="-10" on="1"/>
        <pt x="1238" y="-10" on="0"/>
        <pt x="1266" y="-66" on="1"/>
        <pt x="1233" y="-133" on="0"/>
        <pt x="1190" y="-133" on="1"/>
        <pt x="1179" y="-133" on="0"/>
        <pt x="1159" y="-113" on="1"/>
        <pt x="1154" y="-117" on="0"/>
        <pt x="1138" y="-123" on="0"/>
        <pt x="1133" y="-128" on="1"/>
        <pt x="1152" y="-163" on="0"/>
        <pt x="1220" y="-163" on="1"/>
        <pt x="1342" y="-163" on="0"/>
      </contour>
      <contour>
        <pt x="959" y="220" on="1"/>
        <pt x="959" y="155" on="0"/>
        <pt x="925" y="65" on="1"/>
        <pt x="907" y="19" on="0"/>
        <pt x="791" y="-4" on="1"/>
        <pt x="603" y="-40" on="0"/>
        <pt x="570" y="-40" on="1"/>
        <pt x="538" y="-40" on="0"/>
        <pt x="468" y="2" on="1"/>
        <pt x="470" y="39" on="0"/>
        <pt x="472" y="77" on="1"/>
        <pt x="478" y="134" on="0"/>
        <pt x="503" y="143" on="1"/>
        <pt x="576" y="123" on="0"/>
        <pt x="713" y="123" on="1"/>
        <pt x="748" y="123" on="0"/>
        <pt x="857" y="180" on="1"/>
        <pt x="860" y="211" on="0"/>
        <pt x="830" y="257" on="1"/>
        <pt x="798" y="309" on="0"/>
        <pt x="747" y="345" on="1"/>
        <pt x="715" y="368" on="0"/>
        <pt x="666" y="371" on="1"/>
        <pt x="642" y="387" on="0"/>
        <pt x="642" y="419" on="1"/>
        <pt x="642" y="450" on="0"/>
        <pt x="665" y="489" on="1"/>
        <pt x="690" y="532" on="0"/>
        <pt x="719" y="532" on="1"/>
        <pt x="802" y="532" on="0"/>
        <pt x="887" y="396" on="1"/>
        <pt x="959" y="280" on="0"/>
      </contour>
      <contour>
        <pt x="1471" y="-334" on="1"/>
        <pt x="1471" y="-362" on="0"/>
        <pt x="1289" y="-430" on="1"/>
        <pt x="1173" y="-471" on="0"/>
        <pt x="1056" y="-512" on="1"/>
        <pt x="1049" y="-510" on="0"/>
        <pt x="1031" y="-498" on="1"/>
        <pt x="1051" y="-436" on="0"/>
        <pt x="1074" y="-424" on="1"/>
        <pt x="1151" y="-385" on="0"/>
        <pt x="1276" y="-340" on="1"/>
        <pt x="1396" y="-297" on="0"/>
        <pt x="1416" y="-298" on="1"/>
        <pt x="1471" y="-298" on="1"/>
      </contour>
      <contour>
        <pt x="355" y="123" on="1"/>
        <pt x="355" y="77" on="0"/>
        <pt x="312" y="-9" on="1"/>
        <pt x="294" y="-9" on="0"/>
        <pt x="277" y="13" on="1"/>
        <pt x="266" y="172" on="0"/>
        <pt x="231" y="599" on="1"/>
        <pt x="202" y="977" on="0"/>
        <pt x="202" y="988" on="1"/>
        <pt x="202" y="1039" on="0"/>
        <pt x="211" y="1058" on="1"/>
        <pt x="217" y="1068" on="0"/>
        <pt x="270" y="1136" on="1"/>
      </contour>
    </TTGlyph>
</ttFont>
